<?xml version="1.0" encoding="utf-8"?>
<!-- Generator: Adobe Illustrator 25.4.1, SVG Export Plug-In . SVG Version: 6.00 Build 0)  -->
<svg version="1.1" xmlns="http://www.w3.org/2000/svg" xmlns:xlink="http://www.w3.org/1999/xlink" x="0px" y="0px"
	 viewBox="0 0 3710 3710" style="enable-background:new 0 0 3710 3710;" xml:space="preserve">
<style type="text/css">
	.st0{fill:url(#SVGID_1_);}
	.st1{fill:#91B3FA;}
	.st2{opacity:0.6;fill:#FFFFFF;}
	.st3{opacity:0.78;fill:#FFFFFF;}
	.st4{fill:url(#SVGID_00000164493180287610873600000005033266082306403507_);}
	.st5{fill:url(#SVGID_00000074425963573420474710000011371672893722131370_);}
	.st6{opacity:0.6;}
	.st7{fill:#FFFFFF;}
	.st8{fill:url(#SVGID_00000021830883787868801490000002276573237709144994_);}
	.st9{fill:url(#SVGID_00000175307696539518787880000004121212764220099223_);}
	.st10{fill:url(#SVGID_00000000912278964368040090000004730065877140400819_);}
	.st11{fill:url(#SVGID_00000027574896045103014120000004738971296036628412_);}
	.st12{fill:url(#SVGID_00000157309053759631625850000015401276078937048213_);}
	.st13{opacity:0.5;fill:#FFFFFF;}
	.st14{fill:url(#SVGID_00000065796296376386701750000000101129060508176788_);}
	.st15{fill:url(#SVGID_00000093892569064122978060000018032657910553748618_);}
	.st16{fill:url(#SVGID_00000118397309252032010890000008447511584573426622_);}
	.st17{fill:url(#SVGID_00000043426210642929805310000018001164725361913991_);}
	.st18{fill:url(#SVGID_00000090263880253761894250000000018231871489358751_);}
	.st19{fill:url(#SVGID_00000129167088951902901550000012318789328094340239_);}
	.st20{fill:url(#SVGID_00000026147571289021769630000013747767699507996325_);}
	.st21{fill:url(#SVGID_00000011003387214831748540000015020782955180564405_);}
	.st22{fill:url(#SVGID_00000156562255139848343200000011852273336383880617_);}
	.st23{fill:url(#SVGID_00000099638531154349223610000004388996795842620544_);}
	.st24{fill:url(#SVGID_00000182492119716492074260000006156869509623435910_);}
	.st25{fill:url(#SVGID_00000158003541538524112380000010602679961348741540_);}
	.st26{fill:url(#SVGID_00000157283948209291120500000013069314118006686862_);}
	.st27{fill:url(#SVGID_00000036251654291014184650000007549979136039646336_);}
	.st28{fill:url(#SVGID_00000009572817563418123070000008781214175560837551_);}
	.st29{fill:url(#SVGID_00000136389027773162460820000002593073902969614225_);}
	.st30{fill:url(#SVGID_00000095326321405493757110000014632827845788607925_);}
	.st31{fill:url(#SVGID_00000137102603311648321910000005089085879947903394_);}
	.st32{fill:url(#SVGID_00000117641721288174188120000009393991978375938444_);}
	.st33{fill:url(#SVGID_00000011733486600239047790000013413478901332440218_);}
	.st34{fill:url(#SVGID_00000037655386713401105820000004864808346592702391_);}
	.st35{fill:url(#SVGID_00000165200639095232317400000009118185984585620625_);}
	.st36{fill:url(#SVGID_00000083805921347277058690000015672782839578019216_);}
	.st37{fill:url(#SVGID_00000054225628760381698000000010318660674970000815_);}
	.st38{fill:url(#SVGID_00000085244619050812940260000005714722851080682938_);}
	.st39{fill:url(#SVGID_00000050644922175032414470000014271426768764424598_);}
	.st40{fill:url(#SVGID_00000097495239451599347730000008231384214598563228_);}
	.st41{fill:url(#SVGID_00000036973389509946170920000013079604949072749472_);}
	.st42{fill:url(#SVGID_00000011722143327113649470000013910344315162189209_);}
	.st43{fill:url(#SVGID_00000025443641494514245190000003082854725416786061_);}
	.st44{fill:url(#SVGID_00000016042719849500887610000012218736437561612733_);}
</style>
<g id="Background">
</g>
<g id="Illustration">
	<g>
		<linearGradient id="SVGID_1_" gradientUnits="userSpaceOnUse" x1="3253.5212" y1="3457.7808" x2="752.391" y2="608.3872">
			<stop  offset="0" style="stop-color:#DAE3FE"/>
			<stop  offset="1" style="stop-color:#E9EFFD"/>
		</linearGradient>
		<path class="st0" d="M2910.39,2828.13c-503.73,531.58-1277.48,374.32-1391.85,349.05c-144.09-31.84-486.9-107.58-742.72-406.65
			c-391.66-457.87-352.11-1173.46-49.63-1655.9c88.01-140.38,384.2-557.55,940.41-648.25c32.51-5.3,613.32-90.46,1080.64,301.65
			c63.01,52.87,164.71,148.61,253.85,288.02C3277.61,1488.51,3408.47,2302.51,2910.39,2828.13z"/>
		<g>
			<path class="st1" d="M1818.9,597.82c5.7-27.86,34.71-44.24,61.5-34.69c177.66,63.35,790.39,272.6,1318.77,342.27
				c24.1,3.18,40.89,25.48,37.15,49.5l-307.39,1972.17c-4.21,27.04-29.45,45.61-56.52,41.55
				c-221.42-33.15-1132.59-172.93-1446.74-274.28c-19.12-6.17-30.49-25.76-26.46-45.44L1818.9,597.82z"/>
			<path class="st2" d="M1830.14,651.23c5.49-26.81,33.41-42.58,59.18-33.38c170.97,60.96,760.63,262.33,1269.11,329.38
				c23.19,3.06,39.35,24.52,35.75,47.63l-295.81,1897.9c-4.06,26.02-28.35,43.89-54.39,39.99
				c-213.08-31.9-1089.94-166.42-1392.26-263.96c-18.4-5.94-29.34-24.79-25.47-43.73L1830.14,651.23z"/>
			<path class="st3" d="M1996.69,807.76c-15.77-3.9-31.51,6.49-34.12,22.52l-66.11,406.32c-2.2,13.51,6.37,26.43,19.68,29.63
				c74.08,17.81,305.1,72.41,437.66,93.21c14.99,2.35,29.26-7.17,32.88-21.91c18.4-74.93,70.17-293.42,72.32-388.86
				c0.35-15.42-10.11-28.97-25.08-32.68L1996.69,807.76z"/>
			
				<linearGradient id="SVGID_00000139283845650873968490000007671758724983633555_" gradientUnits="userSpaceOnUse" x1="2736.2812" y1="363.3145" x2="2069.2593" y2="1356.3523" gradientTransform="matrix(0.9785 0.2062 -0.2062 0.9785 -280.7051 -24.5916)">
				<stop  offset="0" style="stop-color:#FDF53F"/>
				<stop  offset="1" style="stop-color:#D93C65"/>
			</linearGradient>
			<circle style="fill:url(#SVGID_00000139283845650873968490000007671758724983633555_);" cx="2185.71" cy="1027.56" r="88.4"/>
			
				<linearGradient id="SVGID_00000000212745482059136740000017120006141602076302_" gradientUnits="userSpaceOnUse" x1="2850.1812" y1="439.8332" x2="2183.1716" y2="1432.8523" gradientTransform="matrix(0.9785 0.2062 -0.2062 0.9785 -280.7051 -24.5916)">
				<stop  offset="0" style="stop-color:#FDF53F"/>
				<stop  offset="1" style="stop-color:#D93C65"/>
			</linearGradient>
			<path style="fill:url(#SVGID_00000000212745482059136740000017120006141602076302_);" d="M2000.8,1253.83l275.58,58.08
				c16.9,3.56,30.95-12.96,24.85-29.12c-15.69-41.56-53.32-105.69-138.65-121.14c-82.24-14.89-140.94,23.5-172.64,53.23
				C1976.48,1227.5,1982.74,1250.02,2000.8,1253.83z"/>
			<g class="st6">
				<path class="st7" d="M3057.19,1097.56c8.63,1.82,16.79-2.8,18.14-10.27c1.35-7.47-4.58-15.2-13.18-17.17l-481.2-110.41
					c-8.6-1.97-14.69,3.57-13.54,12.31l0.93,7.05c1.15,8.74,9.15,17.39,17.79,19.21L3057.19,1097.56z"/>
			</g>
			<g class="st6">
				<path class="st7" d="M2565.15,1034.72c-8.6-1.97-14.69,3.57-13.54,12.31l0.93,7.05c1.15,8.74,9.16,17.39,17.79,19.21
					l471.06,99.28c8.63,1.82,16.79-2.8,18.14-10.27s-4.58-15.2-13.18-17.17L2565.15,1034.72z"/>
			</g>
			<g class="st6">
				<path class="st7" d="M2549.11,1110.83c-8.6-1.97-14.69,3.57-13.54,12.31l0.93,7.05c1.15,8.74,9.15,17.39,17.79,19.21
					l471.06,99.28c8.63,1.82,16.79-2.8,18.14-10.27c1.35-7.47-4.58-15.2-13.18-17.17L2549.11,1110.83z"/>
			</g>
			<g class="st6">
				<path class="st7" d="M2994.91,1625.58c8.63,1.82,16.57-2.85,17.65-10.38s-5.1-15.23-13.71-17.12l-1129.7-247.41
					c-8.62-1.89-12.43,3.02-8.48,10.91l6.8,13.56c3.95,7.88,14.25,15.82,22.88,17.64L2994.91,1625.58z"/>
			</g>
			<g class="st6">
				<path class="st7" d="M1853.33,1425.69c-8.62-1.89-12.43,3.02-8.48,10.91l6.8,13.56c3.95,7.88,14.25,15.82,22.88,17.64
					l1104.56,232.8c8.63,1.82,16.57-2.85,17.65-10.38s-5.1-15.23-13.71-17.12L1853.33,1425.69z"/>
			</g>
			<path class="st2" d="M1821.83,1549.86c27.65,3.65,78.8,13.42,106.93,18.94c11.92,2.34,20.65,12.59,21,24.73
				c0.68,23.58-0.06,64.12-9.7,105.2c-2.89,12.3-15.1,20.04-27.43,17.3l-103.26-22.93c-12.7-2.82-21.22-14.78-19.73-27.7
				l11.42-99.28C1802.23,1555.85,1811.58,1548.51,1821.83,1549.86z"/>
			<g class="st6">
				<path class="st7" d="M2004.8,1630.18c-8.55-2.18-15.96,3.24-16.48,12.05l-1.01,17.22c-0.52,8.81,6.12,17.5,14.75,19.32
					l251.36,52.98c8.63,1.82,17.09-3.77,18.8-12.42l0.84-4.26c1.71-8.65-3.88-17.51-12.43-19.69L2004.8,1630.18z"/>
			</g>
			<path class="st2" d="M2385.67,1668.69c27.65,3.65,78.8,13.42,106.93,18.94c11.92,2.34,20.65,12.59,21,24.73
				c0.68,23.58-0.06,64.12-9.7,105.2c-2.89,12.3-15.09,20.04-27.43,17.3l-103.26-22.93c-12.7-2.82-21.21-14.78-19.73-27.7
				l11.42-99.28C2366.08,1674.69,2375.43,1667.34,2385.67,1668.69z"/>
			<g class="st6">
				<path class="st7" d="M2568.64,1749.01c-8.55-2.18-15.96,3.24-16.48,12.05l-1.01,17.22c-0.52,8.81,6.12,17.5,14.75,19.32
					l251.36,52.98c8.63,1.82,17.09-3.77,18.8-12.42l0.84-4.26c1.71-8.65-3.88-17.51-12.43-19.69L2568.64,1749.01z"/>
			</g>
			<g>
				<path class="st7" d="M1886.45,1966.94c-0.09-0.02-0.17-0.04-0.26-0.06l-95.31-21.04c-13.62-3.01-22.9-14.77-21.6-27.36
					l8.49-81.9c0.5-4.81,2.94-9.15,6.87-12.23c4.4-3.44,10.28-4.95,16.13-4.13l0,0c8.16,1.15,19.7,2.57,31.91,4.08
					c25.71,3.17,57.71,7.12,75.45,10.63c12.85,2.64,22.13,12.53,22.8,24.34c1.1,19.44-6.68,54.17-15.44,91.06
					C1912.64,1962.32,1899.65,1969.72,1886.45,1966.94z M1799.73,1827.64c-3.85-0.54-7.66,0.41-10.47,2.61
					c-2.32,1.81-3.75,4.33-4.04,7.1l-8.49,81.9c-0.91,8.8,5.86,17.08,15.76,19.27l95.31,21.04c0.06,0.01,0.13,0.03,0.19,0.04
					c9.25,1.95,18.29-2.95,20.2-11c8.63-36.33,16.29-70.47,15.25-88.91c-0.47-8.26-7.45-15.42-16.77-17.41
					c-17.47-3.45-49.32-7.38-74.91-10.54C1819.52,1830.23,1807.96,1828.8,1799.73,1827.64L1799.73,1827.64z"/>
				<path class="st2" d="M1808.26,1838.08c20.35,2.86,64.89,7.62,85.63,11.72c8.79,1.74,15.36,8.65,15.81,16.68
					c0.88,15.6-5.85,44.91-12.26,71.91c-1.92,8.09-10.76,13-19.86,10.99l-76.17-16.82c-9.37-2.07-15.81-10.11-14.93-18.63
					l6.79-65.45C1793.98,1841.73,1800.72,1837.02,1808.26,1838.08z"/>
				<g class="st6">
					<path class="st7" d="M1981.54,1931.41c0.56,11.07,8.55,20.35,19.41,22.54l885.23,178.7c10.01,2.02,19.75-4.54,21.64-14.58
						c1.84-9.76-4.44-19.21-14.15-21.3l-882.82-190.27C1995.27,1903.14,1980.74,1915.49,1981.54,1931.41z"/>
				</g>
				
					<linearGradient id="SVGID_00000018221381351063682890000005426691333064852616_" gradientUnits="userSpaceOnUse" x1="2718.9282" y1="1000.0346" x2="2220.5342" y2="1850.6761" gradientTransform="matrix(0.9785 0.2062 -0.2062 0.9785 -280.7051 -24.5916)">
					<stop  offset="0" style="stop-color:#A737D5"/>
					<stop  offset="1" style="stop-color:#EF497A"/>
				</linearGradient>
				<path style="fill:url(#SVGID_00000018221381351063682890000005426691333064852616_);" d="M1809.68,1851.5L1809.68,1851.5
					c7.97-2.67,16.57,1.74,19.06,9.76l11.72,37.74c1.17,3.78,6.15,4.6,8.48,1.41l68.64-94.17c3.42-4.7,10.78-1.31,9.5,4.35
					c-7.18,31.72-28.37,90.42-89.88,130.33c0,0-25.72-16.79-37.84-71.09C1797.62,1861.99,1802.06,1854.05,1809.68,1851.5z"/>
				<path class="st7" d="M1843.31,2171.63c-0.09-0.02-0.17-0.04-0.26-0.06l-95.31-21.04c-13.62-3.01-22.9-14.77-21.6-27.36
					l8.49-81.9c0.5-4.81,2.94-9.15,6.87-12.23c4.4-3.44,10.28-4.95,16.13-4.13l0,0c8.16,1.15,19.7,2.57,31.91,4.08
					c25.71,3.17,57.71,7.12,75.45,10.63c0.13,0.03,0.26,0.05,0.39,0.08c12.56,2.65,21.75,12.57,22.42,24.27
					c1.1,19.44-6.68,54.17-15.44,91.06C1869.5,2167,1856.51,2174.41,1843.31,2171.63z M1756.59,2032.33
					c-3.85-0.54-7.66,0.41-10.47,2.61c-2.32,1.81-3.75,4.33-4.04,7.1l-8.49,81.9c-0.91,8.8,5.86,17.08,15.76,19.27l95.31,21.04
					c0.06,0.01,0.13,0.03,0.19,0.04c9.25,1.95,18.29-2.95,20.2-11c8.63-36.34,16.29-70.47,15.25-88.91
					c-0.47-8.26-7.53-15.62-16.77-17.41c-17.47-3.45-49.32-7.38-74.91-10.54C1776.38,2034.91,1764.82,2033.49,1756.59,2032.33
					L1756.59,2032.33z"/>
				<path class="st2" d="M1765.12,2042.77c20.35,2.86,64.89,7.62,85.63,11.72c8.79,1.74,15.36,8.65,15.81,16.68
					c0.88,15.6-5.85,44.91-12.26,71.91c-1.92,8.09-10.76,13-19.86,11l-76.17-16.82c-9.37-2.07-15.81-10.11-14.93-18.63l6.79-65.45
					C1750.84,2046.41,1757.58,2041.71,1765.12,2042.77z"/>
				<g class="st6">
					<path class="st7" d="M1938.4,2136.1c0.56,11.07,8.55,20.35,19.41,22.54l885.23,178.7c10.01,2.02,19.75-4.54,21.64-14.58
						c1.84-9.76-4.44-19.21-14.15-21.3l-882.82-190.27C1952.13,2107.83,1937.6,2120.18,1938.4,2136.1z"/>
				</g>
				
					<linearGradient id="SVGID_00000157991867581120198770000017696518373319686053_" gradientUnits="userSpaceOnUse" x1="2810.1655" y1="1053.4924" x2="2311.7703" y2="1904.1357" gradientTransform="matrix(0.9785 0.2062 -0.2062 0.9785 -280.7051 -24.5916)">
					<stop  offset="0" style="stop-color:#A737D5"/>
					<stop  offset="1" style="stop-color:#EF497A"/>
				</linearGradient>
				<path style="fill:url(#SVGID_00000157991867581120198770000017696518373319686053_);" d="M1766.54,2056.19L1766.54,2056.19
					c7.97-2.67,16.57,1.74,19.06,9.76l11.72,37.74c1.17,3.78,6.15,4.6,8.48,1.41l68.64-94.17c3.42-4.7,10.78-1.31,9.5,4.35
					c-7.18,31.72-28.37,90.42-89.88,130.33c0,0-25.72-16.79-37.84-71.09C1754.48,2066.67,1758.92,2058.74,1766.54,2056.19z"/>
				<path class="st7" d="M1800.17,2376.31c-0.09-0.02-0.17-0.04-0.26-0.06l-95.31-21.04c-13.62-3-22.9-14.76-21.6-27.35l8.49-81.9
					c0.5-4.81,2.94-9.15,6.87-12.23c4.4-3.44,10.28-4.95,16.13-4.13l0,0c8.16,1.15,19.7,2.57,31.91,4.08
					c25.71,3.17,57.71,7.12,75.45,10.63c0.13,0.03,0.26,0.05,0.39,0.08c12.56,2.65,21.75,12.57,22.42,24.26
					c1.1,19.44-6.68,54.17-15.44,91.06C1826.36,2371.69,1813.37,2379.1,1800.17,2376.31z M1713.45,2237.02
					c-3.85-0.54-7.66,0.41-10.47,2.61c-2.32,1.81-3.75,4.33-4.04,7.1l-8.49,81.9c-0.91,8.8,5.86,17.08,15.76,19.26l95.31,21.05
					c0.06,0.01,0.13,0.03,0.19,0.04c9.25,1.95,18.29-2.96,20.2-11c8.63-36.33,16.29-70.47,15.25-88.91
					c-0.47-8.26-7.53-15.64-16.77-17.41c-17.47-3.45-49.32-7.38-74.91-10.54C1733.24,2239.6,1721.68,2238.17,1713.45,2237.02
					L1713.45,2237.02z"/>
				<path class="st2" d="M1721.98,2247.46c20.35,2.86,64.89,7.62,85.63,11.72c8.79,1.74,15.36,8.65,15.81,16.68
					c0.88,15.6-5.85,44.91-12.26,71.91c-1.92,8.09-10.76,13-19.86,11l-76.17-16.82c-9.37-2.07-15.81-10.11-14.93-18.63l6.79-65.45
					C1707.7,2251.1,1714.44,2246.4,1721.98,2247.46z"/>
				<g class="st6">
					<path class="st7" d="M1895.26,2340.79c0.56,11.07,8.55,20.35,19.41,22.54l885.23,178.7c10.01,2.02,19.75-4.54,21.64-14.58
						c1.84-9.76-4.44-19.21-14.15-21.3l-882.82-190.27C1908.99,2312.52,1894.46,2324.87,1895.26,2340.79z"/>
				</g>
				
					<linearGradient id="SVGID_00000086671227052986345610000001303044614707003058_" gradientUnits="userSpaceOnUse" x1="2886.8784" y1="1263.1849" x2="2231.0952" y2="2177.5334" gradientTransform="matrix(0.9785 0.2062 -0.2062 0.9785 -280.7051 -24.5916)">
					<stop  offset="0" style="stop-color:#A737D5"/>
					<stop  offset="1" style="stop-color:#EF497A"/>
				</linearGradient>
				<path style="fill:url(#SVGID_00000086671227052986345610000001303044614707003058_);" d="M1723.4,2260.88L1723.4,2260.88
					c7.97-2.67,16.57,1.74,19.06,9.76l11.72,37.74c1.17,3.78,6.15,4.6,8.48,1.41l68.64-94.17c3.42-4.7,10.78-1.31,9.5,4.35
					c-7.18,31.72-28.37,90.42-89.88,130.33c0,0-25.72-16.79-37.84-71.09C1711.34,2271.36,1715.78,2263.43,1723.4,2260.88z"/>
				<path class="st7" d="M1757.03,2581c-0.09-0.02-0.17-0.04-0.26-0.05l-95.31-21.04c-13.62-3-22.9-14.76-21.6-27.35l8.49-81.9
					c0.5-4.81,2.94-9.15,6.87-12.23c4.4-3.44,10.28-4.95,16.13-4.13l0,0c8.16,1.15,19.7,2.57,31.91,4.08
					c25.71,3.17,57.71,7.12,75.45,10.63c0.13,0.03,0.26,0.05,0.39,0.08c12.56,2.65,21.75,12.57,22.42,24.26
					c1.1,19.44-6.68,54.17-15.44,91.06C1783.22,2576.38,1770.23,2583.79,1757.03,2581z M1670.31,2441.71
					c-3.85-0.54-7.66,0.41-10.47,2.61c-2.32,1.81-3.75,4.33-4.04,7.1l-8.49,81.9c-0.91,8.8,5.86,17.08,15.76,19.26l95.31,21.05
					c0.06,0.01,0.13,0.03,0.19,0.04c9.25,1.95,18.29-2.95,20.2-11c8.63-36.33,16.29-70.47,15.25-88.91
					c-0.47-8.26-7.52-15.67-16.77-17.41c-17.47-3.45-49.32-7.38-74.91-10.54C1690.1,2444.29,1678.54,2442.86,1670.31,2441.71
					L1670.31,2441.71z"/>
				<path class="st2" d="M1678.84,2452.15c20.35,2.86,64.89,7.62,85.63,11.72c8.79,1.74,15.36,8.65,15.81,16.68
					c0.88,15.6-5.85,44.91-12.26,71.91c-1.92,8.09-10.76,13-19.86,11l-76.17-16.82c-9.37-2.07-15.81-10.11-14.93-18.63l6.79-65.45
					C1664.56,2455.79,1671.3,2451.09,1678.84,2452.15z"/>
				<g class="st6">
					<path class="st7" d="M1852.12,2545.48L1852.12,2545.48c0.56,11.07,8.55,20.35,19.41,22.54l885.23,178.7
						c10.01,2.02,19.75-4.54,21.64-14.58c1.84-9.76-4.44-19.21-14.15-21.3l-882.82-190.27
						C1865.85,2517.21,1851.32,2529.55,1852.12,2545.48z"/>
				</g>
				
					<linearGradient id="SVGID_00000119104813604527108000000006424732314554973315_" gradientUnits="userSpaceOnUse" x1="2992.6394" y1="1160.4087" x2="2494.2446" y2="2011.0515" gradientTransform="matrix(0.9785 0.2062 -0.2062 0.9785 -280.7051 -24.5916)">
					<stop  offset="0" style="stop-color:#A737D5"/>
					<stop  offset="1" style="stop-color:#EF497A"/>
				</linearGradient>
				<path style="fill:url(#SVGID_00000119104813604527108000000006424732314554973315_);" d="M1680.26,2465.57L1680.26,2465.57
					c7.97-2.67,16.57,1.74,19.06,9.76l11.72,37.74c1.17,3.78,6.15,4.6,8.48,1.41l68.64-94.17c3.42-4.7,10.78-1.31,9.5,4.35
					c-7.18,31.72-28.37,90.42-89.88,130.33c0,0-25.72-16.79-37.84-71.09C1668.2,2476.05,1672.64,2468.12,1680.26,2465.57z"/>
			</g>
		</g>
		<g>
			<path class="st1" d="M487.15,863.84c-5.82-27.84,14.3-54.38,42.68-56.25c188.21-12.36,833.67-63.47,1346.31-209.22
				c23.38-6.65,47.64,7.16,53.74,30.69l500.54,1932.2c6.86,26.49-8.94,53.55-35.39,60.57
				c-216.39,57.45-1108.21,290.75-1436.78,322.4c-20,1.93-38.21-11.54-42.32-31.21L487.15,863.84z"/>
			<path class="st2" d="M518.66,908.41c-5.61-26.79,13.77-52.34,41.08-54.13c181.12-11.9,802.28-61.08,1295.61-201.34
				c22.5-6.4,45.85,6.89,51.71,29.53l481.69,1859.44c6.6,25.5-8.6,51.53-34.06,58.29c-208.24,55.28-1066.48,279.81-1382.68,310.26
				c-19.24,1.85-36.77-11.11-40.73-30.03L518.66,908.41z"/>
			<path class="st3" d="M711.27,1020.19l100.57,399.19c3.35,13.28,16.34,21.73,29.83,19.39c75.06-13.05,308.78-54.62,438.71-88.13
				c14.7-3.79,24.01-18.19,21.48-33.16c-12.85-76.09-52.04-297.17-87.94-385.63c-5.8-14.29-20.78-22.58-35.99-20.04l-444.28,74.17
				C717.63,988.66,707.31,1004.44,711.27,1020.19z"/>
			
				<ellipse transform="matrix(0.068 -0.9977 0.9977 0.068 -183.3665 2029.1373)" class="st1" cx="994.38" cy="1112.71" rx="88.4" ry="88.4"/>
			<path class="st1" d="M914.45,1393.79l276-56.06c16.92-3.44,23.26-24.18,11.26-36.59c-30.89-31.92-90.89-75.85-175.34-56.16
				c-81.4,18.97-120.03,77.51-137.34,117.37C881.68,1379.27,896.37,1397.46,914.45,1393.79z"/>
			<g class="st6">
				<path class="st7" d="M1822.08,831.1c8.64-1.76,14.3-9.24,12.58-16.63c-1.73-7.39-10.24-12.13-18.91-10.53l-485.5,89.63
					c-8.67,1.6-12.07,9.1-7.54,16.67l3.65,6.1c4.53,7.57,15.3,12.33,23.95,10.57L1822.08,831.1z"/>
			</g>
			<g class="st6">
				<path class="st7" d="M1345.5,968.71c-8.67,1.6-12.07,9.1-7.54,16.67l3.65,6.1c4.53,7.57,15.3,12.33,23.95,10.57l471.78-95.82
					c8.64-1.76,14.3-9.24,12.58-16.63c-1.73-7.39-10.24-12.13-18.91-10.53L1345.5,968.71z"/>
			</g>
			<g class="st6">
				<path class="st7" d="M1360.98,1044.93c-8.67,1.6-12.07,9.1-7.54,16.67l3.65,6.1c4.53,7.57,15.3,12.33,23.95,10.57l471.78-95.82
					c8.64-1.76,14.3-9.24,12.58-16.63c-1.73-7.39-10.24-12.13-18.91-10.53L1360.98,1044.93z"/>
			</g>
			<g class="st6">
				<path class="st7" d="M1974.46,1340.48c8.64-1.76,14.08-9.19,12.08-16.53s-10.72-11.96-19.38-10.27L832.05,1534.93
					c-8.66,1.69-10.21,7.71-3.45,13.37l11.62,9.75c6.76,5.67,19.36,8.87,28,7.11L1974.46,1340.48z"/>
			</g>
			<g class="st6">
				<path class="st7" d="M847.31,1610.06c-8.66,1.69-10.21,7.71-3.45,13.37l11.62,9.75c6.76,5.67,19.36,8.87,28,7.11l1106.24-224.69
					c8.64-1.76,14.08-9.19,12.08-16.53c-2-7.34-10.72-11.96-19.38-10.27L847.31,1610.06z"/>
			</g>
			<path class="st2" d="M867.67,1736.53c26.82-7.62,77.66-18.95,105.66-25.05c11.87-2.58,23.94,3.36,29.09,14.36
				c9.99,21.37,25.39,58.88,32.85,100.42c2.23,12.44-5.9,24.38-18.31,26.77l-103.88,19.94c-12.78,2.45-25.34-5.14-29.1-17.59
				l-28.92-95.66C852.06,1749.81,857.73,1739.36,867.67,1736.53z"/>
			<g class="st6">
				<path class="st7" d="M1067.49,1737.64c-8.71,1.39-13.36,9.31-10.34,17.6l5.9,16.2c3.02,8.29,12.56,13.63,21.21,11.88
					l251.74-51.13c8.64-1.76,14.19-10.25,12.33-18.87l-0.92-4.24c-1.86-8.62-10.51-14.53-19.22-13.14L1067.49,1737.64z"/>
			</g>
			<path class="st2" d="M1432.37,1621.84c26.82-7.62,77.66-18.95,105.66-25.05c11.87-2.58,23.94,3.36,29.09,14.36
				c9.99,21.37,25.39,58.88,32.85,100.42c2.23,12.44-5.9,24.38-18.31,26.77l-103.88,19.94c-12.77,2.45-25.34-5.14-29.1-17.59
				l-28.92-95.66C1416.76,1635.12,1422.43,1624.66,1432.37,1621.84z"/>
			<g class="st6">
				<path class="st7" d="M1632.19,1622.95c-8.71,1.39-13.36,9.31-10.34,17.6l5.91,16.2c3.02,8.29,12.56,13.63,21.21,11.88
					l251.74-51.13c8.64-1.76,14.19-10.25,12.33-18.87l-0.92-4.24c-1.86-8.62-10.51-14.54-19.22-13.14L1632.19,1622.95z"/>
			</g>
			<g>
				<path class="st7" d="M1092.5,2093.72c-0.09,0.02-0.17,0.04-0.26,0.05l-95.83,18.51c-13.69,2.64-26.88-4.47-30.68-16.54
					l-24.71-78.54c-1.45-4.61-0.93-9.56,1.46-13.95c2.67-4.91,7.47-8.62,13.17-10.2l0,0c7.95-2.19,19.1-5.46,30.9-8.92
					c24.86-7.29,55.8-16.37,73.47-20.19c12.84-2.67,25.29,2.72,30.59,13.29c8.72,17.41,15.37,52.37,21.97,89.71
					C1114.72,2079.08,1105.73,2091.03,1092.5,2093.72z M957.63,2000.28c-3.75,1.03-6.87,3.42-8.58,6.55
					c-1.41,2.58-1.72,5.47-0.89,8.12l24.71,78.54c2.65,8.44,12.16,13.35,22.11,11.43l95.83-18.51c0.06-0.01,0.13-0.03,0.19-0.04
					c9.27-1.88,15.62-9.97,14.18-18.12c-6.5-36.78-13.02-71.15-21.29-87.66c-3.71-7.4-12.96-11.19-22.3-9.32
					c-17.41,3.76-48.2,12.8-72.94,20.05C976.82,1994.79,965.64,1998.07,957.63,2000.28L957.63,2000.28z"/>
				<path class="st2" d="M969.6,2006.47c19.81-5.45,62.59-18.76,83.25-23.22c8.75-1.89,17.53,1.85,21.13,9.04
					c7,13.97,12.45,43.54,17.28,70.87c1.45,8.19-4.71,16.21-13.86,17.97l-76.58,14.79c-9.42,1.82-18.52-3.01-21.09-11.17
					l-19.75-62.77C957.94,2015.49,962.26,2008.49,969.6,2006.47z"/>
				<g class="st6">
					<path class="st7" d="M1165.69,2023.36c4.9,9.94,15.92,15.28,26.76,12.99l883.45-187.29c9.99-2.12,16.33-12,14.07-21.97
						c-2.19-9.69-11.7-15.87-21.44-13.94l-885.83,175.72C1167.07,1991.97,1158.64,2009.07,1165.69,2023.36z"/>
				</g>
				<path class="st7" d="M1134.14,2298.72c-0.09,0.02-0.17,0.04-0.26,0.05l-95.83,18.51c-13.69,2.64-26.88-4.47-30.68-16.54
					l-24.71-78.55c-1.45-4.61-0.93-9.56,1.45-13.95c2.67-4.91,7.47-8.62,13.17-10.2l0,0c7.95-2.19,19.1-5.46,30.9-8.92
					c24.86-7.29,55.8-16.37,73.47-20.19c0.13-0.03,0.26-0.06,0.38-0.08c12.58-2.55,24.96,2.91,30.2,13.38
					c8.72,17.41,15.37,52.37,21.97,89.71C1156.35,2284.08,1147.37,2296.03,1134.14,2298.72z M999.27,2205.28
					c-3.75,1.03-6.87,3.42-8.58,6.55c-1.41,2.58-1.72,5.47-0.89,8.12l24.71,78.54c2.65,8.44,12.16,13.35,22.11,11.43l95.83-18.51
					c0.06-0.01,0.13-0.03,0.19-0.04c9.27-1.88,15.62-9.97,14.18-18.12c-6.5-36.78-13.02-71.15-21.29-87.66
					c-3.71-7.39-13.11-11.34-22.3-9.32c-17.4,3.76-48.2,12.8-72.94,20.05C1018.46,2199.79,1007.27,2203.07,999.27,2205.28
					L999.27,2205.28z"/>
				<path class="st2" d="M1011.24,2211.47c19.81-5.45,62.59-18.76,83.25-23.22c8.75-1.89,17.53,1.85,21.13,9.04
					c7,13.97,12.45,43.54,17.28,70.87c1.45,8.19-4.71,16.21-13.86,17.97l-76.58,14.79c-9.42,1.82-18.52-3-21.09-11.17l-19.75-62.77
					C999.57,2220.49,1003.9,2213.49,1011.24,2211.47z"/>
				<g class="st6">
					<path class="st7" d="M1207.33,2228.36c4.9,9.94,15.92,15.28,26.76,12.99l883.45-187.29c9.99-2.12,16.33-12,14.07-21.97
						c-2.19-9.69-11.7-15.87-21.44-13.94l-885.83,175.72C1208.71,2196.97,1200.28,2214.07,1207.33,2228.36z"/>
				</g>
				<path class="st7" d="M1175.78,2503.71c-0.09,0.02-0.17,0.04-0.26,0.05l-95.83,18.51c-13.69,2.65-26.88-4.46-30.68-16.54
					l-24.71-78.54c-1.45-4.61-0.93-9.57,1.46-13.96c2.67-4.91,7.47-8.62,13.17-10.2l0,0c7.95-2.19,19.1-5.46,30.9-8.92
					c24.86-7.29,55.8-16.37,73.47-20.19c0.13-0.03,0.26-0.06,0.38-0.08c12.58-2.55,24.96,2.91,30.2,13.38
					c8.72,17.41,15.37,52.37,21.97,89.71C1197.99,2489.08,1189,2501.03,1175.78,2503.71z M1040.91,2410.27
					c-3.75,1.03-6.87,3.42-8.58,6.55c-1.41,2.58-1.72,5.47-0.89,8.12l24.71,78.54c2.65,8.44,12.16,13.35,22.11,11.43l95.84-18.51
					c0.06-0.01,0.13-0.03,0.19-0.04c9.27-1.88,15.62-9.97,14.18-18.12c-6.5-36.78-13.02-71.15-21.29-87.66
					c-3.71-7.39-13.12-11.37-22.3-9.32c-17.4,3.76-48.2,12.8-72.94,20.05C1060.09,2404.79,1048.91,2408.07,1040.91,2410.27
					L1040.91,2410.27z"/>
				<path class="st2" d="M1052.88,2416.47c19.81-5.45,62.59-18.76,83.25-23.22c8.75-1.89,17.53,1.85,21.13,9.04
					c7,13.97,12.45,43.54,17.28,70.87c1.45,8.19-4.71,16.21-13.86,17.97l-76.58,14.79c-9.42,1.82-18.52-3.01-21.09-11.18
					l-19.75-62.77C1041.21,2425.49,1045.53,2418.49,1052.88,2416.47z"/>
				<g class="st6">
					<path class="st7" d="M1248.97,2433.36c4.9,9.94,15.92,15.28,26.76,12.99l883.45-187.29c9.99-2.12,16.33-12,14.07-21.97
						c-2.19-9.69-11.7-15.87-21.44-13.94l-885.83,175.72C1250.35,2401.97,1241.91,2419.07,1248.97,2433.36z"/>
				</g>
				<path class="st7" d="M1217.42,2708.71c-0.09,0.02-0.17,0.04-0.26,0.05l-95.83,18.51c-13.69,2.65-26.88-4.46-30.68-16.54
					l-24.71-78.55c-1.45-4.61-0.93-9.57,1.46-13.96c2.67-4.91,7.47-8.62,13.17-10.19l0,0c7.95-2.19,19.1-5.46,30.9-8.92
					c24.86-7.29,55.8-16.37,73.47-20.19c0.13-0.03,0.26-0.06,0.38-0.08c12.58-2.55,24.96,2.91,30.2,13.38
					c8.72,17.41,15.37,52.37,21.97,89.71C1239.63,2694.08,1230.64,2706.03,1217.42,2708.71z M1082.54,2615.27
					c-3.75,1.03-6.87,3.42-8.58,6.55c-1.41,2.58-1.72,5.47-0.89,8.12l24.71,78.54c2.65,8.44,12.16,13.35,22.11,11.43l95.84-18.51
					c0.06-0.01,0.13-0.03,0.19-0.04c9.27-1.88,15.62-9.97,14.18-18.12c-6.5-36.78-13.02-71.15-21.29-87.66
					c-3.71-7.4-13.12-11.4-22.3-9.32c-17.4,3.76-48.2,12.8-72.94,20.05C1101.73,2609.79,1090.55,2613.07,1082.54,2615.27
					L1082.54,2615.27z"/>
				<path class="st2" d="M1094.51,2621.47c19.81-5.45,62.59-18.76,83.25-23.22c8.75-1.89,17.53,1.85,21.13,9.04
					c7,13.97,12.45,43.54,17.28,70.87c1.45,8.19-4.71,16.21-13.86,17.97l-76.58,14.79c-9.42,1.82-18.52-3.01-21.09-11.17
					l-19.75-62.77C1082.85,2630.48,1087.17,2623.49,1094.51,2621.47z"/>
				<g class="st6">
					<path class="st7" d="M1290.6,2638.36L1290.6,2638.36c4.9,9.94,15.92,15.28,26.76,12.99l883.45-187.29
						c9.99-2.12,16.33-12,14.07-21.97c-2.19-9.69-11.7-15.87-21.44-13.94l-885.83,175.72
						C1291.99,2606.97,1283.55,2624.07,1290.6,2638.36z"/>
				</g>
				
					<linearGradient id="SVGID_00000085214361045574141950000017435668331457399447_" gradientUnits="userSpaceOnUse" x1="843.9461" y1="1957.5277" x2="345.561" y2="2808.1538" gradientTransform="matrix(0.98 -0.199 0.199 0.98 260.1227 -83.1575)">
					<stop  offset="0" style="stop-color:#A737D5"/>
					<stop  offset="1" style="stop-color:#EF497A"/>
				</linearGradient>
				<path style="fill:url(#SVGID_00000085214361045574141950000017435668331457399447_);" d="M1101.14,2633.23L1101.14,2633.23
					c6.25-5.61,15.9-4.98,21.37,1.4l25.74,29.99c2.58,3,7.47,1.78,8.34-2.07l25.63-113.68c1.28-5.67,9.37-5.49,10.45,0.23
					c5.99,31.96,9.84,94.25-30.77,155.29c0,0-30.27-5.21-62.95-50.24C1094.23,2647.64,1095.16,2638.59,1101.14,2633.23z"/>
			</g>
		</g>
		<g>
			<g>
				<path class="st1" d="M1060.13,2535.54c8.77,92.05,29.37,213.76,54.12,318.63h15.54c-32.01-126.56-61.46-299.88-52.79-499.67
					c8.75-201.48,58.09-446.11-33.92-562.96c-76.58-97.26-401.54-111.8-508.39-113.94c-13.35-0.27-21,15.11-12.69,25.57
					c40.97,51.55,126.75,170.92,134.22,275.17c9.85,137.4,116.64,245.24,222.74,290.13S1042.22,2347.6,1060.13,2535.54z"/>
				<path class="st13" d="M668.3,1762.53c65.73,16.68,127.9,46.67,182.29,87.74c27.25,20.45,51.94,44.49,73.24,71.32
					c21.07,26.98,38.76,56.87,51.04,88.97l4.55,12.05c1.49,4.03,2.6,8.18,3.91,12.27c1.21,4.1,2.58,8.24,3.66,12.31l3.25,12.21
					c4.37,16.27,8.65,32.57,12.77,48.9c8.29,32.66,16.06,65.46,23.31,98.36c14.55,65.81,27.06,132.06,35.5,199.05
					c0.2,1.61-0.94,3.07-2.54,3.28c-1.55,0.2-2.97-0.86-3.25-2.38l-0.02-0.09c-6-32.97-12.64-65.95-19.9-98.73
					c-7.11-32.82-14.62-65.56-22.48-98.21l-11.95-48.93l-12.5-48.8c-4.16-16.27-8.48-32.49-12.88-48.7l-3.27-12.16
					c-1.09-4.06-2.39-7.9-3.57-11.86c-1.24-3.92-2.28-7.92-3.69-11.78l-4.3-11.58c-11.54-30.88-28.55-59.48-48.38-85.83
					c-10.21-12.96-20.88-25.63-32.73-37.2l-4.36-4.42l-4.53-4.25c-3.03-2.82-5.99-5.72-9.09-8.48
					c-6.26-5.43-12.46-10.95-19.02-16.05c-25.85-20.88-54.24-38.59-83.75-54.13c-29.51-15.5-60.56-28.6-92.42-38.29l-0.15-0.05
					c-1.24-0.38-1.95-1.69-1.57-2.94C665.83,1762.92,667.09,1762.22,668.3,1762.53z"/>
			</g>
			<g>
				<path class="st1" d="M1063.19,2660.22c55.58,81.59,48.44,127.25,50.15,165.92c0.3,6.87,0.68,16.57,1.48,28.04h15.18
					c-3.1-15.74-5.3-31.61-6.08-47.18c-5.4-106.8-29.5-289.08-121.6-398.11c-92.1-109.04-192.95-118.99-320.03-19.86
					c-105.9,82.6-171.96,124.29-210.7,132.04c-9.59,1.92-14.49,12.75-9.82,21.35c24.85,45.76,95.1,150.87,213.05,143.47
					C825.27,2676.44,1007.62,2578.63,1063.19,2660.22z"/>
				<path class="st13" d="M725.33,2520.35c8.32-7.92,17.14-15.06,26.24-21.95c9.1-6.87,18.47-13.41,28.23-19.38
					c19.45-12.01,40.21-22.26,62.31-29.32c11.05-3.49,22.44-6.18,34.09-7.66c11.64-1.41,23.55-1.6,35.35-0.14
					c2.94,0.48,5.91,0.76,8.82,1.41c2.89,0.68,5.88,1.24,8.68,2.04l16.59,5.14l16.23,6.31l15.73,7.56
					c20.62,10.87,39.27,25.55,54.79,42.84c15.64,17.25,27.88,37.12,37.95,57.71l3.78,7.73c1.3,2.56,2.24,5.27,3.37,7.9
					c2.14,5.31,4.44,10.55,6.44,15.9l5.58,16.19c1.98,5.36,3.24,10.93,4.84,16.39c6.31,21.89,10.65,44.2,14.4,66.54
					c0.21,1.25-0.63,2.43-1.88,2.64c-1.19,0.2-2.32-0.56-2.6-1.71l-0.02-0.07c-5.3-21.89-10.4-43.81-17.68-65.02
					c-3.31-10.71-7.5-21.08-11.4-31.54c-2.1-5.17-4.49-10.2-6.72-15.3c-1.18-2.52-2.17-5.13-3.5-7.57l-3.88-7.37
					c-10.26-19.67-22.72-38.11-37.6-54.23c-14.89-16.12-32.56-29.43-51.91-39.61l-14.84-7.03l-15.37-5.88l-15.79-4.81
					c-2.62-0.74-5.19-1.24-7.79-1.88c-2.59-0.61-5.26-0.86-7.89-1.32c-10.6-1.39-21.44-1.31-32.21-0.08
					c-10.78,1.15-21.51,3.42-32.05,6.5c-21.11,6.15-41.47,15.32-61.03,26c-9.74,5.42-19.39,11.08-28.76,17.21
					c-9.34,6.14-18.57,12.62-27.36,19.43l-0.06,0.04c-1.04,0.8-2.53,0.62-3.34-0.42C724.34,2522.56,724.46,2521.18,725.33,2520.35z"
					/>
			</g>
		</g>
		<g>
			
				<linearGradient id="SVGID_00000057113086494627923950000004194230165286648976_" gradientUnits="userSpaceOnUse" x1="1899.3311" y1="2908.2876" x2="1780.9299" y2="-596.446">
				<stop  offset="0" style="stop-color:#09005D"/>
				<stop  offset="1" style="stop-color:#1A0F91"/>
			</linearGradient>
			<path style="fill:url(#SVGID_00000057113086494627923950000004194230165286648976_);" d="M1066.33,1061.87
				c0-83.61,67.78-151.38,151.38-151.38h1287.36c71.02,0,129.59,55.66,133.2,126.59l95.03,1866.43
				c2.83,55.51-40.87,102.33-96.44,103.34l-1475.48,26.82c-52.21,0.95-95.05-41.12-95.05-93.34V1061.87z"/>
			<g>
				<path class="st1" d="M1171.8,939.21c-0.16-26.75,23.37-47.45,49.87-43.86c175.8,23.84,780.33,97.57,1280.15,59.21
					c22.79-1.75,42.57,15.52,43.79,38.35l99.64,1874.75c1.37,25.71-18.26,47.69-43.96,49.21
					c-210.22,12.44-1075.95,60.53-1384.74,28.19c-18.79-1.97-33.06-17.79-33.17-36.69L1171.8,939.21z"/>
				<path class="st2" d="M1192.5,986.19c-0.15-25.74,22.49-45.67,48-42.21c169.18,22.94,750.95,93.9,1231.95,56.98
					c21.94-1.68,40.97,14.94,42.14,36.9l95.89,1804.16c1.31,24.74-17.58,45.89-42.3,47.36c-202.3,11.97-1035.43,58.25-1332.6,27.13
					c-18.09-1.89-31.81-17.12-31.92-35.31L1192.5,986.19z"/>
				<path class="st3" d="M1349.12,1125.29l17.97,386.79c0.6,12.86,10.99,23.09,23.86,23.46c71.63,2.02,294.85,7.46,420.89,0.89
					c14.26-0.74,25.54-12.28,26.01-26.55c2.4-72.54,7.66-283.67-8.87-371.92c-2.67-14.26-14.92-24.7-29.42-25.21l-423.41-14.81
					C1360.88,1097.42,1348.41,1110.03,1349.12,1125.29z"/>
				
					<linearGradient id="SVGID_00000012436172970990797810000008339244729639964291_" gradientUnits="userSpaceOnUse" x1="1476.9481" y1="1062.0742" x2="1871.6254" y2="1748.8135">
					<stop  offset="0" style="stop-color:#FF928E"/>
					<stop  offset="1" style="stop-color:#FE7062"/>
				</linearGradient>
				<circle style="fill:url(#SVGID_00000012436172970990797810000008339244729639964291_);" cx="1592.76" cy="1263.58" r="83.15"/>
				
					<linearGradient id="SVGID_00000155139302982443961960000008895535810800297908_" gradientUnits="userSpaceOnUse" x1="1384.7615" y1="1115.0551" x2="1779.4393" y2="1801.7954">
					<stop  offset="0" style="stop-color:#FF928E"/>
					<stop  offset="1" style="stop-color:#FE7062"/>
				</linearGradient>
				<path style="fill:url(#SVGID_00000155139302982443961960000008895535810800297908_);" d="M1466.46,1507.7h264.9
					c16.24,0,25.97-17.93,17.23-31.62c-22.5-35.21-69.58-86.93-151.11-84.6c-78.58,2.25-125.15,48.97-148.57,82.48
					C1438.97,1488.19,1449.1,1507.7,1466.46,1507.7z"/>
				<g class="st6">
					<path class="st7" d="M2408.42,1158.96c8.3,0,14.91-5.84,14.71-12.98c-0.21-7.14-7.17-13.1-15.46-13.24l-464.3-8.27
						c-8.29-0.15-12.83,6.13-10.07,13.96l2.22,6.31c2.76,7.83,11.8,14.23,20.09,14.23H2408.42z"/>
				</g>
				<g class="st6">
					<path class="st7" d="M1943.37,1196.57c-8.29-0.15-12.83,6.13-10.07,13.96l2.22,6.31c2.76,7.83,11.8,14.23,20.09,14.23h452.81
						c8.3,0,14.91-5.84,14.71-12.98c-0.21-7.14-7.17-13.1-15.46-13.24L1943.37,1196.57z"/>
				</g>
				<g class="st6">
					<path class="st7" d="M1943.37,1269.73c-8.29-0.15-12.83,6.13-10.07,13.96l2.22,6.31c2.76,7.83,11.8,14.23,20.09,14.23h452.81
						c8.3,0,14.91-5.84,14.71-12.98c-0.21-7.14-7.17-13.1-15.46-13.24L1943.37,1269.73z"/>
				</g>
				<g class="st6">
					<path class="st7" d="M2453.52,1657.02c8.3,0,14.7-5.84,14.23-12.98s-7.64-13.03-15.94-13.09l-1087.73-8.57
						c-8.3-0.07-10.86,5.19-5.69,11.68l8.89,11.16c5.17,6.49,16.18,11.8,24.48,11.8H2453.52z"/>
				</g>
				<g class="st6">
					<path class="st7" d="M1364.08,1694.48c-8.3-0.07-10.86,5.19-5.69,11.68l8.89,11.16c5.17,6.49,16.18,11.8,24.48,11.8h1061.77
						c8.3,0,14.7-5.84,14.23-12.98s-7.64-13.03-15.94-13.09L1364.08,1694.48z"/>
				</g>
				
					<linearGradient id="SVGID_00000164505708035077339810000006984291918898095543_" gradientUnits="userSpaceOnUse" x1="1205.1327" y1="1709.5708" x2="2444.4226" y2="2700.2117">
					<stop  offset="0" style="stop-color:#4F52FF"/>
					<stop  offset="1" style="stop-color:#4042E2"/>
				</linearGradient>
				<path style="fill:url(#SVGID_00000164505708035077339810000006984291918898095543_);" d="M1359.17,1814.87
					c26.15-2,75.13-2.93,102.09-3.31c11.42-0.16,21.44,7.58,24.12,18.68c5.2,21.57,12.38,59.03,11.48,98.71
					c-0.27,11.88-10.01,21.37-21.89,21.24l-99.49-1.07c-12.23-0.13-22.39-9.48-23.53-21.67l-8.75-93.59
					C1342.29,1824.19,1349.47,1815.62,1359.17,1814.87z"/>
				<g class="st6">
					<path class="st7" d="M1543.15,1853.31c-8.29-0.35-14.06,6.08-12.83,14.29l2.41,16.04c1.23,8.2,9.03,14.92,17.32,14.92h241.62
						c8.3,0,15-6.79,14.9-15.08l-0.05-4.08c-0.1-8.3-6.97-15.37-15.26-15.71L1543.15,1853.31z"/>
				</g>
				
					<linearGradient id="SVGID_00000165217871488694523200000012940483167499206823_" gradientUnits="userSpaceOnUse" x1="1416.4382" y1="1445.2285" x2="2655.7283" y2="2435.8696">
					<stop  offset="0" style="stop-color:#4F52FF"/>
					<stop  offset="1" style="stop-color:#4042E2"/>
				</linearGradient>
				<path style="fill:url(#SVGID_00000165217871488694523200000012940483167499206823_);" d="M1901.16,1814.87
					c26.15-2,75.13-2.93,102.09-3.31c11.42-0.16,21.44,7.58,24.12,18.68c5.2,21.57,12.38,59.03,11.48,98.71
					c-0.27,11.88-10.01,21.37-21.89,21.24l-99.49-1.07c-12.23-0.13-22.39-9.48-23.53-21.67l-8.75-93.59
					C1884.29,1824.19,1891.47,1815.62,1901.16,1814.87z"/>
				<g class="st6">
					<path class="st7" d="M2085.14,1853.31c-8.29-0.35-14.06,6.08-12.83,14.29l2.41,16.04c1.23,8.2,9.03,14.92,17.32,14.92h241.62
						c8.3,0,15-6.79,14.9-15.08l-0.05-4.08c-0.1-8.3-6.97-15.37-15.26-15.71L2085.14,1853.31z"/>
				</g>
				<g>
					<path class="st7" d="M1499.54,2186.21c-0.08,0-0.17,0-0.25,0l-91.8-0.88c-13.12-0.13-23.94-9.15-25.19-20.99l-8.07-77.03
						c-0.47-4.52,0.93-8.99,3.95-12.59c3.38-4.02,8.5-6.55,14.05-6.93l0,0c7.73-0.53,18.63-1.46,30.16-2.44
						c24.28-2.07,54.5-4.64,71.5-4.85c12.34-0.06,22.8,7.24,25.71,17.98c4.78,17.68,4.36,51.15,3.45,86.81
						C1522.75,2176.87,1512.23,2186.21,1499.54,2186.21z M1392.71,2074.83c-3.65,0.25-6.97,1.87-9.13,4.43
						c-1.78,2.12-2.61,4.72-2.34,7.31l8.07,77.03c0.87,8.27,8.71,14.58,18.24,14.68l91.8,0.88c0.06,0,0.12,0,0.18,0
						c8.9,0,16.26-6.27,16.46-14.05c0.9-35.12,1.32-68.02-3.21-84.79c-2.03-7.51-9.85-12.74-18.81-12.77
						c-16.75,0.21-46.83,2.77-70.99,4.83C1411.42,2073.36,1400.5,2074.29,1392.71,2074.83L1392.71,2074.83z"/>
					<path class="st2" d="M1402.59,2082.78c19.29-1.32,61.2-5.57,81.08-5.82c8.42-0.11,15.81,4.98,17.79,12.29
						c3.84,14.19,3.33,42.46,2.66,68.56c-0.2,7.82-7.38,14.06-16.14,13.97l-73.36-0.7c-9.02-0.09-16.51-6.24-17.35-14.25
						l-6.45-61.55C1390.14,2088.9,1395.44,2083.27,1402.59,2082.78z"/>
					<g class="st6">
						<path class="st7" d="M1580.17,2135.06c2.66,10.08,11.81,17.07,22.24,16.98l849.4-7.24c9.61-0.08,17.3-8.01,17.09-17.61
							c-0.2-9.34-7.81-16.82-17.15-16.86l-849.43-3.87C1587.32,2106.39,1576.35,2120.56,1580.17,2135.06z"/>
					</g>
					
						<linearGradient id="SVGID_00000145769373192640691980000016253030459042915741_" gradientUnits="userSpaceOnUse" x1="1676.0544" y1="1714.1904" x2="1207.2754" y2="2514.2859">
						<stop  offset="0" style="stop-color:#4F52FF"/>
						<stop  offset="1" style="stop-color:#4042E2"/>
					</linearGradient>
					<path style="fill:url(#SVGID_00000145769373192640691980000016253030459042915741_);" d="M1406.5,2094.86L1406.5,2094.86
						c6.82-4,15.59-1.61,19.44,5.29l18.11,32.46c1.81,3.25,6.55,3.04,8.08-0.35l44.91-99.99c2.24-4.99,9.67-3.3,9.59,2.17
						c-0.46,30.58-8.57,88.72-57.44,137.38c0,0-26.93-10.47-48.62-58.09C1397.42,2106.84,1399.98,2098.68,1406.5,2094.86z"/>
					<path class="st7" d="M1499.54,2382.97c-0.08,0-0.17,0-0.25,0l-91.8-0.88c-13.12-0.13-23.94-9.15-25.19-20.99l-8.07-77.03
						c-0.47-4.52,0.93-8.99,3.95-12.59c3.38-4.02,8.5-6.55,14.05-6.93l0,0c7.73-0.53,18.63-1.46,30.16-2.44
						c24.28-2.07,54.5-4.64,71.5-4.85c0.12,0,0.25,0,0.37,0c12.07,0,22.46,7.35,25.34,17.98c4.78,17.68,4.36,51.15,3.45,86.81
						C1522.75,2373.63,1512.23,2382.97,1499.54,2382.97z M1392.71,2271.59c-3.65,0.25-6.97,1.87-9.13,4.43
						c-1.78,2.12-2.61,4.72-2.34,7.31l8.07,77.03c0.87,8.27,8.71,14.58,18.24,14.68l91.8,0.88c0.06,0,0.12,0,0.18,0
						c8.9,0,16.26-6.27,16.46-14.05c0.9-35.12,1.32-68.02-3.21-84.79c-2.03-7.51-9.96-12.91-18.81-12.77
						c-16.75,0.21-46.82,2.77-70.99,4.83C1411.42,2270.12,1400.5,2271.05,1392.71,2271.59L1392.71,2271.59z"/>
					<path class="st2" d="M1402.59,2279.54c19.29-1.32,61.2-5.57,81.08-5.82c8.42-0.1,15.81,4.98,17.79,12.29
						c3.84,14.19,3.33,42.46,2.66,68.56c-0.2,7.82-7.38,14.06-16.14,13.97l-73.36-0.7c-9.02-0.09-16.51-6.24-17.35-14.25
						l-6.45-61.55C1390.14,2285.66,1395.44,2280.02,1402.59,2279.54z"/>
					<g class="st6">
						<path class="st7" d="M1580.17,2331.82c2.66,10.08,11.81,17.07,22.24,16.98l849.4-7.24c9.61-0.08,17.3-8.01,17.09-17.61
							c-0.2-9.34-7.81-16.82-17.15-16.86l-849.43-3.87C1587.32,2303.14,1576.35,2317.32,1580.17,2331.82z"/>
					</g>
					
						<linearGradient id="SVGID_00000044158709314347368690000000151774243129115302_" gradientUnits="userSpaceOnUse" x1="1761.8751" y1="1764.4724" x2="1293.0952" y2="2564.5696">
						<stop  offset="0" style="stop-color:#4F52FF"/>
						<stop  offset="1" style="stop-color:#4042E2"/>
					</linearGradient>
					<path style="fill:url(#SVGID_00000044158709314347368690000000151774243129115302_);" d="M1406.5,2291.61L1406.5,2291.61
						c6.82-4,15.59-1.61,19.44,5.29l18.11,32.46c1.81,3.25,6.55,3.04,8.08-0.35l44.91-99.99c2.24-4.99,9.67-3.3,9.59,2.17
						c-0.46,30.58-8.57,88.72-57.44,137.38c0,0-26.93-10.47-48.62-58.09C1397.42,2303.6,1399.98,2295.44,1406.5,2291.61z"/>
					<path class="st7" d="M1499.54,2579.72c-0.08,0-0.17,0-0.25,0l-91.8-0.88c-13.12-0.12-23.94-9.15-25.19-20.99l-8.07-77.03
						c-0.47-4.52,0.93-8.99,3.95-12.59c3.38-4.02,8.5-6.55,14.05-6.93l0,0c7.73-0.53,18.63-1.46,30.16-2.44
						c24.28-2.07,54.5-4.64,71.5-4.85c0.12,0,0.25,0,0.37,0c12.07,0,22.46,7.35,25.34,17.98c4.78,17.68,4.36,51.15,3.45,86.81
						C1522.75,2570.39,1512.23,2579.72,1499.54,2579.72z M1392.71,2468.34c-3.65,0.25-6.97,1.87-9.13,4.43
						c-1.78,2.12-2.61,4.72-2.34,7.32l8.07,77.03c0.87,8.27,8.71,14.58,18.24,14.67l91.8,0.88c0.06,0,0.12,0,0.18,0
						c8.9,0,16.26-6.27,16.46-14.05c0.9-35.12,1.32-68.02-3.21-84.79c-2.03-7.51-9.96-12.94-18.81-12.77
						c-16.75,0.21-46.82,2.77-70.99,4.83C1411.42,2466.88,1400.5,2467.81,1392.71,2468.34L1392.71,2468.34z"/>
					<path class="st2" d="M1402.59,2476.29c19.29-1.32,61.2-5.57,81.08-5.82c8.42-0.1,15.81,4.98,17.79,12.29
						c3.84,14.19,3.33,42.46,2.66,68.56c-0.2,7.82-7.38,14.06-16.14,13.97l-73.36-0.7c-9.02-0.09-16.51-6.24-17.35-14.25
						l-6.45-61.55C1390.14,2482.42,1395.44,2476.78,1402.59,2476.29z"/>
					<g class="st6">
						<path class="st7" d="M1580.17,2528.58c2.66,10.08,11.81,17.07,22.24,16.98l849.4-7.24c9.61-0.08,17.3-8.01,17.09-17.61
							c-0.2-9.34-7.81-16.82-17.15-16.86l-849.43-3.87C1587.32,2499.9,1576.35,2514.08,1580.17,2528.58z"/>
					</g>
					
						<linearGradient id="SVGID_00000149349688183979559650000004092608402515661713_" gradientUnits="userSpaceOnUse" x1="1834.0343" y1="1961.7063" x2="1217.2195" y2="2821.7219">
						<stop  offset="0" style="stop-color:#4F52FF"/>
						<stop  offset="1" style="stop-color:#4042E2"/>
					</linearGradient>
					<path style="fill:url(#SVGID_00000149349688183979559650000004092608402515661713_);" d="M1406.5,2488.37L1406.5,2488.37
						c6.82-4,15.59-1.61,19.44,5.29l18.11,32.46c1.81,3.25,6.55,3.04,8.08-0.35l44.91-99.99c2.24-4.99,9.67-3.3,9.59,2.17
						c-0.46,30.58-8.57,88.72-57.44,137.38c0,0-26.93-10.47-48.62-58.09C1397.42,2500.36,1399.98,2492.2,1406.5,2488.37z"/>
					<path class="st7" d="M1499.54,2776.48c-0.08,0-0.17,0-0.25,0l-91.8-0.88c-13.12-0.12-23.94-9.15-25.19-20.99l-8.07-77.03
						c-0.47-4.52,0.93-8.99,3.95-12.59c3.38-4.02,8.5-6.55,14.05-6.93l0,0c7.73-0.53,18.63-1.46,30.16-2.44
						c24.28-2.07,54.5-4.64,71.5-4.85c0.12,0,0.25,0,0.37,0c12.07,0,22.46,7.35,25.34,17.98c4.78,17.68,4.36,51.15,3.45,86.81
						C1522.75,2767.15,1512.23,2776.48,1499.54,2776.48z M1392.71,2665.1c-3.65,0.25-6.97,1.87-9.13,4.43
						c-1.78,2.12-2.61,4.72-2.34,7.32l8.07,77.03c0.87,8.27,8.71,14.58,18.24,14.67l91.8,0.88c0.06,0,0.12,0,0.18,0
						c8.9,0,16.26-6.27,16.46-14.05c0.9-35.12,1.32-68.02-3.21-84.79c-2.03-7.51-9.96-12.96-18.81-12.77
						c-16.75,0.21-46.82,2.77-70.99,4.83C1411.42,2663.64,1400.5,2664.57,1392.71,2665.1L1392.71,2665.1z"/>
					<path class="st2" d="M1402.59,2673.05c19.29-1.32,61.2-5.57,81.08-5.82c8.42-0.1,15.81,4.98,17.79,12.29
						c3.84,14.19,3.33,42.46,2.66,68.56c-0.2,7.82-7.38,14.06-16.14,13.97l-73.36-0.7c-9.02-0.09-16.51-6.24-17.35-14.25
						l-6.45-61.55C1390.14,2679.18,1395.44,2673.54,1402.59,2673.05z"/>
					<g class="st6">
						<path class="st7" d="M1580.17,2725.34L1580.17,2725.34c2.66,10.08,11.81,17.07,22.24,16.98l849.4-7.24
							c9.61-0.08,17.3-8.01,17.09-17.61c-0.2-9.34-7.81-16.82-17.15-16.86l-849.43-3.87
							C1587.32,2696.66,1576.35,2710.84,1580.17,2725.34z"/>
					</g>
					
						<linearGradient id="SVGID_00000168080256576916892350000015134570923692166537_" gradientUnits="userSpaceOnUse" x1="1933.5162" y1="1865.0371" x2="1464.7367" y2="2665.1333">
						<stop  offset="0" style="stop-color:#4F52FF"/>
						<stop  offset="1" style="stop-color:#4042E2"/>
					</linearGradient>
					<path style="fill:url(#SVGID_00000168080256576916892350000015134570923692166537_);" d="M1406.5,2685.13L1406.5,2685.13
						c6.82-4,15.59-1.61,19.44,5.29l18.11,32.46c1.81,3.25,6.55,3.04,8.08-0.35l44.91-99.99c2.24-4.99,9.67-3.3,9.59,2.17
						c-0.46,30.58-8.57,88.72-57.44,137.38c0,0-26.93-10.47-48.62-58.09C1397.42,2697.12,1399.98,2688.96,1406.5,2685.13z"/>
				</g>
			</g>
			
				<linearGradient id="SVGID_00000039818451419796605810000008236329648535123369_" gradientUnits="userSpaceOnUse" x1="2084.8635" y1="463.8452" x2="1492.723" y2="1242.792">
				<stop  offset="0" style="stop-color:#2B3582"/>
				<stop  offset="1" style="stop-color:#150E42"/>
			</linearGradient>
			<path style="fill:url(#SVGID_00000039818451419796605810000008236329648535123369_);" d="M1941.23,656.01
				c-46.5-32.35-86.94-31.71-115.4-23.31c-25.96,7.66-42.79,32.73-40.32,59.69l12.28,133.98l146.07,12.96
				C1943.85,839.33,2032.43,719.45,1941.23,656.01z M1877,764.1c-20.11,0-36.42-16.31-36.42-36.42c0-20.12,16.31-36.42,36.42-36.42
				c20.12,0,36.42,16.31,36.42,36.42C1913.42,747.79,1897.11,764.1,1877,764.1z"/>
			<path class="st7" d="M1812.38,770c-1.8,0-3.34-1.37-3.51-3.2l-1.96-21.34c-0.18-1.94,1.25-3.65,3.19-3.83
				c1.98-0.19,3.66,1.25,3.83,3.19l1.95,21.34c0.18,1.94-1.25,3.65-3.19,3.83C1812.59,770,1812.48,770,1812.38,770z M1808.55,728.19
				c-1.8,0-3.34-1.37-3.51-3.2l-1.49-16.2c-2.35-25.68,13.81-49.59,38.42-56.86c17.43-5.15,35.4-5.88,53.38-2.19
				c1.91,0.39,3.14,2.25,2.74,4.16c-0.39,1.9-2.24,3.12-4.16,2.74c-16.85-3.45-33.66-2.76-49.97,2.05
				c-21.4,6.32-35.44,27.12-33.4,49.46l1.48,16.2c0.18,1.94-1.25,3.65-3.19,3.83C1808.76,728.19,1808.65,728.19,1808.55,728.19z"/>
			
				<linearGradient id="SVGID_00000062881925599954921830000000823043055928946079_" gradientUnits="userSpaceOnUse" x1="2149.8167" y1="513.2197" x2="1557.6757" y2="1292.1675">
				<stop  offset="0" style="stop-color:#2B3582"/>
				<stop  offset="1" style="stop-color:#150E42"/>
			</linearGradient>
			<path style="fill:url(#SVGID_00000062881925599954921830000000823043055928946079_);" d="M1598.43,912.95v-67.36
				c0-23.25,19.27-41.88,42.51-41.08l464.43,15.91c20.61,0.71,37.3,16.97,38.54,37.56l3.88,64.72L1598.43,912.95z"/>
			<path class="st7" d="M1771.61,829.89h-19.97c-1.95,0-3.52-1.58-3.52-3.52c0-1.95,1.58-3.52,3.52-3.52h19.97
				c1.95,0,3.52,1.58,3.52,3.52C1775.13,828.31,1773.55,829.89,1771.61,829.89z"/>
			<path class="st7" d="M1623.57,891.8c-1.95,0-3.52-1.58-3.52-3.52v-27.25c0-21.06,17.13-38.18,38.18-38.18h73.43
				c1.95,0,3.52,1.58,3.52,3.52c0,1.95-1.58,3.52-3.52,3.52h-73.43c-17.17,0-31.13,13.97-31.13,31.13v27.25
				C1627.09,890.22,1625.52,891.8,1623.57,891.8z"/>
			
				<linearGradient id="SVGID_00000036214870487796860110000010393719399296482199_" gradientUnits="userSpaceOnUse" x1="1984.7383" y1="1416.9635" x2="2502.2075" y2="678.2072">
				<stop  offset="0" style="stop-color:#FF928E"/>
				<stop  offset="1" style="stop-color:#FE7062"/>
			</linearGradient>
			<path style="fill:url(#SVGID_00000036214870487796860110000010393719399296482199_);" d="M2270.74,1352.95l-109.33-89.15
				l-109.33,89.15c8.72-83.85,12.78-177.41,8.17-278.93c-1.47-32.33-3.74-63.65-6.65-93.89c-0.37-3.89,0.91-7.75,3.54-10.64
				s6.35-4.53,10.25-4.53c63.41,0,126.83,0,190.24,0c7.36,0,13.43,5.76,13.82,13.1c2.43,46.45,4.01,94.51,4.53,144.1
				C2276.85,1203.06,2274.83,1280.12,2270.74,1352.95z"/>
			
				<linearGradient id="SVGID_00000103254251198661234330000003617740075702845090_" gradientUnits="userSpaceOnUse" x1="2075.1968" y1="560.867" x2="1666.3359" y2="1311.6185">
				<stop  offset="0" style="stop-color:#4F52FF"/>
				<stop  offset="1" style="stop-color:#4042E2"/>
			</linearGradient>
			<path style="fill:url(#SVGID_00000103254251198661234330000003617740075702845090_);" d="M1409.2,929.96
				c1.12-23.33,20.36-41.66,43.71-41.66l812.14-0.02c29.2,0,54.17,21.01,59.15,49.79l0.69,3.97c5.46,31.52-18.81,60.34-50.8,60.34
				h-833.21c-19.14,0-34.4-16.01-33.48-35.13L1409.2,929.96z"/>
		</g>
		<g>
			
				<linearGradient id="SVGID_00000094577840097546868050000018229341259327453331_" gradientUnits="userSpaceOnUse" x1="-883.3219" y1="3141.3533" x2="-700.6191" y2="3141.3533" gradientTransform="matrix(-1 0 0 1 2012.3792 0)">
				<stop  offset="0" style="stop-color:#090056"/>
				<stop  offset="1" style="stop-color:#020039"/>
			</linearGradient>
			<path style="fill:url(#SVGID_00000094577840097546868050000018229341259327453331_);" d="M2827.01,3178.19
				c-42.54,1.96-83.73,0.73-111.22-0.69c25.03-17.82,82.71-56.59,130.97-72.02l33.13-1.98c0,0,11.23,17.07,15.23,56.14
				C2889.63,3166.49,2873.59,3176.05,2827.01,3178.19z"/>
			
				<linearGradient id="SVGID_00000150101794988795917850000006833675297334200453_" gradientUnits="userSpaceOnUse" x1="2574.626" y1="2908.8962" x2="2955.2712" y2="3345.6731">
				<stop  offset="0" style="stop-color:#090056"/>
				<stop  offset="1" style="stop-color:#020039"/>
			</linearGradient>
			<path style="fill:url(#SVGID_00000150101794988795917850000006833675297334200453_);" d="M2715.45,3177.75
				c0.11-0.08,0.23-0.16,0.34-0.24c27.49,1.41,68.68,2.64,111.22,0.69c46.57-2.14,62.62-11.7,68.11-18.55
				c0.18,1.8,0.37,3.59,0.53,5.48c0.69,8.57-5.68,16.1-14.25,16.75c-34.84,2.63-121.23,8.6-162.89,6.41
				C2713.01,3188,2710.97,3180.94,2715.45,3177.75z"/>
			
				<linearGradient id="SVGID_00000085249685597296089100000010232909574601362349_" gradientUnits="userSpaceOnUse" x1="-1204.2695" y1="3141.8091" x2="-1118.7212" y2="3141.8091" gradientTransform="matrix(-1 0 0 1 2012.3792 0)">
				<stop  offset="0" style="stop-color:#090056"/>
				<stop  offset="1" style="stop-color:#020039"/>
			</linearGradient>
			<path style="fill:url(#SVGID_00000085249685597296089100000010232909574601362349_);" d="M3131.3,3166.8
				c3.12-19.97,8.11-48.85,11.97-56.23c6.06-11.58,26.79,0,26.79,0s14.55,6.79,21.25,18.1c4.27,7.21,16.08,27.73,24.08,41.65
				c0.92,1.6,1.3,3.31,1.26,4.96l-83.01,2.9C3131.61,3174.93,3130.65,3170.96,3131.3,3166.8z"/>
			
				<linearGradient id="SVGID_00000142157511258129090860000016036769691229449139_" gradientUnits="userSpaceOnUse" x1="2783.1804" y1="2727.1406" x2="3163.825" y2="3163.917">
				<stop  offset="0" style="stop-color:#090056"/>
				<stop  offset="1" style="stop-color:#020039"/>
			</linearGradient>
			<path style="fill:url(#SVGID_00000142157511258129090860000016036769691229449139_);" d="M3216.64,3175.28
				c-0.14,4.74-3.9,9.04-9.2,9.19l-59.14,1.63c-6.25,0.17-11.66-3.07-14.67-7.91L3216.64,3175.28z"/>
			
				<linearGradient id="SVGID_00000141428014272455107580000007471699467357175172_" gradientUnits="userSpaceOnUse" x1="-1168.088" y1="3082.833" x2="-1112.5802" y2="3082.833" gradientTransform="matrix(-1 0 0 1 2012.3792 0)">
				<stop  offset="0" style="stop-color:#FEBBBA"/>
				<stop  offset="1" style="stop-color:#FF928E"/>
			</linearGradient>
			<path style="fill:url(#SVGID_00000141428014272455107580000007471699467357175172_);" d="M3124.96,3044.19
				c0.72,2.4,11.44,54.39,16.14,77.22c1.3,6.31,6.98,10.74,13.41,10.41c3.51-0.18,7.6-0.49,11.88-1.05
				c7.6-0.98,13.39-7.33,13.69-14.99c0.76-19.99,1.14-58.37-6.2-73.24C3163.75,3022.02,3124.96,3044.19,3124.96,3044.19z"/>
			
				<linearGradient id="SVGID_00000004523927015875239250000007801664933396143023_" gradientUnits="userSpaceOnUse" x1="-874.0288" y1="3079.1995" x2="-827.7647" y2="3079.1995" gradientTransform="matrix(-1 0 0 1 2012.3792 0)">
				<stop  offset="0" style="stop-color:#FEBBBA"/>
				<stop  offset="1" style="stop-color:#FF928E"/>
			</linearGradient>
			<path style="fill:url(#SVGID_00000004523927015875239250000007801664933396143023_);" d="M2886.41,3059.08
				c-4.6-0.15,1.84,23.75-5.12,47.24c-1.57,5.3-5.53,9.46-11.06,9.53c-3.58,0.05-7.82-0.02-12.13-0.37
				c-6.48-0.52-11.69-5.55-12.29-12.02l-5.66-60.93L2886.41,3059.08z"/>
			
				<linearGradient id="SVGID_00000088102445238079869940000016657180251302759860_" gradientUnits="userSpaceOnUse" x1="4069.3843" y1="3314.6807" x2="3019.5383" y2="2785.811">
				<stop  offset="0" style="stop-color:#090056"/>
				<stop  offset="1" style="stop-color:#020039"/>
			</linearGradient>
			<path style="fill:url(#SVGID_00000088102445238079869940000016657180251302759860_);" d="M2757.73,2411.42
				c2.05,10,74.53,432.73,78.93,651.48c0.07,3.67,2.77,6.74,6.41,7.25c9.2,1.28,27.12,2.93,44.49-0.29c2.38-0.44,4.17-2.4,4.32-4.82
				c2.53-40.76,22.9-385.42-2.04-547.67c0,0,206.07,433.71,237.31,553.3c0.76,2.91,3.43,4.87,6.43,4.71
				c8.83-0.47,27.18-2.05,41.75-7.42c5.22-1.92,8.2-7.41,6.88-12.82c-17.45-71.57-139.76-564.67-222.8-673.31L2757.73,2411.42z"/>
			
				<linearGradient id="SVGID_00000173153166783437880540000009663997390980073360_" gradientUnits="userSpaceOnUse" x1="-758.9858" y1="2367.9412" x2="-948.3364" y2="2612.7441" gradientTransform="matrix(-1 0 0 1 2012.3792 0)">
				<stop  offset="0" style="stop-color:#CB236D"/>
				<stop  offset="1" style="stop-color:#4C246D"/>
			</linearGradient>
			<path style="fill:url(#SVGID_00000173153166783437880540000009663997390980073360_);" d="M2889.83,2520.08
				c0.68,0,1.36-0.26,1.89-0.77c1.07-1.04,1.09-2.76,0.04-3.82l-27.59-28.22c-1.04-1.07-2.76-1.09-3.83-0.04
				c-1.07,1.04-1.09,2.76-0.04,3.83l27.59,28.22C2888.43,2519.81,2889.13,2520.08,2889.83,2520.08z"/>
			
				<linearGradient id="SVGID_00000183928231426545511200000011444416849533513626_" gradientUnits="userSpaceOnUse" x1="2591.1174" y1="1581.9288" x2="3262.2683" y2="2842.2373">
				<stop  offset="0" style="stop-color:#4F52FF"/>
				<stop  offset="1" style="stop-color:#4042E2"/>
			</linearGradient>
			<path style="fill:url(#SVGID_00000183928231426545511200000011444416849533513626_);" d="M2688.03,1865.89
				c61.65-9.27,182.65-22.55,261.58,0.61l-8.56,243.94l-285.95-30.83l-24.26-34.48C2630.84,2045.14,2642.08,1872.8,2688.03,1865.89z
				"/>
			
				<linearGradient id="SVGID_00000104694536927002908250000009870750263809998978_" gradientUnits="userSpaceOnUse" x1="-534.7866" y1="1799.8367" x2="-513.1479" y2="1666.3972" gradientTransform="matrix(-0.9943 -0.107 -0.107 0.9943 2450.6707 67.6665)">
				<stop  offset="0" style="stop-color:#FEBBBA"/>
				<stop  offset="1" style="stop-color:#FF928E"/>
			</linearGradient>
			<path style="fill:url(#SVGID_00000104694536927002908250000009870750263809998978_);" d="M2830.45,1735.29
				c0,0,5.71,97.03,4.63,127.21c0,0-79.43,13-98.34-0.59l14.94-115.02L2830.45,1735.29z"/>
			<g>
				
					<linearGradient id="SVGID_00000016776730590228354650000003897596741300659381_" gradientUnits="userSpaceOnUse" x1="-463.4286" y1="1581.1481" x2="-610.8514" y2="1693.9491" gradientTransform="matrix(-0.9943 -0.107 -0.107 0.9943 2450.6707 67.6665)">
					<stop  offset="0" style="stop-color:#FEBBBA"/>
					<stop  offset="1" style="stop-color:#FF928E"/>
				</linearGradient>
				<path style="fill:url(#SVGID_00000016776730590228354650000003897596741300659381_);" d="M2753.23,1638.12
					c0,0-31.98,56.14-37.03,86.87c-5.05,30.73-13.87,50.07,21.2,60.15c35.08,10.07,67.11-4.49,86.74-33.53
					c0,0,30.67-44.7,27.03-64.75C2847.53,1666.8,2753.23,1638.12,2753.23,1638.12z"/>
				
					<linearGradient id="SVGID_00000056387428905554087540000007074109128244725942_" gradientUnits="userSpaceOnUse" x1="2705.333" y1="1645.1036" x2="3073.6987" y2="1745.0884">
					<stop  offset="0" style="stop-color:#090056"/>
					<stop  offset="1" style="stop-color:#020039"/>
				</linearGradient>
				<path style="fill:url(#SVGID_00000056387428905554087540000007074109128244725942_);" d="M2814.31,1728.15l-4.52-0.49
					c0,0,22.73-36.19,7.09-44.66c-15.64-8.47-79.02-28.66-90.53-53.17c-11.09-23.62,4.01-50.96,22.86-57.04
					c1.19-0.38,2.48,0.3,2.94,1.46l1.19,2.98c0.81,2.04,3.7,2.06,4.53,0.02l0,0c0.79-1.93,3.52-2.07,4.42-0.2
					c3.54,7.34,13.93,19.77,44.39,28.85c43.23,12.89,70.47,33.88,67.9,64.44c-0.16,1.94,1.79,3.22,3.54,2.4
					c3.47-1.63,8.78-2,15.11,4.6c11.01,11.49,3.21,37.37-25.67,56.24c-1.37,0.9-1.57,2.87-0.3,3.9c4.48,3.65,10.85,11.88-8.81,19.82
					c-20.11,8.12-31.25,5.8-35.38,4.25c-1.11-0.42-1.77-1.54-1.57-2.71l4.58-26.83c0.24-1.39-0.75-2.69-2.15-2.84L2814.31,1728.15z"
					/>
				
					<linearGradient id="SVGID_00000175291342798934257120000012715270601685916804_" gradientUnits="userSpaceOnUse" x1="-481.7154" y1="1557.2512" x2="-629.1381" y2="1670.052" gradientTransform="matrix(-0.9943 -0.107 -0.107 0.9943 2450.6707 67.6665)">
					<stop  offset="0" style="stop-color:#FEBBBA"/>
					<stop  offset="1" style="stop-color:#FF928E"/>
				</linearGradient>
				<path style="fill:url(#SVGID_00000175291342798934257120000012715270601685916804_);" d="M2812.59,1733.68
					c0,0,13.83-36.57,29.57-24.21c15.73,12.37-13.29,41.22-27.01,41.16L2812.59,1733.68z"/>
			</g>
			<g>
				
					<linearGradient id="SVGID_00000074413463108135687600000010885653962754941093_" gradientUnits="userSpaceOnUse" x1="4241.9395" y1="4640.3506" x2="3290.0957" y2="5889.9507" gradientTransform="matrix(0.1855 -0.9827 0.9827 0.1855 -2853.6924 5014.2505)">
					<stop  offset="0" style="stop-color:#FF928E"/>
					<stop  offset="1" style="stop-color:#FE7062"/>
				</linearGradient>
				<path style="fill:url(#SVGID_00000074413463108135687600000010885653962754941093_);" d="M2470.08,2056.72l7.58-29.81
					c3.75-14.74,18.42-23.94,33.33-20.9l714.14,145.7c16.26,3.32,26.71,19.24,23.29,35.48l-43.54,206.38L2470.08,2056.72z"/>
				<path class="st7" d="M2402.37,2418.74l53.71-386.04c1.11-7.99,8.8-13.32,16.67-11.58l733.48,162.88
					c15.65,3.48,25.47,19.04,21.87,34.67l-61.56,266.84L2402.37,2418.74z"/>
				<path class="st7" d="M2421.74,2401.25l20.57-344.57c0.53-8.86,8.81-15.17,17.49-13.33L3201,2200.19
					c10.45,2.21,17.34,12.22,15.66,22.77l-39.48,248.9L2421.74,2401.25z"/>
				
					<linearGradient id="SVGID_00000103947343804101115630000003850236216365373879_" gradientUnits="userSpaceOnUse" x1="2431.7048" y1="1875.9738" x2="3068.4524" y2="2728.4773">
					<stop  offset="0" style="stop-color:#FF928E"/>
					<stop  offset="1" style="stop-color:#FE7062"/>
				</linearGradient>
				<path style="fill:url(#SVGID_00000103947343804101115630000003850236216365373879_);" d="M2368.05,2482.7l46.66-373.22
					c2.33-18.6,19.86-31.38,38.28-27.91l760.03,143.45c15.41,2.91,25.55,17.76,22.64,33.17l-64.19,340.1
					c-3.03,16.05-18.08,26.92-34.27,24.76l-736.79-98.4C2379.93,2521.93,2365.49,2503.2,2368.05,2482.7z"/>
				
					<linearGradient id="SVGID_00000152952939414203744850000011379895325848756668_" gradientUnits="userSpaceOnUse" x1="2431.7332" y1="1875.9535" x2="3068.4812" y2="2728.4578">
					<stop  offset="0" style="stop-color:#FF928E"/>
					<stop  offset="1" style="stop-color:#FE7062"/>
				</linearGradient>
				<path style="fill:url(#SVGID_00000152952939414203744850000011379895325848756668_);" d="M2720.43,2132.05L2720.43,2132.05
					c-2.99,15.83-18.25,26.25-34.08,23.26l-169.46-31.98c-15.83-2.99-26.25-18.25-23.26-34.08l0,0
					c2.99-15.83,18.25-26.25,34.08-23.26l169.46,31.98C2713.01,2100.96,2723.42,2116.22,2720.43,2132.05z"/>
			</g>
			
				<linearGradient id="SVGID_00000036943426452237537650000005405867193979875983_" gradientUnits="userSpaceOnUse" x1="2707.6174" y1="1519.8884" x2="3378.7693" y2="2780.199">
				<stop  offset="0" style="stop-color:#4F52FF"/>
				<stop  offset="1" style="stop-color:#4042E2"/>
			</linearGradient>
			<path style="fill:url(#SVGID_00000036943426452237537650000005405867193979875983_);" d="M2869.85,1972.87l79.76-106.37
				c0,0,128.17,136.15,152.75,308.96l-79.95,38.99C2997.6,2156.26,2951.93,2077.43,2869.85,1972.87z"/>
			
				<linearGradient id="SVGID_00000119084167772338189110000000580809316928264595_" gradientUnits="userSpaceOnUse" x1="2973.6443" y1="2416.9805" x2="3195.9802" y2="2097.2908">
				<stop  offset="0" style="stop-color:#FEBBBA"/>
				<stop  offset="1" style="stop-color:#FF928E"/>
			</linearGradient>
			<path style="fill:url(#SVGID_00000119084167772338189110000000580809316928264595_);" d="M2984.13,2452.03
				c9.45-15.81,27.9-45.9,36.87-55.29c0,0-8.2-5.18-23.94-3.25c-15.73,1.93-28.06-5.74-27.59-14.31l75.08-23.03
				c3.37-7.05,18.23-47.04-22.14-141.7l79.95-38.99c9.21,64.7,3.93,134.52-28.08,204.28c0,0-24.83,77.11-53.35,94.22
				C2946.49,2518.61,2980.5,2458.1,2984.13,2452.03z"/>
		</g>
		<g>
			<path class="st7" d="M1074.96,1451.5l-15.75,19.95l-0.06,0.07c-1.15,1.45-3.26,1.7-4.71,0.55c-1.45-1.15-1.7-3.26-0.55-4.71
				c0.01-0.02,0.04-0.05,0.05-0.06l16.34-19.71c1.07-1.3,2.99-1.48,4.29-0.4c1.27,1.06,1.47,2.94,0.45,4.23L1074.96,1451.5z"/>
			<path class="st7" d="M1021.71,1524.13l-26.7,42.6l-0.13,0.2c-1.35,2.16-4.2,2.81-6.36,1.46c-2.16-1.35-2.81-4.2-1.46-6.36
				c0.01-0.02,0.04-0.06,0.05-0.08l27.77-42.46c1.25-1.91,3.8-2.44,5.71-1.19c1.88,1.23,2.43,3.74,1.24,5.64L1021.71,1524.13z"/>
			<path class="st7" d="M963.99,1623.4l-21.42,45.42l-0.13,0.27c-1.33,2.82-4.69,4.02-7.51,2.7c-2.82-1.33-4.02-4.69-2.7-7.51
				c0.01-0.02,0.03-0.07,0.04-0.09l22.47-45.56c1.27-2.57,4.38-3.63,6.95-2.36c2.54,1.25,3.6,4.31,2.4,6.86L963.99,1623.4z"/>
			<path class="st7" d="M918.72,1728.76l-15.55,47.68l-0.12,0.36c-1.14,3.5-4.9,5.41-8.4,4.27c-3.5-1.14-5.41-4.9-4.27-8.4
				c0.01-0.03,0.03-0.09,0.04-0.11l16.63-48.08c1.12-3.24,4.66-4.96,7.9-3.84c3.21,1.11,4.92,4.58,3.88,7.79L918.72,1728.76z"/>
			<path class="st7" d="M887.16,1838.82l-9.27,49.21l-0.08,0.43c-0.76,4.03-4.64,6.67-8.66,5.92c-4.03-0.76-6.67-4.64-5.91-8.66
				l0.01-0.08l9.98-49.95c0.77-3.87,4.54-6.38,8.4-5.6c3.84,0.77,6.34,4.48,5.62,8.32L887.16,1838.82z"/>
			<path class="st7" d="M870.31,1951.93l-2.45,49.96l-0.03,0.49c-0.22,4.44-3.99,7.86-8.43,7.64c-4.44-0.22-7.86-3.99-7.64-8.43
				l0.01-0.09l3.05-50.89c0.26-4.28,3.94-7.54,8.22-7.29c4.25,0.25,7.5,3.88,7.3,8.13L870.31,1951.93z"/>
			<path class="st7" d="M869.14,2066.18l4.43,49.8l0.05,0.52c0.42,4.77-3.1,8.98-7.87,9.41c-4.77,0.42-8.98-3.1-9.41-7.87
				l-0.01-0.09l-3.97-50.87c-0.36-4.62,3.09-8.66,7.71-9.02c4.59-0.36,8.61,3.04,9.01,7.62L869.14,2066.18z"/>
			<path class="st7" d="M883.65,2179.44l11.19,48.7l0.12,0.54c1.15,5-1.97,9.99-6.98,11.14c-5.01,1.15-9.99-1.97-11.15-6.98
				l-0.02-0.1l-10.9-49.88c-1.06-4.87,2.02-9.67,6.89-10.74c4.83-1.06,9.61,1.98,10.71,6.79L883.65,2179.44z"/>
			<path class="st7" d="M913.42,2289.61l17.46,46.8l0.2,0.53c1.89,5.06-0.68,10.69-5.74,12.57c-5.05,1.89-10.68-0.68-12.57-5.74
				l-0.02-0.05l-17.61-47.94c-1.84-5,0.73-10.54,5.73-12.38c5-1.84,10.54,0.73,12.38,5.73L913.42,2289.61z"/>
			<path class="st7" d="M957.17,2395l23.34,44.17l0.26,0.49c2.57,4.87,0.71,10.91-4.17,13.49c-4.87,2.58-10.91,0.71-13.48-4.16
				l-0.02-0.03l-23.69-45.24c-2.53-4.84-0.67-10.81,4.17-13.35c4.84-2.53,10.82-0.67,13.35,4.17L957.17,2395z"/>
			<path class="st7" d="M1014.04,2493.94l28.71,40.89l0.32,0.46c3.23,4.6,2.12,10.96-2.48,14.19c-4.61,3.23-10.96,2.12-14.2-2.48
				l-0.02-0.03l-29.19-41.9c-3.19-4.58-2.06-10.87,2.51-14.06c4.57-3.19,10.87-2.06,14.06,2.51L1014.04,2493.94z"/>
			<path class="st7" d="M1082.85,2584.97l33.58,36.96l0.39,0.43c3.86,4.25,3.55,10.82-0.7,14.68c-4.25,3.86-10.82,3.55-14.68-0.7
				l-0.03-0.03l-34.22-37.93c-3.81-4.22-3.47-10.74,0.75-14.55c4.23-3.81,10.74-3.48,14.55,0.75L1082.85,2584.97z"/>
			<path class="st7" d="M1162.54,2666.55l38.08,32.23l0.49,0.41c4.47,3.78,5.02,10.47,1.24,14.94c-3.78,4.47-10.47,5.03-14.94,1.24
				l-0.03-0.02l-38.92-33.18c-4.41-3.77-4.95-10.4-1.18-14.82c3.77-4.42,10.4-4.95,14.82-1.18L1162.54,2666.55z"/>
			<path class="st7" d="M1252.3,2736.6l21.11,13.16l10.55,6.58c3.54,2.16,6.98,4.48,10.61,6.48c5.23,2.89,7.13,9.46,4.24,14.69
				c-2.89,5.23-9.46,7.13-14.69,4.24l-0.04-0.02l-0.29-0.16c-3.74-2.08-7.28-4.48-10.92-6.72l-10.85-6.82l-21.69-13.65
				c-5.01-3.15-6.52-9.77-3.37-14.78c3.15-5.01,9.76-6.52,14.78-3.37L1252.3,2736.6z"/>
			<path class="st7" d="M1351.46,2791.92c15.07,6.89,30.39,13.28,45.91,19.12c5.62,2.12,8.46,8.39,6.35,14.01
				c-2.12,5.62-8.37,8.47-13.99,6.36c-15.99-5.99-31.8-12.5-47.35-19.6c-5.49-2.51-7.91-8.99-5.4-14.48
				C1339.48,2791.83,1345.97,2789.42,1351.46,2791.92L1351.46,2791.92z"/>
			<path class="st7" d="M1458.17,2831.01l48.35,11.99l0.65,0.16c5.75,1.43,9.26,7.24,7.83,12.99c-1.42,5.75-7.22,9.26-12.96,7.84
				l-49.71-12.19c-5.79-1.42-9.33-7.26-7.91-13.05c1.42-5.79,7.26-9.33,13.05-7.91l0.03,0.01L1458.17,2831.01z"/>
			<path class="st7" d="M1569.66,2854.01l49.62,5.28l0.6,0.06c5.8,0.62,10,5.82,9.39,11.62s-5.78,10.01-11.59,9.39l-50.84-5.24
				c-5.85-0.6-10.1-5.83-9.5-11.68c0.6-5.85,5.83-10.1,11.68-9.5l0.04,0L1569.66,2854.01z"/>
			<path class="st7" d="M1683.41,2862.14l49.97-0.81l0.52-0.01c5.59-0.09,10.2,4.37,10.29,9.96c0.09,5.57-4.33,10.15-9.88,10.29
				l-51.02,1.21c-5.7,0.14-10.42-4.37-10.56-10.07c-0.14-5.7,4.37-10.43,10.07-10.56l0.08,0L1683.41,2862.14z"/>
			<path class="st7" d="M1797.51,2856.59l49.64-6.43l0.45-0.06c5.3-0.69,10.16,3.05,10.85,8.36c0.68,5.28-3.02,10.11-8.28,10.84
				l-50.49,6.95c-5.41,0.74-10.39-3.04-11.14-8.44c-0.74-5.41,3.04-10.4,8.44-11.14l0.08-0.01L1797.51,2856.59z"/>
			<path class="st7" d="M1910.51,2838.75l48.8-11.37l0.37-0.09c4.75-1.11,9.5,1.85,10.61,6.6c1.1,4.71-1.8,9.41-6.47,10.58
				l-49.39,12.28c-4.94,1.23-9.93-1.78-11.16-6.71c-1.23-4.93,1.78-9.93,6.71-11.16c0.03-0.01,0.06-0.01,0.08-0.02L1910.51,2838.75z
				"/>
			<path class="st7" d="M2021.31,2809.71l47.55-16.02l0.31-0.1c4.18-1.41,8.71,0.84,10.12,5.02c1.39,4.14-0.8,8.63-4.91,10.08
				l-47.93,16.94c-4.35,1.54-9.13-0.74-10.67-5.1c-1.54-4.35,0.74-9.13,5.1-10.67c0.02-0.01,0.05-0.02,0.07-0.03L2021.31,2809.71z"
				/>
			<path class="st7" d="M2129.02,2770.32l45.97-20.25l0.25-0.11c3.6-1.59,7.82,0.05,9.41,3.65c1.57,3.57-0.02,7.74-3.56,9.36
				l-46.17,21.16c-3.77,1.73-8.23,0.07-9.96-3.7c-1.73-3.77-0.07-8.23,3.7-9.96c0.02-0.01,0.04-0.02,0.06-0.03L2129.02,2770.32z"/>
			<path class="st7" d="M2233.04,2721.68l44.24-23.91l0.19-0.1c2.84-1.53,6.38-0.48,7.91,2.36c1.51,2.79,0.5,6.28-2.24,7.85
				l-44.04,25.19c-3.09,1.77-7.03,0.7-8.8-2.4c-1.77-3.09-0.7-7.03,2.4-8.8c0.03-0.02,0.07-0.04,0.11-0.06L2233.04,2721.68z"/>
			<path class="st7" d="M2332.88,2664.69l42.2-27.46l0.13-0.08c2.06-1.34,4.82-0.76,6.16,1.3c1.32,2.03,0.77,4.74-1.21,6.1
				l-41.8,28.66c-2.3,1.58-5.45,0.99-7.04-1.31c-1.58-2.3-0.99-5.45,1.31-7.03c0.03-0.02,0.05-0.04,0.08-0.05L2332.88,2664.69z"/>
			<path class="st7" d="M2428.21,2599.83l20.39-15.27l0.04-0.03c1.35-1.01,3.26-0.74,4.26,0.61c0.99,1.32,0.74,3.18-0.53,4.21
				l-19.98,15.99c-1.49,1.19-3.67,0.95-4.87-0.54c-1.19-1.49-0.95-3.67,0.54-4.87c0.02-0.02,0.05-0.04,0.08-0.06L2428.21,2599.83z"
				/>
		</g>
	</g>
</g>
</svg>
