<svg width="500" height="500" viewBox="0 0 500 500" fill="none" xmlns="http://www.w3.org/2000/svg">
<g clip-path="url(#clip0_0_1)">
<path d="M501 228.52H0.26001V238.85H501V228.52Z" fill="#7BBBD6"/>
<path d="M501 91.46H0.26001V101.79H501V91.46Z" fill="#7BBBD6"/>
<path d="M131.56 0.630005H120.77V353.22H131.56V0.630005Z" fill="#7BBBD6"/>
<path d="M370.03 0.630005H359.24V353.22H370.03V0.630005Z" fill="#7BBBD6"/>
<path d="M501 352.32H0.26001V381.1H501V352.32Z" fill="#344D6B"/>
<path d="M500.99 409.89V381.1H370.03H359.24H131.57H120.78H0.26001V409.88H120.78V500H131.57V409.89H359.24V425.6C358.38 425.6 357.52 425.6 356.65 425.6C303.99 425.6 261.3 428.3 261.3 431.62C261.3 434.95 303.99 437.64 356.65 437.64C357.52 437.64 358.38 437.64 359.24 437.64V500H370.03V437.58C416.35 437.17 452 434.66 452 431.62C452 428.58 416.36 426.07 370.03 425.66V409.89H500.99Z" fill="#7BBBD6"/>
<path d="M227.42 58.71H40.53V217.38H227.42V58.71Z" fill="#646069"/>
<path d="M129.58 92.08H62.15C61.05 92.08 60.15 91.18 60.15 90.08V85.3C60.15 84.2 61.05 83.3 62.15 83.3H129.58C130.68 83.3 131.58 84.2 131.58 85.3V90.08C131.58 91.19 130.68 92.08 129.58 92.08Z" fill="#FFFCFD"/>
<path d="M166.91 92.08H140.77C139.67 92.08 138.77 91.18 138.77 90.08V85.3C138.77 84.2 139.67 83.3 140.77 83.3H166.91C168.01 83.3 168.91 84.2 168.91 85.3V90.08C168.91 91.19 168.02 92.08 166.91 92.08Z" fill="#FFFCFD"/>
<path d="M204.25 92.08H178.11C177.01 92.08 176.11 91.18 176.11 90.08V85.3C176.11 84.2 177.01 83.3 178.11 83.3H204.25C205.35 83.3 206.25 84.2 206.25 85.3V90.08C206.25 91.19 205.35 92.08 204.25 92.08Z" fill="#FFFCFD"/>
<path d="M129.58 109.6H62.15C61.05 109.6 60.15 108.7 60.15 107.6V102.82C60.15 101.72 61.05 100.82 62.15 100.82H129.58C130.68 100.82 131.58 101.72 131.58 102.82V107.6C131.58 108.7 130.68 109.6 129.58 109.6Z" fill="#FFFCFD"/>
<path d="M166.91 109.6H140.77C139.67 109.6 138.77 108.7 138.77 107.6V102.82C138.77 101.72 139.67 100.82 140.77 100.82H166.91C168.01 100.82 168.91 101.72 168.91 102.82V107.6C168.91 108.7 168.02 109.6 166.91 109.6Z" fill="#FFFCFD"/>
<path d="M204.25 109.6H178.11C177.01 109.6 176.11 108.7 176.11 107.6V102.82C176.11 101.72 177.01 100.82 178.11 100.82H204.25C205.35 100.82 206.25 101.72 206.25 102.82V107.6C206.25 108.7 205.35 109.6 204.25 109.6Z" fill="#F48582"/>
<path d="M129.58 127.11H62.15C61.05 127.11 60.15 126.21 60.15 125.11V120.33C60.15 119.23 61.05 118.33 62.15 118.33H129.58C130.68 118.33 131.58 119.23 131.58 120.33V125.11C131.58 126.22 130.68 127.11 129.58 127.11Z" fill="#FFFCFD"/>
<path d="M166.91 127.11H140.77C139.67 127.11 138.77 126.21 138.77 125.11V120.33C138.77 119.23 139.67 118.33 140.77 118.33H166.91C168.01 118.33 168.91 119.23 168.91 120.33V125.11C168.91 126.22 168.02 127.11 166.91 127.11Z" fill="#FFFCFD"/>
<path d="M204.25 127.11H178.11C177.01 127.11 176.11 126.21 176.11 125.11V120.33C176.11 119.23 177.01 118.33 178.11 118.33H204.25C205.35 118.33 206.25 119.23 206.25 120.33V125.11C206.25 126.22 205.35 127.11 204.25 127.11Z" fill="#FFFCFD"/>
<path d="M129.58 144.63H62.15C61.05 144.63 60.15 143.73 60.15 142.63V137.85C60.15 136.75 61.05 135.85 62.15 135.85H129.58C130.68 135.85 131.58 136.75 131.58 137.85V142.63C131.58 143.73 130.68 144.63 129.58 144.63Z" fill="#FFFCFD"/>
<path d="M166.91 144.63H140.77C139.67 144.63 138.77 143.73 138.77 142.63V137.85C138.77 136.75 139.67 135.85 140.77 135.85H166.91C168.01 135.85 168.91 136.75 168.91 137.85V142.63C168.91 143.73 168.02 144.63 166.91 144.63Z" fill="#FFFCFD"/>
<path d="M204.25 144.63H178.11C177.01 144.63 176.11 143.73 176.11 142.63V137.85C176.11 136.75 177.01 135.85 178.11 135.85H204.25C205.35 135.85 206.25 136.75 206.25 137.85V142.63C206.25 143.73 205.35 144.63 204.25 144.63Z" fill="#FFFCFD"/>
<path d="M129.58 162.14H62.15C61.05 162.14 60.15 161.24 60.15 160.14V155.36C60.15 154.26 61.05 153.36 62.15 153.36H129.58C130.68 153.36 131.58 154.26 131.58 155.36V160.14C131.58 161.25 130.68 162.14 129.58 162.14Z" fill="#FFFCFD"/>
<path d="M166.91 162.14H140.77C139.67 162.14 138.77 161.24 138.77 160.14V155.36C138.77 154.26 139.67 153.36 140.77 153.36H166.91C168.01 153.36 168.91 154.26 168.91 155.36V160.14C168.91 161.25 168.02 162.14 166.91 162.14Z" fill="#FFFCFD"/>
<path d="M204.25 162.14H178.11C177.01 162.14 176.11 161.24 176.11 160.14V155.36C176.11 154.26 177.01 153.36 178.11 153.36H204.25C205.35 153.36 206.25 154.26 206.25 155.36V160.14C206.25 161.25 205.35 162.14 204.25 162.14Z" fill="#9CD2A7"/>
<path d="M129.58 179.66H62.15C61.05 179.66 60.15 178.76 60.15 177.66V172.88C60.15 171.78 61.05 170.88 62.15 170.88H129.58C130.68 170.88 131.58 171.78 131.58 172.88V177.66C131.58 178.76 130.68 179.66 129.58 179.66Z" fill="#FFFCFD"/>
<path d="M166.91 179.66H140.77C139.67 179.66 138.77 178.76 138.77 177.66V172.88C138.77 171.78 139.67 170.88 140.77 170.88H166.91C168.01 170.88 168.91 171.78 168.91 172.88V177.66C168.91 178.76 168.02 179.66 166.91 179.66Z" fill="#FFFCFD"/>
<path d="M204.25 179.66H178.11C177.01 179.66 176.11 178.76 176.11 177.66V172.88C176.11 171.78 177.01 170.88 178.11 170.88H204.25C205.35 170.88 206.25 171.78 206.25 172.88V177.66C206.25 178.76 205.35 179.66 204.25 179.66Z" fill="#9CD2A7"/>
<path d="M129.58 197.17H62.15C61.05 197.17 60.15 196.27 60.15 195.17V190.39C60.15 189.29 61.05 188.39 62.15 188.39H129.58C130.68 188.39 131.58 189.29 131.58 190.39V195.17C131.58 196.28 130.68 197.17 129.58 197.17Z" fill="#FFFCFD"/>
<path d="M166.91 197.17H140.77C139.67 197.17 138.77 196.27 138.77 195.17V190.39C138.77 189.29 139.67 188.39 140.77 188.39H166.91C168.01 188.39 168.91 189.29 168.91 190.39V195.17C168.91 196.28 168.02 197.17 166.91 197.17Z" fill="#FFFCFD"/>
<path d="M204.25 197.17H178.11C177.01 197.17 176.11 196.27 176.11 195.17V190.39C176.11 189.29 177.01 188.39 178.11 188.39H204.25C205.35 188.39 206.25 189.29 206.25 190.39V195.17C206.25 196.28 205.35 197.17 204.25 197.17Z" fill="#FFFCFD"/>
<path d="M227.42 33.54H40.53V58.72H227.42V33.54Z" fill="#01B8E4"/>
<path opacity="0.2" d="M227.42 33.54H40.53V40.79H227.42V33.54Z" fill="white"/>
<path opacity="0.2" d="M227.42 58.71H40.53V65.96H227.42V58.71Z" fill="white"/>
<path opacity="0.2" d="M227.42 210.13H40.53V217.38H227.42V210.13Z" fill="white"/>
<path d="M199.78 -15.06H193.81V33.53H199.78V-15.06Z" fill="#646069"/>
<path d="M74.49 -15.06H68.52V33.53H74.49V-15.06Z" fill="#646069"/>
<path d="M357.43 170.64C359.6 170.51 361.77 170.51 363.89 170.58C370.36 170.78 376.81 171.34 383.23 172.28C391.93 173.56 397.37 179.69 400.63 188.72C404.76 200.17 405.64 212.73 406.54 224.94C407.6 239.28 408.17 257.5 403.34 271.13C399.33 282.44 390.65 283.04 380.72 283.14C372.75 283.22 364.79 284.25 356.82 283.96C347.29 283.6 336.66 281.22 330.27 272.88C324.06 264.76 326.24 249.47 326.39 239.64C326.59 226.6 327.63 213.48 330.74 200.85C332.73 192.78 334.04 183.97 339.58 177.89C344.28 172.74 350.82 171.05 357.43 170.64Z" fill="#00894B"/>
<path d="M391.49 262.6C389.08 270.78 383.47 277.28 376.95 281.39C370.11 285.7 358.33 282.65 351.22 280.25C349.55 279.69 347.87 279.02 346.47 277.83C341.32 273.45 340.91 264.02 340.59 257.3C340.19 249.01 341.11 240.71 342.1 232.52C343.76 218.84 345.61 205.17 348.64 191.81C350.19 184.99 352.5 177.59 357.92 174.29C361.02 172.4 364.66 172.18 368.17 172.13C373.07 172.05 378.12 172.25 382.58 174.59C394.91 181.07 393.06 200.13 393.53 212.79C393.88 222.24 393.99 231.7 393.86 241.16C393.77 248.38 393.51 255.74 391.49 262.6Z" fill="#00A15E"/>
<path d="M341.89 181.23C335.05 189.29 329.24 198.12 322.62 206.35C316.15 214.39 304.98 232.75 293.35 226.12C280.83 218.99 268.1 209.18 258.42 198.51" stroke="#F6B3A2" stroke-width="10" stroke-miterlimit="10"/>
<path d="M335.53 208.73C337.34 206.38 339.15 204.02 340.97 201.67C345.92 195.25 350.52 188.8 345.1 181.22C335.46 167.75 322.85 186.78 317.24 193.98C314.22 197.86 308.18 205.61 308.18 205.61L326.61 220.32C326.6 220.31 332.56 212.59 335.53 208.73Z" fill="#85AB00"/>
<path d="M308.18 205.6L310.68 200.24L331.59 216.54L326.6 220.31L308.18 205.6Z" fill="#F9CC01"/>
<path d="M372.12 311.3C373.87 319.96 375.14 328.69 375.95 337.49C379.5 375.9 377.77 366.44 381.09 404.78" stroke="#F6B3A2" stroke-width="11" stroke-miterlimit="10"/>
<path d="M373.72 402.56L388.28 402.37L388.93 414.26L380.48 417.66L374.76 413.06L373.72 402.56Z" fill="white"/>
<path d="M396.98 426.47C396.99 425.1 396.68 423.7 396.2 422.45C395.33 420.18 393.96 417.79 392.25 416.05C392.16 415.95 392.06 415.86 391.96 415.77C390.94 414.81 389.96 414.08 388.74 413.37C388.8 414.32 388.59 414.81 387.67 415.03C385.61 412.3 381.61 411.24 378.47 412.61C378.07 412.78 377.69 412.99 377.36 413.27C376.76 413.79 376.4 414.52 376.14 415.26C375.53 414.94 374.97 414.53 374.48 414.05C374.6 414.17 372.51 417.34 372.32 417.68C371.64 418.85 371.02 420.06 370.51 421.31C369.51 423.77 369.32 426.56 370 429.12C370.1 429.48 370.31 429.85 370.52 430.16C371.27 431.33 372.52 432.11 373.8 432.64C376.6 433.79 379.69 433.96 382.72 434C385 434.02 387.33 433.96 389.57 433.49C391.46 433.09 393.42 432.44 394.93 431.19C396.4 429.95 396.97 428.24 396.98 426.47Z" fill="white"/>
<path d="M396.98 424.09C396.99 422.72 396.68 421.32 396.2 420.07C395.33 417.8 393.96 415.41 392.25 413.67C392.16 413.57 392.06 413.48 391.96 413.39C390.94 412.43 389.96 411.7 388.74 410.99C388.8 411.94 388.59 412.43 387.67 412.65C385.61 409.92 381.61 408.86 378.47 410.23C378.07 410.4 377.69 410.61 377.36 410.89C376.76 411.41 376.4 412.14 376.14 412.88C375.53 412.56 374.97 412.15 374.48 411.67C374.6 411.79 372.51 414.96 372.32 415.3C371.64 416.47 371.02 417.68 370.51 418.93C369.51 421.39 369.32 424.18 370 426.74C370.1 427.1 370.31 427.47 370.52 427.78C371.27 428.95 372.52 429.73 373.8 430.26C376.6 431.41 379.69 431.59 382.72 431.62C385 431.64 387.33 431.58 389.57 431.11C391.46 430.71 393.42 430.06 394.93 428.81C396.4 427.58 396.97 425.87 396.98 424.09Z" fill="#FF4631"/>
<path d="M377.43 416.67C377.95 416.06 378.7 415.65 379.48 415.42C380.26 415.18 381.08 415.13 381.86 415.13C382.63 415.14 383.44 415.18 384.22 415.39C385 415.59 385.76 415.96 386.33 416.52C385.56 416.32 384.83 416.21 384.09 416.16C383.35 416.12 382.61 416.12 381.85 416.13C380.33 416.1 378.93 416.13 377.43 416.67Z" fill="white"/>
<path d="M377.34 420.56C378.41 419.6 379.87 419.17 381.3 419.14C382.73 419.13 384.21 419.52 385.3 420.45C383.89 420.26 382.62 420.11 381.31 420.14C380.01 420.15 378.74 420.33 377.34 420.56Z" fill="white"/>
<path d="M375.49 184.41C381.04 193.06 389.18 199.23 395.24 207.34C400.58 214.49 407.5 220.33 411.29 228.67C412.75 231.87 413.78 235.25 414.81 238.61C418.61 251.04 422.41 263.47 426.21 275.89" stroke="#F6B3A2" stroke-width="10" stroke-miterlimit="10"/>
<path d="M338.57 401.41L324.04 402.36L324.33 414.27L333.01 417L338.35 411.96L338.57 401.41Z" fill="white"/>
<path d="M299.25 428.63C298.87 428.3 298.54 427.91 298.29 427.43C297.88 426.64 297.68 425.76 297.57 424.88C297.38 423.39 297.4 421.88 297.64 420.4C297.86 419.03 299.18 418.09 300.27 417.31C302.71 415.57 305.67 414.68 308.58 414.09C313.06 413.18 317.67 412.58 322.2 411.68C322.57 411.61 322.95 411.53 323.31 411.62C323.7 411.71 324.03 411.96 324.35 412.19C327.94 414.72 332.83 415.28 336.91 413.63C337.2 413.51 337.55 413.39 337.8 413.58C337.95 413.69 338.01 413.87 338.07 414.05C338.6 415.76 338.93 417.53 339.06 419.32C339.22 421.65 339.18 423.71 338.32 425.94C337.7 427.54 336.72 428.7 335.01 429.15C332.88 429.71 330.79 430.38 328.64 430.88C324.46 431.85 320.19 432.48 315.89 432.51C310.94 432.54 305.94 431.74 301.35 429.83C300.57 429.5 299.85 429.15 299.25 428.63Z" fill="white"/>
<path d="M299.66 426.48C298.48 425.87 297.53 425.06 297.22 423.55C296.75 421.26 297.13 418.8 298.66 416.97C301.24 413.88 305.35 412.51 309.16 411.73C311.67 411.22 314.2 410.83 316.72 410.4C318.81 410.04 320.89 408.86 322.62 407.71C323.81 406.92 324.82 406.55 326.11 407.54C327.2 408.37 327.74 409.81 327.24 411.12C328.8 411.87 330.87 412.22 332.6 412.21C334.27 412.21 335.94 411.9 337.49 411.27C337.78 411.15 338.13 411.03 338.38 411.22C338.53 411.33 338.59 411.51 338.65 411.69C339.38 414.07 339.75 416.61 339.69 419.1C339.64 420.99 339.46 424.44 337.95 425.74C337.4 426.21 336.69 426.44 336.01 426.66C329.68 428.64 323.12 430.11 316.49 430.15C311.54 430.18 306.54 429.38 301.95 427.47C301.14 427.13 300.35 426.84 299.66 426.48Z" fill="#FF4631"/>
<path d="M322.63 416.6C321.91 415.18 320.91 414.19 319.78 413.18C319.22 412.65 318.69 412.14 318.12 411.67C317.55 411.2 316.94 410.79 316.24 410.4C317.04 410.38 317.85 410.63 318.55 411.02C319.27 411.41 319.88 411.93 320.45 412.45C321.02 412.98 321.58 413.58 321.99 414.29C322.4 414.99 322.66 415.8 322.63 416.6Z" fill="white"/>
<path d="M316.64 417.51C315.93 416.28 315.26 415.19 314.43 414.18C313.62 413.16 312.69 412.27 311.65 411.31C313.06 411.56 314.31 412.45 315.21 413.55C316.09 414.67 316.69 416.07 316.64 417.51Z" fill="white"/>
<path d="M339.56 311.3C337.81 319.96 336.54 328.69 335.73 337.49C332.18 375.9 333.91 366.44 330.59 404.78" stroke="#F6B3A2" stroke-width="11" stroke-miterlimit="10"/>
<path d="M360.28 178.98C355.62 183.5 347.1 182.01 346.86 174.16C346.8 172.24 346.74 170.33 346.69 168.41C346.61 165.72 345.93 162.07 348.38 160.29C349.89 159.2 351.81 158.99 353.64 158.92C356 158.83 358.37 158.91 360.69 159.38C361.94 159.63 363.31 160.12 363.87 161.32C364.16 161.94 364.18 162.65 364.19 163.34C364.27 168.05 364.08 174.76 360.75 178.5C360.59 178.67 360.44 178.83 360.28 178.98Z" fill="#E2917E"/>
<path d="M396.98 407.57H368.62C368.62 407.57 356.65 290.63 354.56 286.54C353.91 291.03 343.95 400.3 343.3 404.79C331.77 404.2 330.88 404.38 319.35 403.79C320.16 391.56 326.91 258.33 327.57 257.46C328.5 256.24 329.95 255.56 331.35 254.93C340.7 250.68 350.4 246.34 360.67 246.32C369.72 246.29 383.14 257.86 383.14 257.86L396.98 407.57Z" fill="#01B8E4"/>
<path d="M394.4 129.34C391.97 133.27 389.49 137.36 386.53 140.92C380.58 148.1 373.45 154.17 364.11 156.15C359.5 157.12 354.75 157.56 350.05 157.53C346.47 157.51 343.28 157.37 340.24 155.28C333.17 150.42 327.77 143.51 323.92 135.91C322.2 132.51 320.36 128.79 319.08 125.24C317.32 120.36 317.07 114.24 316.53 109.1C317.42 110.11 318.43 111.01 319.53 111.77C319.53 107.86 319.54 103.95 319.54 100.04C319.92 100.54 320.31 101.03 320.69 101.53C321.17 97.52 322.25 93.58 323.86 89.88C324.57 90.48 325.1 91.29 325.36 92.18C325.92 88.7 327.31 85.36 329.38 82.52C330.36 83.55 331.18 84.75 331.78 86.04C332.78 83.17 334.33 80.5 336.32 78.21C336.17 79.08 336.38 80 336.89 80.72C336.35 79.96 340.06 75.63 340.64 75.1C340.55 76.17 341.06 76.93 341.58 77.86C343.17 75.92 345.22 74.35 347.51 73.32C346.65 73.95 347.41 75.48 348.46 75.63C349.51 75.78 350.49 75.11 351.34 74.47C353.18 73.09 355.01 71.72 356.85 70.34C357.16 70.11 357.52 69.86 357.91 69.93C358.85 70.09 358.76 71.77 359.68 72.02C360.14 72.15 360.59 71.83 360.96 71.54C361.99 70.72 363.03 69.91 364.06 69.09C365.1 71.1 366.15 73.11 367.19 75.12C367.83 74.43 368.48 73.74 369.12 73.05C369.34 72.82 369.58 72.57 369.9 72.53C370.32 72.48 370.68 72.8 370.98 73.1C373.03 75.18 375.09 77.26 377.14 79.34C377.54 79.74 377.95 80.15 378.46 80.39C378.84 80.57 379.26 80.64 379.67 80.77C381.87 81.5 383.06 83.81 384.02 85.91C384.31 85.13 384.6 84.35 384.89 83.57C385.08 83.06 387.71 88.25 387.77 88.45C388.04 87.59 388.31 86.73 388.58 85.88C389.66 88.32 390.75 90.76 391.83 93.2C392.27 93.33 392.78 93.16 393.06 92.79C392.96 92.92 393.83 97.27 393.88 97.81C394.09 100.2 394.41 102.59 394.67 104.97C395.16 104.31 395.77 103.74 396.46 103.29C396.69 104.73 396.91 106.18 397.14 107.62C397.17 107.81 397.2 108.01 397.32 108.16C397.56 108.46 398.06 108.42 398.35 108.17C398.65 107.93 398.8 107.55 398.93 107.19C400.2 115.15 398.6 122.56 394.4 129.34Z" fill="#47261C"/>
<path d="M354.57 286.54L354.29 257.43L348.5 258.08L351.4 282.64L354.57 286.54Z" fill="#B5FAFF"/>
<path d="M385.71 278.19C382.81 279.1 379.5 278.68 376.77 277.21C374.04 275.73 371.87 273.19 371.05 270.27C372.61 272.85 374.71 274.96 377.25 276.33C379.78 277.71 382.7 278.31 385.71 278.19Z" fill="#B5FAFF"/>
<path d="M337.8 267.7C337.87 269.08 337.52 270.5 336.85 271.75C336.19 273.01 335.24 274.11 334.11 274.98C331.83 276.7 328.93 277.47 326.19 277.24C328.88 276.68 331.42 275.78 333.5 274.19C335.57 272.6 337.14 270.37 337.8 267.7Z" fill="#B5FAFF"/>
<path d="M387.85 266.34C387.85 266.34 380.78 189.55 380.54 186.51C379.97 179.54 378.19 174.6 371.37 171.75C362.29 167.95 350.51 169.15 341.57 172.77C333.83 175.91 331.36 186.42 329.9 193.65C327.66 204.76 322.88 265.46 322.88 265.46L387.85 266.34Z" fill="#B8D700"/>
<path d="M369.15 170.96C360.97 168.35 351.12 169.31 343.15 172.21C343.17 172.33 343.19 172.45 343.22 172.57C344.41 177.4 349.32 181.06 354.09 181.74C361.28 182.78 367.79 177.84 369.15 170.96Z" fill="#E2917E"/>
<path d="M318.14 123.43C313.75 127.13 313.41 138.22 320.08 139.8C326.85 141.4 327.06 132.22 326.24 127.86C325.82 125.59 324.98 123.27 322.52 122.54C320.79 122.02 319.29 122.46 318.14 123.43Z" fill="#F6B3A2"/>
<path d="M324.32 129.38C323.83 127.98 322.38 126.19 320.71 126.33C320.36 126.36 320.04 126.52 319.74 126.71C317.46 128.17 317.33 131.23 318.34 133.54C318.83 134.65 319.77 135.61 320.95 135.9C324.54 136.78 325.14 131.72 324.32 129.38Z" fill="#E2917E"/>
<path d="M383.71 138.41C385.03 130.97 384.63 122.21 380.96 115.59C377.52 109.4 372.95 105.62 367.84 101.1C367.41 100.72 366.73 100.35 366.35 100.78C366.1 101.07 366.16 101.56 365.88 101.83C365.52 102.19 364.94 101.86 364.55 101.53C361 98.49 357.45 95.44 353.89 92.4C349.69 95.41 345.49 98.42 341.29 101.44C341.29 100.49 341.29 99.54 341.29 98.6C335.7 104.42 330.08 110.2 326.19 117.46C323.94 121.65 323.9 124.64 323.41 129.26C322.9 134.1 322.6 138.96 324.07 143.64C326.42 151.12 331.63 157.65 338.19 161.51C347.2 166.81 359.1 167.05 368.41 162.15C377.54 157.34 381.92 148.54 383.71 138.41Z" fill="#F6B3A2"/>
<path d="M324.41 122.84C328.48 115.61 334.4 109.86 340.28 104.07C340.29 105.02 340.3 105.97 340.3 106.92C344.73 103.93 349.16 100.95 353.59 97.96C357.38 101.03 361.16 104.1 364.95 107.18C365.36 107.51 365.97 107.84 366.36 107.49C366.65 107.22 366.58 106.73 366.85 106.45C367.25 106.02 367.98 106.4 368.43 106.78C373.87 111.34 378.75 115.15 382.44 121.37C382.96 122.25 383.42 123.17 383.83 124.12C383.3 121.09 382.37 118.18 380.94 115.59C377.5 109.4 372.93 105.62 367.82 101.1C367.39 100.72 366.71 100.35 366.33 100.78C366.08 101.07 366.14 101.56 365.86 101.83C365.5 102.19 364.92 101.86 364.53 101.53C360.98 98.49 357.43 95.44 353.87 92.4C349.67 95.41 345.47 98.42 341.27 101.44C341.27 100.49 341.27 99.54 341.27 98.6C335.68 104.42 330.06 110.2 326.17 117.46C324.98 119.68 324.41 121.57 324.07 123.54C324.18 123.3 324.28 123.08 324.41 122.84Z" fill="#E2917E"/>
<path d="M396.11 189.34C394.15 187.16 392.19 184.97 390.23 182.79C385.88 177.94 380.24 170.81 373.05 175.32C370.35 177.02 368.66 180.05 368.14 183.2C366.67 192.09 373.1 198.38 378.49 204.46C381.71 208.09 388.16 215.35 388.16 215.35L405.76 200.09C405.77 200.1 399.33 192.93 396.11 189.34Z" fill="#B8D700"/>
<path d="M400.06 410.4L400.23 404.73L364.78 405.84L365.86 410.13L400.06 410.4Z" fill="#B5FAFF"/>
<path d="M346.06 408.59L347.33 404.21L315.51 400.99L316.09 407.05L346.06 408.59Z" fill="#B5FAFF"/>
<path d="M405.77 200.1L402.6 195.44L384.04 212.29L388.17 215.36L405.77 200.1Z" fill="#F9CC01"/>
<path d="M392.31 134.32C394.93 139.55 390.78 150.07 383.9 148.87C376.92 147.65 380.42 138.96 382.94 135.2C384.25 133.24 385.97 131.42 388.56 131.72C390.39 131.94 391.62 132.95 392.31 134.32Z" fill="#F6B3A2"/>
<path d="M384.12 137.4C385.14 136.29 387.22 135.19 388.73 136C389.04 136.17 389.28 136.45 389.48 136.74C391.03 139.03 389.92 141.94 388.04 143.7C387.14 144.55 385.87 145.06 384.65 144.86C380.93 144.25 382.41 139.27 384.12 137.4Z" fill="#E2917E"/>
<path d="M427.99 267.08C429.68 273.2 432.5 278.52 437.63 282.31C439.77 283.89 442.3 285.24 443.43 287.64C443.54 287.88 443.64 288.17 443.51 288.4C443.32 288.75 442.81 288.7 442.42 288.6C440.06 287.96 437.76 287.1 435.56 286.02C438.56 288.87 441.45 290.98 444 294.31C443.83 295.14 442.82 295.55 441.99 295.37C441.17 295.19 440.5 294.6 439.88 294.03C438.53 292.8 437.19 291.57 435.84 290.34C437.59 292.99 440.52 295.66 441.09 298.89C441.15 299.21 441.16 299.55 441 299.83C440.79 300.19 440.34 300.34 439.92 300.33C438.82 300.31 437.94 299.45 437.19 298.65C434.74 296.07 432.93 293.4 431 290.41C432.58 292.86 433.3 295.87 432.98 298.77C432.87 299.81 432.23 301.12 431.21 300.9C430.71 300.79 430.37 300.33 430.09 299.9C428.42 297.29 427.71 294.69 426.91 291.73C426.44 290 425.93 288.18 424.68 286.89C424.41 286.61 424.02 286.33 423.65 286.46C423.4 286.55 423.24 286.79 423.1 287.02C421.67 289.42 420.84 293.66 417.68 294.35C416.43 290.49 419.1 286.6 420.45 282.77C422.14 277.94 421.65 272.38 419.13 267.92" fill="#F6B3A2"/>
<path d="M331.5 116.12L329.76 113.39C334.34 111.9 339.81 111.31 345.59 111.68L345.22 114.67C340.17 114.34 335.42 114.84 331.5 116.12Z" fill="#5E3628"/>
<path d="M375.45 123.52L377.83 121.33C373.79 118.72 368.65 116.75 362.96 115.63L362.55 118.61C367.53 119.58 371.99 121.28 375.45 123.52Z" fill="#5E3628"/>
<path d="M362.79 129.42C362.38 131.62 363.32 133.64 364.87 133.93C366.43 134.22 368.02 132.67 368.43 130.46C368.84 128.26 367.9 126.24 366.35 125.95C364.79 125.67 363.2 127.22 362.79 129.42Z" fill="#272D3A"/>
<path d="M341.32 125.46C340.91 127.66 339.32 129.21 337.76 128.93C336.2 128.64 335.27 126.62 335.68 124.42C336.09 122.22 337.68 120.67 339.24 120.95C340.79 121.24 341.73 123.26 341.32 125.46Z" fill="#272D3A"/>
<path d="M326.5 134.09C326.62 135.27 328.79 136.02 331.35 135.76C333.91 135.5 335.89 134.33 335.77 133.15C335.65 131.97 333.48 131.22 330.92 131.48C328.36 131.74 326.38 132.91 326.5 134.09Z" fill="#F28683"/>
<path d="M365.8 139.04C365.5 140.19 367.27 141.65 369.76 142.31C372.25 142.96 374.51 142.56 374.82 141.41C375.12 140.26 373.35 138.8 370.86 138.14C368.36 137.49 366.1 137.89 365.8 139.04Z" fill="#F28683"/>
<path d="M345.6 155.28C351.27 156.52 357.02 153.77 359.02 148.19C359.06 148.09 359.09 147.98 359.13 147.88C359.17 147.77 359.2 147.66 359.24 147.55C359.24 147.55 355.26 148.75 347.55 147.66C339.86 146.57 336.83 144.38 336.81 144.37C336.88 144.42 336.85 145.07 336.86 145.16C337.07 147.31 337.55 149.27 338.83 151.04C340.46 153.26 342.93 154.69 345.6 155.28Z" fill="#820B0B"/>
<mask id="mask0_0_1" style="mask-type:luminance" maskUnits="userSpaceOnUse" x="336" y="144" width="24" height="12">
<path d="M345.6 155.28C351.27 156.52 357.02 153.77 359.02 148.19C359.06 148.09 359.09 147.98 359.13 147.88C359.17 147.77 359.2 147.66 359.24 147.55C359.24 147.55 355.26 148.75 347.55 147.66C339.86 146.57 336.83 144.38 336.81 144.37C336.88 144.42 336.85 145.07 336.86 145.16C337.07 147.31 337.55 149.27 338.83 151.04C340.46 153.26 342.93 154.69 345.6 155.28Z" fill="white"/>
</mask>
<g mask="url(#mask0_0_1)">
<path d="M340.8 147.85C342.76 148.89 345.19 149.37 347.37 149.69C349.35 149.98 351.36 150.06 353.36 149.92C354.87 149.81 356.72 149.5 357.14 147.76C357.38 146.77 356.92 145.9 355.87 145.75L340.55 143.58C339.66 143.45 338.84 144.07 338.72 144.96C338.53 146.25 339.6 147.21 340.8 147.85Z" fill="#FCFFFF"/>
<path d="M341.34 157.51L351.23 158.91C352.54 159.1 353.75 158.19 353.93 156.88C354.06 155.95 353.57 155.16 352.84 154.62C351.99 154 350.94 153.65 349.94 153.33C347.66 152.6 345.32 152.42 342.95 152.62C341.51 152.74 339.56 153.05 339.31 154.8C339.13 156.12 340.04 157.33 341.34 157.51Z" fill="#F799AB"/>
</g>
<path opacity="0.2" d="M382.62 209.11L375.49 259.71L322.88 265.46L387.85 266.34L382.62 209.11Z" fill="#231F20"/>
<path d="M351.04 140.61C350.9 141.61 349.07 142.17 346.97 141.87C344.86 141.57 343.27 140.52 343.41 139.52C343.55 138.52 345.38 137.96 347.48 138.26C349.59 138.56 351.18 139.61 351.04 140.61Z" fill="#E2917E"/>
<path d="M387.47 257.22C378.82 246.81 372.73 232.43 370.33 216.71C368.19 202.74 368.76 187.65 372.04 171.87L378.96 173.87C375.92 188.5 375.38 202.4 377.34 215.21C379.5 229.29 384.9 242.11 392.56 251.33L387.47 257.22Z" fill="#00A15E"/>
<path d="M321.89 259.71L322.48 246.71C328.38 235.81 332.1 229.29 334.25 215.21C336.21 202.4 336.15 190.91 333.11 176.29L340.51 172.74C343.79 188.52 343.41 202.73 341.27 216.71C338.86 232.43 330.54 249.3 321.89 259.71Z" fill="#00A15E"/>
<path d="M257.85 216.35L285.88 214.11L276.01 152.47L246.79 158.08L257.85 216.35Z" fill="#F5FAFF"/>
<path d="M255.54 212.61L279.18 208.7L272.17 166.93L247.63 170.95L255.54 212.61Z" fill="#991C1C"/>
<path d="M251.22 198.54C250.79 196.97 250.53 195.35 250.38 193.72C250.16 191.4 249.75 188.86 250.23 186.54C250.49 185.26 251.56 184.45 252.61 183.82C253.22 183.45 253.87 183.14 254.54 182.86C255.36 182.52 256.21 182.23 257.04 181.99C257.36 181.9 257.69 181.81 258.01 181.87C258.33 181.93 258.65 182.17 258.69 182.5C258.73 182.84 258.48 183.13 258.24 183.38C257.05 184.58 255.65 185.55 254.22 186.45C253.76 186.74 253.24 187.06 252.92 187.52C252.71 187.82 252.39 189.24 252.71 189.48C252.85 189.59 253.79 189.32 253.99 189.29C254.47 189.22 254.95 189.15 255.43 189.09C257.3 188.85 259.18 188.68 261.06 188.77C261.46 188.79 261.9 188.84 262.15 189.14C262.45 189.5 262.32 190.08 262 190.42C261.67 190.76 261.21 190.92 260.76 191.08C259.33 191.56 257.89 192.05 256.46 192.53C257.78 192.36 259.11 192.19 260.43 192.02C260.81 191.97 261.19 191.92 261.57 191.99C261.95 192.06 262.32 192.26 262.49 192.59C262.61 192.81 262.62 193.1 262.47 193.3C262.39 193.4 262.27 193.47 262.15 193.53C260.78 194.26 259.34 194.76 257.93 195.35C256.55 195.92 254.96 196.11 253.78 197.09C254.01 196.9 254.72 196.97 255.02 196.87C255.42 196.74 255.78 196.61 256.2 196.54C257.2 196.37 258.21 196.31 259.22 196.37C259.83 196.41 260.69 196.85 260.45 197.6C260.33 197.99 259.98 198.26 259.63 198.46C258.25 199.27 256.6 199.47 255.07 199.93C254.51 200.1 253.95 200.31 253.52 200.7C253.09 201.09 252.79 201.68 252.9 202.25C252.86 202.06 252.59 201.77 252.5 201.57C252.34 201.23 252.18 200.89 252.02 200.54C251.73 199.89 251.41 199.23 251.22 198.54Z" fill="#F6B3A2"/>
<path opacity="0.2" d="M354.57 286.54L343.42 403.82L334.03 402.86L354.57 286.54Z" fill="#231F20"/>
<path opacity="0.2" d="M383.88 266.54L396.98 404.83L387.12 405.14L383.88 266.54Z" fill="#231F20"/>
</g>
<defs>
<clipPath id="clip0_0_1">
<rect width="500" height="500" fill="white"/>
</clipPath>
</defs>
</svg>
