<?xml version="1.0" encoding="utf-8"?>
<!-- Generator: Adobe Illustrator 25.4.1, SVG Export Plug-In . SVG Version: 6.00 Build 0)  -->
<svg version="1.1" id="Layer_1" xmlns="http://www.w3.org/2000/svg" xmlns:xlink="http://www.w3.org/1999/xlink" x="0px" y="0px"
	 viewBox="0 0 2700 2000" style="enable-background:new 0 0 2700 2000;" xml:space="preserve">
<style type="text/css">
	.st0{fill:#F4A640;}
	.st1{fill:#ADCFD8;}
	.st2{fill:#55769F;}
	.st3{fill:#DAEEF7;}
	.st4{fill:#FEB546;}
	.st5{fill:#FF5B7E;}
	.st6{fill:#E03268;}
	.st7{fill:#02CCC0;}
	.st8{fill:#06BFAD;}
	.st9{fill:#284C7A;}
	.st10{opacity:0.5;fill:#55769F;}
	.st11{fill:#C4DFE8;}
	.st12{fill:#FFC0BB;}
	.st13{fill:#FF5500;}
	.st14{fill:#07085B;}
	.st15{fill:#F99893;}
	.st16{fill:#333333;}
	.st17{opacity:0.6;fill:#FC8D84;}
	.st18{fill:#050645;}
	.st19{fill:#FFFFFF;}
	.st20{fill:#070852;}
	.st21{fill:#10116B;}
	.st22{fill:#EDEDED;}
	.st23{fill:#26426E;}
	.st24{fill:#E0E0E0;}
	.st25{fill:#3A5782;}
	.st26{opacity:0.3;fill:#F99893;}
	.st27{fill:#F5577A;}
	.st28{fill:#DE4B6C;}
</style>
<g>
	<g>
		<path class="st0" d="M1281.97,1460.42l-257.61,103.46L705.47,769.84l217.75-87.45c22.01-8.84,47.02,1.84,55.86,23.85
			L1281.97,1460.42z"/>
		<g>
			
				<rect x="753.71" y="775.67" transform="matrix(0.9846 -0.1746 0.1746 0.9846 -181.453 192.6012)" class="st1" width="500.95" height="704.33"/>
			
				<rect x="843.2" y="849.92" transform="matrix(0.9846 -0.1746 0.1746 0.9846 -134.1337 179.797)" class="st2" width="223.7" height="5.02"/>
			
				<rect x="793.98" y="837.38" transform="matrix(0.9846 -0.1746 0.1746 0.9846 -131.9771 179.2134)" class="st2" width="317.69" height="5.02"/>
			
				<rect x="771.54" y="901.84" transform="matrix(0.9846 -0.1746 0.1746 0.9846 -143.0571 182.2024)" class="st2" width="385.43" height="5.02"/>
			
				<rect x="775.76" y="925.63" transform="matrix(0.9846 -0.1746 0.1746 0.9846 -147.1435 183.3026)" class="st2" width="385.43" height="5.02"/>
			
				<rect x="784.19" y="973.19" transform="matrix(0.9846 -0.1746 0.1746 0.9846 -155.3169 185.5044)" class="st2" width="385.43" height="5.02"/>
			
				<rect x="788.41" y="996.98" transform="matrix(0.9846 -0.1746 0.1746 0.9846 -159.4029 186.6041)" class="st2" width="385.43" height="5.02"/>
			
				<rect x="792.62" y="1020.76" transform="matrix(0.9846 -0.1746 0.1746 0.9846 -163.4898 187.7053)" class="st2" width="385.43" height="5.02"/>
			
				<rect x="811.17" y="1125.37" transform="matrix(0.9846 -0.1746 0.1746 0.9846 -181.4654 192.5484)" class="st2" width="385.43" height="5.02"/>
			
				<rect x="815.54" y="1150.04" transform="matrix(0.9846 -0.1746 0.1746 0.9846 -185.7059 193.6933)" class="st2" width="385.43" height="5.02"/>
			
				<rect x="819.91" y="1174.7" transform="matrix(0.9846 -0.1746 0.1746 0.9846 -189.9388 194.8291)" class="st2" width="385.43" height="5.02"/>
			
				<rect x="824.28" y="1199.36" transform="matrix(0.9846 -0.1746 0.1746 0.9846 -194.1822 195.9776)" class="st2" width="385.43" height="5.02"/>
			
				<rect x="828.66" y="1224.03" transform="matrix(0.9846 -0.1746 0.1746 0.9846 -198.4172 197.1158)" class="st2" width="385.43" height="5.02"/>
			
				<rect x="833.03" y="1248.69" transform="matrix(0.9846 -0.1746 0.1746 0.9846 -202.6576 198.2604)" class="st2" width="385.43" height="5.02"/>
			
				<rect x="837.4" y="1273.35" transform="matrix(0.9846 -0.1746 0.1746 0.9846 -206.893 199.3994)" class="st2" width="385.43" height="5.02"/>
		</g>
		<g>
			
				<rect x="715.18" y="772.18" transform="matrix(0.9671 -0.2545 0.2545 0.9671 -254.3564 282.7881)" class="st3" width="500.95" height="704.33"/>
			
				<rect x="782.31" y="851.38" transform="matrix(0.9671 -0.2545 0.2545 0.9671 -187.8773 255.6901)" class="st2" width="223.7" height="5.02"/>
			
				<rect x="732.07" y="839.06" transform="matrix(0.9671 -0.2545 0.2545 0.9671 -184.8486 254.4577)" class="st2" width="317.69" height="5.02"/>
			
				<rect x="714.87" y="902.37" transform="matrix(0.9671 -0.2545 0.2545 0.9671 -200.4139 260.7837)" class="st2" width="385.43" height="5.02"/>
			
				<rect x="721.01" y="925.73" transform="matrix(0.9671 -0.2545 0.2545 0.9671 -206.1557 263.1158)" class="st2" width="385.43" height="5.02"/>
			
				<rect x="733.31" y="972.45" transform="matrix(0.9671 -0.2545 0.2545 0.9671 -217.6402 267.7819)" class="st2" width="385.43" height="5.02"/>
			
				<rect x="739.46" y="995.81" transform="matrix(0.9671 -0.2545 0.2545 0.9671 -223.385 270.1191)" class="st2" width="385.43" height="5.02"/>
			
				<rect x="745.6" y="1019.17" transform="matrix(0.9671 -0.2545 0.2545 0.9671 -229.1272 272.4521)" class="st2" width="385.43" height="5.02"/>
			
				<rect x="772.64" y="1121.92" transform="matrix(0.9671 -0.2545 0.2545 0.9671 -254.3907 282.7239)" class="st2" width="385.43" height="5.02"/>
			
				<rect x="779.02" y="1146.14" transform="matrix(0.9671 -0.2545 0.2545 0.9671 -260.3412 285.1375)" class="st2" width="385.43" height="5.02"/>
			
				<rect x="785.39" y="1170.36" transform="matrix(0.9671 -0.2545 0.2545 0.9671 -266.2959 287.5572)" class="st2" width="385.43" height="5.02"/>
			
				<rect x="791.77" y="1194.58" transform="matrix(0.9671 -0.2545 0.2545 0.9671 -272.2513 289.9781)" class="st2" width="385.43" height="5.02"/>
			
				<rect x="798.14" y="1218.81" transform="matrix(0.9671 -0.2545 0.2545 0.9671 -278.2063 292.3981)" class="st2" width="385.43" height="5.02"/>
			
				<rect x="804.52" y="1243.03" transform="matrix(0.9671 -0.2545 0.2545 0.9671 -284.1638 294.8214)" class="st2" width="385.43" height="5.02"/>
			
				<rect x="810.89" y="1267.25" transform="matrix(0.9671 -0.2545 0.2545 0.9671 -290.1155 297.2375)" class="st2" width="385.43" height="5.02"/>
		</g>
		<path class="st4" d="M1184.22,1499.67l-518.63,208.29L363.1,954.76l435.81-268.84c24.49-15.11,56.69-4.51,67.42,22.2
			L1184.22,1499.67z"/>
	</g>
	<g>
		<path class="st5" d="M498.23,1586.07l-73.99-1.34c-25.69-46.55-44.53-87.03-44.53-87.03c83.56-19.26,154.08-11.35,212.84,11.23
			l32.38,78.65l6.93-60.56c145.61,78.58,205.61,244.92,205.61,244.92s-257.34-27.41-311.89-52.78
			c-21.06-9.8-47.61-45.05-72.26-84.63C473.03,1615.75,498.23,1586.07,498.23,1586.07z"/>
		<path class="st6" d="M379.71,1497.7c0,0,330.39,139.04,457.75,274.24c0,0-257.34-27.41-311.89-52.78
			c-21.06-9.8-47.61-45.05-72.26-84.63c19.72-18.78,44.92-48.46,44.92-48.46l-73.99-1.34
			C398.56,1538.18,379.71,1497.7,379.71,1497.7z"/>
		<path class="st5" d="M390.25,1719.92c44.49-27.09,89.37-41.59,132.8-47.37c12.73,15.83,28.36,34.44,28.36,34.44l1.65-37.11
			c166.65-7.59,304.74,104.07,304.74,104.07c-96.52,60.83-178.85,77.61-246.3,72.17c-4-12.98-9.65-32.35-9.65-32.35l-11.91,29.81
			c-32.33-5.05-60.86-15.14-85.5-27.46c6.31-15.46,12.96-33.14,12.96-33.14l-35.92,20.4
			C421.28,1766.59,390.25,1719.92,390.25,1719.92z"/>
		<path class="st6" d="M611.5,1846.13c-4-12.98-9.65-32.35-9.65-32.35l-11.91,29.81c-32.33-5.05-60.86-15.14-85.5-27.46
			c6.31-15.46,12.96-33.14,12.96-33.14l-35.92,20.4c-60.19-36.8-91.22-83.47-91.22-83.47c194.17-22.43,467.54,54.04,467.54,54.04
			C761.27,1834.79,678.94,1851.56,611.5,1846.13z"/>
	</g>
	<path class="st7" d="M1362.63,718.86l59.64-43.8c-5.9-52.84-13.87-96.77-13.87-96.77c-79.35,32.5-132.38,79.67-167.32,132.03
		l18.96,82.91l-40.62-45.45c-73.55,148.21-26.53,318.68-26.53,318.68s194.32-170.92,224.22-223.13
		c11.55-20.16,12.88-64.26,10.16-110.82C1400.33,728.56,1362.63,718.86,1362.63,718.86z"/>
	<path class="st8" d="M1408.4,578.29c0,0-189.54,304.24-215.5,488.17c0,0,194.32-170.92,224.22-223.13
		c11.55-20.16,12.88-64.26,10.16-110.82c-26.94-3.95-64.65-13.64-64.65-13.64l59.64-43.8
		C1416.37,622.22,1408.4,578.29,1408.4,578.29z"/>
	<path class="st7" d="M1528.06,765.83c-51.97,3.56-96.98,17.63-135.79,37.97c-1.26,20.27-3.28,44.49-3.28,44.49l-22.76-29.35
		c-140.46,89.99-188.78,260.88-188.78,260.88c113.93-6.03,190.85-39.86,242.78-83.23c-4.23-12.91-10.79-31.99-10.79-31.99
		l26.94,17.47c23.49-22.79,40.96-47.49,53.96-71.78c-14.08-8.98-29.71-19.58-29.71-19.58l41.11-4.07
		C1529.66,821.86,1528.06,765.83,1528.06,765.83z"/>
	<path class="st8" d="M1420.24,996.6c-4.23-12.91-10.79-31.99-10.79-31.99l26.94,17.47c23.49-22.79,40.96-47.49,53.96-71.78
		c-14.08-8.98-29.71-19.58-29.71-19.58l41.11-4.07c27.91-64.79,26.31-120.81,26.31-120.81c-171.5,93.76-350.6,314-350.6,314
		C1291.39,1073.8,1368.3,1039.97,1420.24,996.6z"/>
	<g>
		<path class="st6" d="M2004.83,982.57h35.47c-5.8-3.97-13.06-6.34-20.96-6.34h-888.49c-46.48,0-84.17,33.4-84.17,74.61v47.39
			c0,41.2,37.68,74.61,84.17,74.61l878.55-0.27L2004.83,982.57z"/>
		<path class="st4" d="M1121.21,1098.23v-47.39c0-41.21,37.68-74.61,84.17-74.61h-19.08c-46.48,0-84.17,33.4-84.17,74.61v47.39
			c0,41.2,37.68,74.61,84.17,74.61l18.83-0.01C1158.76,1172.71,1121.21,1139.36,1121.21,1098.23z"/>
		<path class="st4" d="M1329.29,1098.23v-47.39c0-41.21,37.68-74.61,84.17-74.61h-19.08c-46.48,0-84.17,33.4-84.17,74.61v47.39
			c0,41.2,37.68,74.61,84.17,74.61l18.83-0.01C1366.84,1172.71,1329.29,1139.36,1329.29,1098.23z"/>
		<path class="st5" d="M1500.41,976.4c-44.46,0-80.49,31.94-80.49,71.35v53.56c0,39.41,36.04,71.35,80.49,71.35h553.11v-11.98h-2.29
			l-140.61-11.8l-28.42-98.83c0,0,54.85-54.62,58.43-56.02c3.58-1.41,110.6-5.68,110.6-5.68l2.29-0.02V976.4H1500.41z"/>
		<path class="st3" d="M2017.65,1074.18c0-57.79,33.69-85.8,33.69-85.8h-539.59c-40.83,0-73.93,29.34-73.93,65.54v41.23
			c0,36.19,33.1,65.54,73.93,65.54h539.59C2051.33,1160.68,2017.65,1146.94,2017.65,1074.18z"/>
		<path class="st3" d="M1437.81,1053.92v41.23c0,5.42,0.76,10.68,2.15,15.72c18.2-39.47,53.08-77.49,119.48-89.71
			c155.02-28.54,491.89-32.77,491.89-32.77h-539.59C1470.91,988.38,1437.81,1017.73,1437.81,1053.92z"/>
	</g>
	<g>
		<path class="st9" d="M1990.2,1375.55h40.14c-6.57-4.97-14.78-7.94-23.72-7.94h-1005.6c-52.61,0-95.26,41.81-95.26,93.39v59.32
			c0,51.58,42.65,93.39,95.26,93.39l994.35-0.33L1990.2,1375.55z"/>
		<path class="st2" d="M1419.3,1367.83c-50.31,0-91.1,39.99-91.1,89.31v67.04c0,49.32,40.79,89.31,91.1,89.31h626.01v-15h-2.59
			l-159.15-14.78l-32.17-123.71c0,0,62.08-68.36,66.13-70.12c4.05-1.76,125.18-7.11,125.18-7.11l2.59-0.03v-14.91H1419.3z"/>
		<path class="st3" d="M2004.71,1490.22c0-72.33,38.13-107.39,38.13-107.39h-610.71c-46.21,0-83.68,36.73-83.68,82.03v51.6
			c0,45.3,37.46,82.03,83.68,82.03h610.71C2042.83,1598.5,2004.71,1581.29,2004.71,1490.22z"/>
		<path class="st3" d="M1348.44,1464.86v51.6c0,6.78,0.86,13.37,2.44,19.67c20.6-49.41,60.07-96.99,135.22-112.29
			c175.45-35.72,556.73-41.02,556.73-41.02h-610.71C1385.91,1382.83,1348.44,1419.56,1348.44,1464.86z"/>
	</g>
	<g>
		<path class="st7" d="M872.62,1178.64h-40.16c6.57-3.94,14.79-6.3,23.73-6.3h1005.99c52.63,0,95.3,33.18,95.3,74.1v47.07
			c0,40.93-42.67,74.1-95.3,74.1l-994.74-0.26L872.62,1178.64z"/>
		<path class="st8" d="M1443.74,1172.51c50.33,0,91.14,31.73,91.14,70.87v53.19c0,39.14-40.8,70.87-91.14,70.87H817.48v-11.9h2.59
			l159.21-11.72l32.18-98.16c0,0-62.11-54.24-66.16-55.64c-4.05-1.4-125.23-5.64-125.23-5.64l-2.59-0.02v-11.83H1443.74z"/>
		<path class="st3" d="M858.1,1269.62c0-57.39-38.14-85.21-38.14-85.21h610.95c46.23,0,83.71,29.14,83.71,65.09v40.94
			c0,35.95-37.48,65.09-83.71,65.09H819.96C819.96,1355.54,858.1,1341.89,858.1,1269.62z"/>
		<path class="st3" d="M1514.62,1249.5v40.94c0,5.38-0.86,10.61-2.44,15.61c-20.61-39.2-60.1-76.96-135.28-89.1
			c-175.52-28.35-556.95-32.55-556.95-32.55h610.95C1477.14,1184.41,1514.62,1213.55,1514.62,1249.5z"/>
		<path class="st10" d="M1773.19,1293.51v-47.07c0-40.92-42.67-74.1-95.3-74.1h95.53c52.63,0,95.3,33.18,95.3,74.1v47.07
			c0,40.93-42.67,74.1-95.3,74.1l-94.26-0.03C1731.2,1367.06,1773.19,1334.11,1773.19,1293.51z"/>
	</g>
	<path class="st4" d="M796.67,1621.25h-43.29c7.08-4.4,15.94-7.04,25.58-7.04h1084.48c56.74,0,102.74,37.07,102.74,82.79v52.59
		c0,45.73-46,82.79-102.74,82.79l-1072.35-0.29L796.67,1621.25z"/>
	<path class="st0" d="M1412.35,1614.41c54.26,0,98.25,35.45,98.25,79.18v59.43c0,43.73-43.99,79.18-98.25,79.18H737.24v-13.29h2.79
		l171.63-13.1l34.69-109.67c0,0-66.95-60.61-71.32-62.17c-4.37-1.56-135-6.3-135-6.3l-2.79-0.02v-13.22H1412.35z"/>
	<path class="st3" d="M781.02,1722.91c0-64.12-41.12-95.21-41.12-95.21h658.62c49.84,0,90.24,32.56,90.24,72.73v45.75
		c0,40.17-40.4,72.73-90.24,72.73H739.9C739.9,1818.9,781.02,1803.65,781.02,1722.91z"/>
	<path class="st3" d="M1488.76,1700.43v45.75c0,6.01-0.92,11.85-2.63,17.44c-22.21-43.8-64.79-85.99-145.83-99.55
		c-189.22-31.67-600.4-36.36-600.4-36.36h658.62C1448.36,1627.7,1488.76,1660.26,1488.76,1700.43z"/>
	<path class="st11" d="M2304.99,1854.96H475.99c-5.4,0-9.79-4.38-9.79-9.79v-4.5c0-5.4,4.38-9.79,9.79-9.79h1829.01
		c5.41,0,9.79,4.38,9.79,9.79v4.5C2314.78,1850.58,2310.4,1854.96,2304.99,1854.96z"/>
	<polygon class="st0" points="454.99,1037.92 808.09,835.96 855.82,930.49 494.51,1121.64 	"/>
	<path class="st7" d="M1120.39,462.64c0,0-2.79,27.46-24.46,29.36c21.67,1.9,24.46,29.36,24.46,29.36s2.79-27.46,24.46-29.36
		C1123.18,490.1,1120.39,462.64,1120.39,462.64z"/>
	<path class="st4" d="M745.97,251.67c0,0-3.71,36.58-32.58,39.11c28.87,2.53,32.58,39.11,32.58,39.11s3.71-36.58,32.58-39.11
		C749.68,288.25,745.97,251.67,745.97,251.67z"/>
	<path class="st5" d="M594.74,578.84c0,0-2.49,24.56-21.87,26.26c19.38,1.7,21.87,26.26,21.87,26.26s2.49-24.56,21.87-26.26
		C597.23,603.4,594.74,578.84,594.74,578.84z"/>
	<path class="st5" d="M2312.2,1164.88c0,0-3.71,36.58-32.57,39.11c28.87,2.53,32.57,39.11,32.57,39.11s3.71-36.58,32.58-39.11
		C2315.91,1201.46,2312.2,1164.88,2312.2,1164.88z"/>
	<path class="st7" d="M265.38,842.81c0,0-3.71,36.58-32.58,39.11c28.87,2.53,32.58,39.11,32.58,39.11s3.71-36.58,32.58-39.11
		C269.08,879.39,265.38,842.81,265.38,842.81z"/>
	<path class="st7" d="M2389.31,803.7c0,0-3.71,36.58-32.57,39.11c28.86,2.53,32.57,39.11,32.57,39.11s3.71-36.58,32.58-39.11
		C2393.02,840.28,2389.31,803.7,2389.31,803.7z"/>
	<path class="st5" d="M1488.76,229.17c0,0-3.71,36.58-32.58,39.11c28.87,2.53,32.58,39.11,32.58,39.11s3.71-36.58,32.58-39.11
		C1492.47,265.75,1488.76,229.17,1488.76,229.17z"/>
	<path class="st4" d="M2107.16,534.66c0,0-2.02,23.1-17.71,24.69c15.69,1.6,17.71,24.69,17.71,24.69s2.02-23.1,17.7-24.69
		C2109.18,557.75,2107.16,534.66,2107.16,534.66z"/>
	<g>
		<path class="st12" d="M840.51,1660.31l-48.75,2.47l-6.17,144.62l-24.94,12.01l1.2,5.27l9.27,2.19c0,0,29.99-0.51,30.89-0.51
			c0.9,0,7.08-6.82,7.08-6.82l-0.93-1.19l4.98-3.38L840.51,1660.31z"/>
		<path class="st12" d="M972.56,1819.4c0,0-24.35-12.23-24.95-12.01l5.52-147.26l-60.43,0.18l27.37,154.64l3,2.04
			c-0.75,2.57-1.35,4.79-1.49,5.5c-0.39,1.93,10.3,2.06,14.03,2.7c3.73,0.64,14.54,1.8,21.49,3.73c6.95,1.93,15.7-3.73,15.7-3.73
			L972.56,1819.4z"/>
		<path class="st13" d="M974.19,1262.81c-7.04-18.3-13.88-11.05-26.58-33.18c-2.02-3.52-3.47-8.07-4.49-12.27
			c-3.04-12.55-9.64-24.01-19.41-32.45c-29.78-25.72-63.47-14.3-63.47-14.3s8.74,49.71,10.41,59.79
			c-7.44,10.13-14.95,20.47-14.95,20.47s-15.67,81.71,8.92,88.6c24.6,6.89,29.07-4.17,41.08-9.92c12.01-5.76,23.74,9.96,41.68-0.98
			c13.71-8.36,6.75-29.2,14-33.11C968.63,1291.55,981.78,1282.56,974.19,1262.81z"/>
		<path class="st13" d="M847.48,1211.84c-0.44-0.19-11.71-6.55-22.27-12.51l65.57-72.99c0,0-19.87-3.85-21.08-4
			c-1.21-0.15-29.7,8.72-29.7,8.72l-29.38,7.96c-22.42,81.81-50.34,96.62-50.35,96.63c-3.37,2.24-6.56,5.23-9.78,10.44
			c-11.13,18,0.13,29.27,6.53,34.46c6.4,5.19-4.31,24.38,7.61,35.13c15.61,14.08,30.04,0.8,40.78,8.69
			c10.74,7.89,13.08,19.58,38.53,17.37c25.45-2.21,25.2-85.41,25.2-85.41S848.3,1212.21,847.48,1211.84z"/>
		<path class="st5" d="M958.79,1360.98c0,0,21.64,103.31,15.36,114.48c-6.28,11.17-88.65,14.66-88.65,14.66l-3.49-132.63
			l31.41-47.47L958.79,1360.98z"/>
		<path class="st14" d="M932.67,1480.57l-15.39-42.17c0,0-50.66-18.45-53.88-18.68c-3.22-0.22-46.1,18.68-46.1,18.68
			s-13.11,26.54-15.67,31.3c-1.42,2.64,1.85,18.88,5.05,32.84l-18.17,0.85l-12.07,266.63c0,0,26.16,14.09,54.33,2.01l23.14-232.89
			l20.12-3.02L904.22,1767c0,0,24.15,18.11,58.36,3.02l-22.67-256.94C938.93,1501.98,936.49,1491.05,932.67,1480.57z"/>
		<path class="st12" d="M834.15,1278.66c0,0,22.47-4.71,64.29-1.74c41.81,2.97-19.34,26.53-19.34,26.53s-21.46-0.7-22.38-0.87
			C855.79,1302.4,834.15,1278.66,834.15,1278.66z"/>
		<rect x="850.2" y="1255.05" class="st12" width="37.12" height="65.15"/>
		<path class="st15" d="M887.26,1266.18v-22.22H850.2v18.9C858.18,1267.15,869.99,1269.62,887.26,1266.18z"/>
		<path class="st12" d="M939.26,1182.52c-3.55-1.75-7.67-1.44-11.4,0.45c1.28-33.57-26.09-61.8-60.57-60.61
			c-34.48-1.19-61.85,27.04-60.57,60.61c-3.73-1.89-7.85-2.2-11.4-0.45c-6.81,3.36-8.93,12.98-4.73,21.5
			c4.2,8.51,13.12,12.69,19.93,9.33c0.95-0.47,1.79-1.06,2.55-1.75c3.9,27.75,27.05,48.55,54.21,48.17
			c27.16,0.39,50.31-20.42,54.21-48.17c0.76,0.69,1.6,1.29,2.55,1.75c6.81,3.36,15.73-0.82,19.93-9.33
			C948.19,1195.5,946.07,1185.88,939.26,1182.52z"/>
		<path class="st16" d="M851.98,1194.89c0.15,2.81-2,5.22-4.81,5.37c-2.81,0.15-5.22-2-5.37-4.81c-0.15-2.81,2-5.22,4.81-5.37
			C849.43,1189.93,851.83,1192.08,851.98,1194.89z"/>
		<path class="st16" d="M895.87,1195.37c0.15,2.81-2,5.22-4.81,5.37c-2.81,0.15-5.22-2-5.37-4.81c-0.15-2.81,2-5.22,4.81-5.37
			C893.31,1190.4,895.72,1192.56,895.87,1195.37z"/>
		<path class="st13" d="M857.58,1184.46c-2.55-0.89-4.98-1.58-7.4-2.01c-2.41-0.43-4.8-0.54-7.13-0.29
			c-2.32,0.28-4.65,0.75-6.88,1.76l-0.87,0.32c-0.29,0.11-0.55,0.28-0.83,0.41l-1.71,0.83c-1.14,0.57-2.21,1.3-3.48,1.87
			c0.68-1.15,1.46-2.28,2.36-3.31c1-0.91,1.92-2,3.13-2.69c2.26-1.65,5.08-2.57,7.9-2.88c2.84-0.3,5.74,0.14,8.32,1.2
			C853.56,1180.74,855.91,1182.3,857.58,1184.46z"/>
		<path class="st13" d="M878.12,1184.38c1.65-2.17,3.99-3.75,6.54-4.85c2.57-1.07,5.46-1.54,8.31-1.26
			c2.83,0.29,5.65,1.19,7.92,2.82c1.22,0.68,2.15,1.76,3.15,2.67c0.91,1.02,1.69,2.15,2.38,3.29c-1.27-0.56-2.34-1.28-3.49-1.84
			l-1.71-0.81c-0.29-0.12-0.55-0.29-0.84-0.4l-0.87-0.32c-2.24-0.99-4.57-1.45-6.89-1.71c-2.33-0.23-4.71-0.1-7.13,0.35
			C883.09,1182.76,880.67,1183.48,878.12,1184.38z"/>
		<path class="st15" d="M869.81,1187.92c-0.25,2.68-0.06,5.36,0.44,8.01c0.25,1.33,0.61,2.65,1.13,3.96
			c0.54,1.3,1.19,2.61,2.38,3.74c1.36,1.05,1.95,1.36,2.33,2.31c0.4,0.83,0.22,1.89-0.21,2.9c-0.95,2.06-3.14,3.6-5.53,4.74
			c2.63-0.12,5.54-1.18,7.26-3.75c0.84-1.25,1.3-3.01,0.76-4.68c-0.56-1.72-1.55-2.33-2.62-3.18c-0.95-0.76-1.56-1.83-2.17-3.04
			c-0.57-1.09-0.96-2.31-1.42-3.5C871.33,1192.99,870.6,1190.47,869.81,1187.92z"/>
		<path class="st15" d="M853.09,1219.89c1.41,0.97,2.86,1.85,4.38,2.6c1.5,0.78,3.05,1.46,4.64,2.01c3.18,1.1,6.49,1.78,9.83,1.79
			c3.34,0.02,6.65-0.67,9.76-1.92c3.1-1.29,5.97-3.14,8.63-5.28c-1.18,1.24-2.45,2.4-3.83,3.44c-1.37,1.04-2.88,1.9-4.43,2.68
			c-1.57,0.74-3.23,1.32-4.93,1.7c-1.71,0.37-3.45,0.55-5.2,0.56c-3.5-0.03-6.96-0.79-10.15-2.13
			C858.61,1224.01,855.61,1222.21,853.09,1219.89z"/>
		<path class="st7" d="M940.94,1291.69c-20.11-19.52-47.92-15.38-47.92-15.38c-3.11,3.11-6.22,5.46-9.3,7.21
			c-4.41,2.24-9.94,4.18-16.1,4.34c-0.11,0-0.22,0.01-0.33,0c-0.11,0-0.22-0.01-0.33,0c-6.16-0.16-11.7-2.1-16.1-4.34
			c-3.08-1.76-6.19-4.1-9.3-7.21c0,0-27.81-4.14-47.92,15.38c-20.11,19.52-40.23,62.59-40.23,62.59s25.44,23.19,49.69,26.15
			c0,0,11.83,54.43,14.2,57.98c0,0,12.21,5.73,29.96,8.73c6.46,1.23,12.81,1.74,18.9,1.77c0.38,0.01,0.75,0,1.13,0.01
			c0.38,0,0.76,0,1.13-0.01c6.09-0.03,12.44-0.54,18.9-1.77c17.75-3,29.96-8.73,29.96-8.73c2.37-3.55,14.2-57.98,14.2-57.98
			c24.25-2.96,49.69-26.15,49.69-26.15S961.06,1311.21,940.94,1291.69z"/>
		<g>
			<path class="st6" d="M869.46,1423.72c0,0,7.47-1.24,11.59,4.25l-0.29,14.13l-9.13,4.25c0,0-11.31-9.63-10.46-9.87
				C862.02,1436.24,869.46,1423.72,869.46,1423.72z"/>
			<polygon class="st6" points="892.71,1516.03 772.41,1550.84 760.75,1462.77 881.05,1427.97 			"/>
			<polygon class="st3" points="762.48,1536.67 773.04,1545.59 888.18,1512.58 877.83,1429.59 869.71,1426.18 			"/>
			<polygon class="st3" points="888.18,1512.58 879.97,1505.44 864.95,1488.94 865.86,1443.53 869.71,1426.18 877.87,1429.45 			"/>
			<polygon class="st5" points="879.97,1505.44 759.67,1540.24 749.16,1458.52 869.46,1423.72 			"/>
		</g>
		<path class="st3" d="M820.94,1333.19c-2.79,3.4-5.34,6.93-7.67,10.58c-2.32,3.66-4.41,7.45-6.1,11.41
			c-1.71,3.95-3.01,8.06-3.74,12.29c-0.74,4.24-0.82,8.58-0.31,12.95c-1.35-4.19-1.75-8.73-1.28-13.17
			c0.43-4.45,1.71-8.79,3.44-12.89c1.79-4.08,4.03-7.95,6.68-11.5C814.57,1339.31,817.53,1335.99,820.94,1333.19z"/>
		<path class="st12" d="M795.98,1481.73c-21.18-35.86-11.38-79.49-3-103.61c-16.63-5.36-32.03-17.46-37.48-22.04
			c-33.81,76.33,23.45,141.65,23.45,141.65l0.11-0.11c1.09,2.46,1.89,4.66,1.89,4.66c13.5,24.4,14.09,24.01,15.06,23.67
			c0.97-0.35-1.7-11.95-0.51-11.92c1.19,0.03,9.71,14.01,10.34,12.7c0.62-1.31-5.67-15.18-4.75-15.41
			c0.92-0.24,8.94,13.38,10.71,12.2c1.77-1.17-7.53-15.79-5.75-16.15c1.78-0.36,10.92,14.86,12.36,13.53
			c1.21-1.12-8.6-18.39-11.75-23.86c-0.41-0.7,0.14-1.58,0.95-1.53c12.53,0.73,13.54,0.05,13.3-1.34
			C820.74,1493.18,805.7,1486.17,795.98,1481.73z"/>
		<path class="st6" d="M937.68,1280.13c-25.96,93.44,5.38,121.01,5.51,121.73l-4.69,21.74c0,0-63.94-41.57-23.41-152.34
			c1.14-3.11,4.53-4.74,7.54-3.35l12.13,5.62C937.25,1274.69,938.42,1277.48,937.68,1280.13z"/>
		<path class="st12" d="M994.36,1508.32c0,0-0.82-2.07-1.6-4.52c0-0.01,0-0.02,0.01-0.03h-0.01l-1.22-9.06
			c-0.76-20.54-4.17-93.38-15.39-136.24c-8.54,6.78-26.67,19.59-44.27,21.89c11.03,23.07,34.13,76.24,38.14,124.58
			c-4.07,9.22-9.55,21.97-9.08,22.73c0.71,1.13,1.85,0.98,10.27-7.41c0.55-0.54,1.48-0.27,1.64,0.49c1.2,5.86,5.1,24.27,6.66,24.3
			c1.85,0.04-1.23-16.5,0.27-17.36c1.49-0.86,4.09,15.34,6.08,15.06c1.99-0.28-0.87-14.97-0.08-15.38
			c0.8-0.41,5.05,13.38,6.31,13.92c1.27,0.54-1.48-14.73-0.65-15.5c0.83-0.77,6.23,9.13,7.13,8.77
			C999.46,1534.2,1000.12,1534.1,994.36,1508.32z"/>
		<path class="st13" d="M796.04,1182.16c0,0-3.76-69.47,73.66-74.06c0,0-2.41,68.25-62.98,74.87l-4.67-9.07L796.04,1182.16z"/>
		<path class="st13" d="M869.7,1108.1c0,0,62.8-3.52,66.13,73.37c0,0-4.56-0.33-7.96,1.5c0,0-49.74-12.44-62.08-60.64L869.7,1108.1z
			"/>
		<path class="st14" d="M781.8,1824.68c-12.62,1.27-18.58-1.48-21.15-5.28l-8.55,5.58c-3.39,2.16-1.86,7.41,2.16,7.41h55.55
			c1.96,0,3.55-1.59,3.55-3.55v-15.01C809.79,1817.51,801.38,1822.72,781.8,1824.68z"/>
		<path class="st14" d="M951.42,1824.68c12.62,1.27,18.58-1.48,21.15-5.28l8.55,5.58c3.39,2.16,1.86,7.41-2.16,7.41H923.4
			c-1.96,0-3.55-1.59-3.55-3.55v-15.01C923.43,1817.51,931.84,1822.72,951.42,1824.68z"/>
	</g>
	<g>
		<g>
			<path class="st3" d="M2113.58,1327.37l64.19,5.15l-20.72,51.93l-32.4-2.6l-13.49,43.28c-3.29-1.5-5.71-2.64-6.2-2.96
				c-0.98-0.65-4.56-22.13-7.71-42.42L2113.58,1327.37z"/>
			<path class="st6" d="M2150.21,1804.87v22.63c0,1.87,1.51,3.38,3.37,3.38h52.83c3.82,0,5.28-5.01,2.06-7.07l-29.64-18.95
				C2178.83,1804.87,2167.21,1813.4,2150.21,1804.87z"/>
			<path class="st12" d="M2046.51,845.73c-0.77,0.3-1.58-0.37-1.41-1.18c1.32-6.28,5.36-26.08,3.84-26.78
				c-1.81-0.83-5.85,16.77-7.69,16.98c-1.84,0.21,2.54-16.86,0.46-17.43c-2.08-0.58-5.54,15.12-6.51,15.18
				c-0.96,0.06,0.75-15.33-0.27-16.41c-1.02-1.07-4.85,15.14-5.99,15.55c-1.14,0.41-2.22-11.66-3.27-11.69
				c-1.05-0.03-1.74-0.22-7.09,27.64c0,0-0.32,10.21-2.12,12.61l4.02,8.21l12.46,0.41c0,0,27.08-24.5,26.85-25.99
				C2059.58,841.41,2058.39,841.08,2046.51,845.73z"/>
			<path class="st12" d="M2174.79,851.9c0.55,0.62,1.57,0.39,1.79-0.41c1.69-6.2,7.12-25.66,8.79-25.59
				c1.99,0.08-2.44,17.59-0.9,18.62c1.54,1.03,5.43-16.16,7.54-15.73c2.11,0.43-1.96,15.99-1.13,16.48
				c0.83,0.49,6.32-13.99,7.72-14.48c1.4-0.49-2.59,15.68-1.75,16.57c0.83,0.88,7.29-9.37,8.24-8.91c0.94,0.45,1.65,0.6-6.29,27.84
				c0,0-4.37,9.23-3.86,12.19l-7.32,5.47l-11.28-5.31c0,0-12.93-34.15-12.06-35.37C2165.12,842.1,2166.33,842.34,2174.79,851.9z"/>
			<polygon class="st12" points="2075.74,1075.02 2075.94,1122.65 2029.66,1115.52 2037.38,1061.96 			"/>
			<path class="st17" d="M2033.83,1086.61l3.55-24.66l38.4,17.58l0.02,9.4C2066.55,1091.2,2049.23,1093.22,2033.83,1086.61z"/>
			<path class="st6" d="M1992.13,1802.36v24.82c0,2.05-1.66,3.71-3.71,3.71h-58.11c-4.21,0-5.81-5.49-2.26-7.75l32.6-20.78
				C1960.65,1802.36,1973.44,1811.7,1992.13,1802.36z"/>
			<g>
				<g>
					<g>
						<path class="st14" d="M1939.06,1380.7c0.12-5.31-13.7,10.34-13.44,6.1c5.42-88.13,177.61-14.24,177.61-14.24l42.03,30.84
							l47.45,408.44c0,0-25.76,7.46-42.71,1.36l-105.08-350l-12.92-4.97C2032,1458.24,1974.53,1418.14,1939.06,1380.7z"/>
					</g>
				</g>
			</g>
			<g>
				<g>
					<g>
						<path class="st8" d="M1925.42,1390.4c-0.05,1.03-0.1,2.08-0.14,3.17C1925.32,1392.48,1925.37,1391.43,1925.42,1390.4z"/>
					</g>
					<g>
						<path class="st8" d="M1925.28,1393.62c-0.04,1.1-0.08,2.24-0.12,3.4C1925.2,1395.86,1925.24,1394.72,1925.28,1393.62z"/>
					</g>
					<g>
						<path class="st8" d="M1925.15,1397.47c-0.04,1.2-0.07,2.43-0.1,3.68C1925.08,1399.89,1925.11,1398.67,1925.15,1397.47z"/>
					</g>
					<g>
						<path class="st8" d="M1925.62,1386.8c-0.06,0.95-0.11,1.94-0.16,2.95C1925.5,1388.75,1925.56,1387.75,1925.62,1386.8z"/>
					</g>
					<g>
						<path class="st14" d="M1925.64,1366.78c35.48,37.44,106.37,91.46,106.37,91.46l12.92,4.97l-12.92-4.97l-39.95,353.62
							c0,0-28.47,5.42-44.74-3.39C1947.31,1808.46,1923.32,1471.86,1925.64,1366.78z"/>
					</g>
					<g>
						<path class="st8" d="M2192.71,1811.85c0,0-11.09,3.21-23.51,3.7C2181.62,1815.06,2192.71,1811.85,2192.71,1811.85
							L2192.71,1811.85z"/>
					</g>
					<g>
						<path class="st8" d="M2154.97,1814.58c1.14,0.23,2.31,0.42,3.49,0.57C2157.28,1815.01,2156.12,1814.82,2154.97,1814.58z"/>
					</g>
					<g>
						<path class="st8" d="M2169.2,1815.55c-2.96,0.12-5.99,0.08-8.96-0.2C2163.21,1815.62,2166.24,1815.66,2169.2,1815.55z"/>
					</g>
				</g>
			</g>
			<path class="st18" d="M2145.26,1403.41l6.77,58.29c-17.92,6.94-61.6,14.35-94.51-57.64c-10.38-22.71-13.05-39.05-11.13-50.78
				c31.52,8.43,56.85,19.29,56.85,19.29L2145.26,1403.41z"/>
			<path class="st3" d="M1987.27,1165.48c1.99,0,31.81-67.6,31.81-67.6c25.51,17.89,60.14,5.47,60.14,5.47
				s139.34,254.98,45.89,294.74c-93.44,39.76-181.58-8.61-181.58-8.61s-19.88-51.69-19.88-53.68
				C1923.65,1333.81,1985.28,1165.48,1987.27,1165.48z"/>
			<path class="st2" d="M2168.85,879.18c0,0,6.04,120.97-5.3,143.15c-37.61,73.56-84.33,81.02-84.33,81.02s-16.07,257.3-2.82,318.93
				c0,0,44.07,13.59,109.02-16.9c0,0-49.7-199.48-47.05-224.66c0,0,79.53-70.91,82.18-154.41c2.65-83.5-19.22-157.73-19.22-157.73
				L2168.85,879.18z"/>
			<path class="st2" d="M1954.46,1413.01c0,0,4.97-95.76,26.84-186.56c21.87-90.79,37.77-128.57,37.77-128.57
				c-29.33-32.31-24.45-61.51-21.87-99.41c2.98-43.74,45.73-131.22,45.73-131.22l-28.83-18.89
				c-138.18,166.01-61.63,298.22-61.63,298.22s-51.69,182.91-58.65,238.58C1893.83,1385.17,1921.33,1401.08,1954.46,1413.01z"/>
			<path class="st19" d="M2137.03,1180.45c-1.66-1.18-3.63-2.98-5.55-5.28c-5.86-7.07-8.9-15.03-11-23.93
				c1.27,3.8,4.67,14.84,11.83,23.23c3.21,3.66,4.9,4.9,6.46,5.9c-0.25,0.23-0.39,0.36-0.39,0.36c-0.02,0.17-0.03,0.34-0.04,0.52
				c-1.84,0.38-5.07,0.49-10.5-2.47c-3.38-1.77-6.05-3.97-8.84-6.34c1.83,1.3,5.6,4.03,9.16,5.7
				C2130.63,1179.36,2134.26,1180.64,2137.03,1180.45z"/>
			<path class="st19" d="M1953.53,1145.98c2.37-1.5,4.42-3.65,6.31-5.81c5.86-6.88,9.08-15.02,11.83-23.23
				c-2.09,8.85-5.11,16.83-11,23.93c-1.92,2.29-3.86,4.08-5.55,5.28c1.29,0.09,2.85-0.16,3.89-0.45c1.71-0.43,3.39-1.06,4.99-1.85
				c3.32-1.56,6.6-3.88,9.16-5.7c-2.47,2.1-5.31,4.49-8.84,6.34c-1.6,0.87-3.3,1.6-5.08,2.13c-1.8,0.45-3.63,0.84-5.67,0.29
				l-1.06-0.29L1953.53,1145.98z"/>
			<polygon class="st14" points="2009.36,977.81 2006.56,1010.51 2011.73,1013.76 2021.28,973.95 			"/>
			<path class="st15" d="M2016.31,1007.13c1.42,7.4-2.23,14.33-8.15,15.47c-5.92,1.14-11.88-3.95-13.3-11.35
				c-1.42-7.4,2.23-14.33,8.15-15.46C2008.93,994.64,2014.89,999.72,2016.31,1007.13z"/>
			<path class="st12" d="M2007.83,1037.35c-1.52-9.46-1.3-19.15-0.46-27.46c0.18-1.78,0.26-3.57,0.3-5.37
				c0.17-7.24,1.68-14.65,4.85-21.94c10.19-23.48,35.07-37.72,60.47-34.57c34.22,4.25,56.76,36.44,50.18,69.35
				c3.98-1.27,8.09-0.93,11.31,1.36c6.18,4.39,6.74,14.21,1.25,21.94c-5.49,7.73-14.95,10.43-21.13,6.04
				c-0.86-0.61-1.6-1.33-2.24-2.13c-8.46,27.43-35.73,44.45-63.15,38.49C2028.4,1078.53,2011.22,1061.26,2007.83,1037.35z"/>
			<path class="st16" d="M2071.09,1011.21c-1.34,3.38,1.1,7.03,4.8,7.02c2.02-0.01,3.88-1.29,4.63-3.17
				c1.35-3.39-1.09-7.05-4.81-7.03C2073.7,1008.04,2071.83,1009.33,2071.09,1011.21z"/>
			<path class="st16" d="M2027.75,1004.72c-1.35,3.38,1.1,7.04,4.81,7.02c2.02-0.01,3.88-1.3,4.63-3.18
				c1.34-3.38-1.1-7.03-4.81-7.01C2030.37,1001.55,2028.5,1002.84,2027.75,1004.72z"/>
			<path class="st15" d="M2064.34,1046.82c-2.69,1.34-5.71,2.33-8.18,2.81c-2.82,0.55-5.7,0.72-8.52,0.33
				c-2.82-0.38-5.53-1.36-8.01-2.79c-2.46-1.46-4.66-3.37-6.65-5.5c2.03,2.85,3.86,4.51,6.24,6.17c2.46,1.61,5.08,2.65,8.29,3.14
				c2.96,0.39,5.98,0.17,8.83-0.57C2059.19,1049.64,2061.94,1048.48,2064.34,1046.82z"/>
			<path class="st14" d="M2066.97,1000.87c2.65-0.47,5.15-0.77,7.61-0.81c2.45-0.04,4.82,0.22,7.08,0.84
				c2.24,0.64,4.46,1.48,6.5,2.82c2.78,1.58,4.78,3.52,6.23,4.48c-0.93-2.35-2.42-5.14-4.47-6.78c-1.97-1.98-4.6-3.34-7.33-4.09
				c-2.75-0.75-5.68-0.77-8.38-0.14C2071.53,997.85,2068.96,999.01,2066.97,1000.87z"/>
			<path class="st14" d="M2046.73,997.54c-1.29-2.4-3.34-4.33-5.68-5.81c-2.36-1.46-5.14-2.38-7.99-2.55
				c-2.83-0.16-5.75,0.28-8.25,1.53c-2.46,0.9-4.78,3.08-6.4,4.99c1.82-0.48,4.1-1.62,7.34-2.24c2.36-0.62,4.74-0.7,7.07-0.59
				c2.34,0.14,4.67,0.65,6.97,1.47C2042.1,995.15,2044.37,996.24,2046.73,997.54z"/>
			<path class="st15" d="M2055.56,1003.96c-2.39,2.24-4.57,4.67-6.64,7.19c-2.07,2.53-4,5.18-5.71,8.01
				c-0.98,1.7-2.21,3.96-2.5,5.89c-0.17,1.07-0.08,2.11,1.7,3.86c1.17,1.24,2.49,2.25,3.84,3.18c1.37,0.91,2.78,1.76,4.26,2.45
				c-2.47-2.12-4.97-4.23-6.93-6.66c-0.31-0.37-0.91-1.25-1.12-1.74c-0.11-0.36,0.08-1.15,0.34-1.82c0.53-1.4,1.29-2.8,2.11-4.16
				c1.61-2.75,3.44-5.41,5.23-8.1C2051.98,1009.4,2053.8,1006.72,2055.56,1003.96z"/>
			<path class="st14" d="M2015.45,942.91c0,0-17.17-3.31,3.98-13.68c21.15-10.37,73.01-16.41,100.12,6.82c0,0,9.12-11.7,17.31-6.56
				c8.19,5.14-8.53,10.82-8.53,10.82s11.45,2.21,13.65,8.56c1.63,4.7-5.37,3.31-9.13,2.26c6.22,2.56,24.52,19.84,0.76,67.04
				c-4.21-1.97-31.4-40.76-31.4-40.76s-54.66,17.96-44.7,3.06c0,0-63.7,16.02-48.26-12.85
				C2009.24,967.63,1985.76,964.1,2015.45,942.91z"/>
			<path class="st14" d="M2133.6,1018.18c0,0-4.12-3.16-10.42-0.82c-6.3,2.34-10.31,16.47-10.31,16.47s-20.63,16.89-10.57-56.73
				c9.88-72.33,23.57,12.04,23.57,12.04L2133.6,1018.18z"/>
		</g>
		<g>
			<path class="st6" d="M1992.32,789.57l-8.92-0.88c1.56-0.85,3.44-1.27,5.43-1.08l223.51,21.98c11.69,1.15,20.35,10.49,19.33,20.85
				l-1.17,11.92c-1.02,10.37-11.33,17.84-23.02,16.69l-221-21.8L1992.32,789.57z"/>
			<path class="st4" d="M2211.74,840.52l1.17-11.92c1.02-10.37-7.63-19.7-19.33-20.85l4.8,0.47c11.69,1.15,20.35,10.49,19.33,20.85
				l-1.17,11.92c-1.02,10.37-11.33,17.84-23.02,16.69l-4.74-0.47C2200.45,858.33,2210.72,850.87,2211.74,840.52z"/>
			<path class="st4" d="M2159.39,835.38l1.17-11.92c1.02-10.37-7.63-19.7-19.33-20.85l4.8,0.47c11.69,1.15,20.35,10.48,19.33,20.85
				l-1.17,11.92c-1.02,10.37-11.33,17.84-23.02,16.69l-4.74-0.47C2148.11,853.18,2158.38,845.72,2159.39,835.38z"/>
			<path class="st5" d="M2119.36,800.5c11.18,1.1,19.46,10.03,18.48,19.94l-1.33,13.47c-0.97,9.91-10.83,17.06-22.01,15.96
				l-139.14-13.68l0.3-3.01l0.58,0.06l35.66,0.51l9.59-24.16c0,0-12.45-15.1-13.31-15.54c-0.86-0.44-27.68-4.17-27.68-4.17
				l-0.57-0.06l0.3-3L2119.36,800.5z"/>
			<path class="st3" d="M1986.83,812.3c1.43-14.54-6.35-22.42-6.35-22.42l135.74,13.35c10.27,1.01,17.87,9.21,16.98,18.32
				l-1.02,10.37c-0.9,9.11-9.95,15.67-20.22,14.66l-135.74-13.35C1976.21,833.22,1985.03,830.6,1986.83,812.3z"/>
			<path class="st3" d="M2133.19,821.54l-1.02,10.37c-0.13,1.36-0.46,2.67-0.93,3.9c-3.6-10.38-11.44-20.81-27.84-25.52
				c-38.29-11.01-122.93-20.41-122.93-20.41l135.74,13.35C2126.49,804.24,2134.09,812.44,2133.19,821.54z"/>
		</g>
	</g>
	<g>
		<path class="st2" d="M1721.25,1132.77l-9.22,20.56c-0.76,1.7,0,3.69,1.7,4.45l48.14,21.58c3.48,1.56,6.85-2.39,4.75-5.58
			l-18.63-29.03C1748,1144.76,1733.27,1147.45,1721.25,1132.77z"/>
		<path class="st2" d="M1660.09,1132.77l-9.22,20.56c-0.76,1.7,0,3.69,1.7,4.45l48.14,21.58c3.48,1.56,6.85-2.39,4.75-5.58
			l-18.63-29.03C1686.83,1144.76,1672.1,1147.45,1660.09,1132.77z"/>
		<path class="st14" d="M1556.1,565.93l-5.12,32.11l-10.82-42.81c0,0,15.16-7.36,15.83-4.68
			C1556.66,553.22,1556.1,565.93,1556.1,565.93z"/>
		<polygon class="st12" points="1470.06,635.03 1465.38,690.54 1514.36,688.2 1508.71,639.05 		"/>
		<path class="st15" d="M1511.4,662.42l-2.69-23.38l-38.65-4.01l-1.62,19.22C1476.12,661.91,1489.94,669.85,1511.4,662.42z"/>
		<g>
			<path class="st15" d="M1541.43,597.63c-2.95,6.09-1.38,12.94,3.49,15.29c4.87,2.36,11.21-0.67,14.16-6.76
				c2.95-6.09,1.38-12.94-3.49-15.29C1550.71,588.52,1544.38,591.54,1541.43,597.63z"/>
			<path class="st12" d="M1548.54,602.09c0.26-1.59,0.6-3.16,0.98-4.72c1.52-6.32,1.93-13.09,0.87-20.15
				c-3.4-22.71-21.68-40.82-44.43-43.96c-30.65-4.24-57.64,18.46-59.55,48.51c-3.15-2.02-6.79-2.68-10.12-1.44
				c-6.37,2.37-9.13,10.76-6.16,18.73c2.97,7.97,10.54,12.5,16.92,10.13c0.88-0.33,1.69-0.79,2.43-1.33
				c0.98,25.74,20.69,46.81,45.84,47.98c12.3,0.58,23.75-3.71,32.63-11.22C1540.04,635.74,1546.15,616.89,1548.54,602.09z"/>
			<path class="st15" d="M1510.39,585.31c0.1,3,0.12,5.92,0.28,8.79c0.19,2.8,0.49,5.8,1.62,7.78c1.14,1.6,2.05,2.62,2.08,4.58
				c0.07,1.98-0.98,3.76-2.28,4.84c-2.67,2.25-6.14,2.46-9.01,1.76c2.93-0.52,5.73-1.52,7.36-3.43c0.76-0.95,1.26-2.01,1.08-3.01
				c-0.12-1.1-0.46-1.32-1.79-3.16c-0.94-1.6-1.24-3.22-1.42-4.79c-0.15-1.57-0.12-3.1,0.02-4.62
				C1508.62,591.05,1509.26,588.11,1510.39,585.31z"/>
			<path class="st16" d="M1493,588.54c0.33,3.11-2.41,5.62-5.48,4.99c-1.91-0.39-3.4-2.03-3.6-3.97c-0.32-3.1,2.41-5.59,5.47-4.98
				C1491.3,584.97,1492.79,586.61,1493,588.54z"/>
			<path class="st16" d="M1532.07,592.96c0.32,3.1-2.41,5.59-5.47,4.98c-1.91-0.38-3.4-2.02-3.61-3.96
				c-0.33-3.11,2.41-5.61,5.48-4.99C1530.37,589.38,1531.87,591.03,1532.07,592.96z"/>
			<path class="st15" d="M1485.36,620.21c1.2,1.04,2.45,2.01,3.77,2.87c1.3,0.88,2.66,1.68,4.07,2.36c2.81,1.36,5.79,2.35,8.87,2.72
				c3.07,0.39,6.2,0.12,9.2-0.68c3-0.84,5.86-2.22,8.56-3.89c-2.94,2.47-5.36,3.7-8.29,4.77c-3.08,1.03-6.16,1.37-9.62,0.99
				c-3.23-0.42-6.35-1.5-9.15-3.1C1489.98,624.65,1487.42,622.65,1485.36,620.21z"/>
			<path class="st14" d="M1498.76,578.96c-2.33-0.72-4.51-1.27-6.68-1.6c-2.16-0.33-4.28-0.39-6.34-0.14
				c-2.05,0.27-4.12,0.72-6.1,1.62c-1.52,0.47-5.21,2.64-6.17,3.07c1.13-2.08,2.77-4.3,4.79-5.53c2.01-1.53,4.53-2.4,7.08-2.72
				c2.56-0.31,5.18,0.07,7.51,1C1495.15,575.59,1497.27,577,1498.76,578.96z"/>
			<path class="st14" d="M1518.88,581.23c1.84-1.63,4.2-2.6,6.65-3.09c2.46-0.46,5.1-0.32,7.56,0.48c2.44,0.81,4.74,2.16,6.42,4.05
				c1.75,1.6,2.92,4.11,3.62,6.36c-0.87-0.61-4.06-3.45-5.46-4.21c-1.77-1.27-3.71-2.11-5.67-2.77c-1.98-0.65-4.07-1-6.25-1.09
				C1523.56,580.86,1521.31,580.97,1518.88,581.23z"/>
		</g>
		<path class="st20" d="M1497.03,895.4c0,0-10.21,69.29,56.73,81.36c66.95,12.07,150.25,8.47,150.25,8.47l11.59,159.16l34.95,1.78
			c0,0,89.99-221.15-34.57-255.72l-111.94,0.55l-46.09-3.29c0,0-46.64-11.52-47.19-9.33C1510.2,880.59,1498.13,896.5,1497.03,895.4z
			"/>
		<path class="st21" d="M1435.51,895.77c0,0-10.21,69.29,56.73,81.36c66.95,12.07,150.25,8.47,150.25,8.47l11.59,159.16l34.95,1.78
			c0,0,89.99-221.15-34.57-255.72l-111.94,0.55l-46.09-3.29c0,0-46.64-11.52-47.19-9.33
			C1448.68,880.95,1436.6,896.87,1435.51,895.77z"/>
		<path class="st5" d="M1519.83,668.4c0,0,46.09,5.85,57.8,15.36c11.71,9.51,68.05,149.26,68.05,149.26l-46.83,54.88l-99.51,0.73
			c0,0-74.63,40.24-121.46,2.19s-22.68-170.48,4.39-199.01c27.07-28.53,75.36-27.8,75.36-27.8S1501.54,694.74,1519.83,668.4z"/>
		<path class="st19" d="M1430.57,737.91c1.65,7.62,2.66,15.35,3.38,23.1c0.4,3.88,0.57,7.77,0.79,11.66c0.12,3.9,0.21,7.8,0.15,11.7
			c-0.15,7.8-0.58,15.63-1.92,23.35c-1.31,7.69-3.21,15.41-6.79,22.37c2.41-7.42,3.6-15.04,4.46-22.68
			c0.85-7.65,1.14-15.37,1.24-23.08c0.16-7.71-0.03-15.44-0.27-23.18C1431.33,753.42,1430.98,745.68,1430.57,737.91z"/>
		<path class="st19" d="M1568.49,732.79c2.11,11.33,4.34,22.63,6.6,33.9c2.31,11.26,4.71,22.5,7.44,33.66
			c2.7,11.16,5.69,22.24,9.31,33.11c1.82,5.43,3.84,10.79,6.22,15.99c2.34,5.21,5.12,10.26,8.84,14.67
			c-4.24-3.96-7.35-8.97-10.16-14.02c-2.73-5.12-5.08-10.44-7.11-15.86c-2.07-5.41-3.85-10.92-5.53-16.45
			c-1.62-5.55-3.11-11.14-4.5-16.74c-1.32-5.62-2.59-11.26-3.73-16.91c-1.1-5.67-2.18-11.33-3.09-17.03
			C1570.91,755.73,1569.44,744.28,1568.49,732.79z"/>
		<g>
			<path class="st22" d="M1668.3,758.07c-8.52-13.25-78.27-35.75-78.27-35.75c0,21.5,0,22.43,0,22.43l71,24.82L1668.3,758.07z"/>
			<polygon class="st19" points="1663.28,757.17 1582.28,719.82 1582.28,734.32 1661.28,762.82 			"/>
			<polygon class="st22" points="1658.78,757.17 1573.28,724.82 1573.28,749.82 1657.92,762.82 			"/>
			<path class="st19" d="M1668.3,754.62c0,0,16.48-38.55,23.23-46.55c0,25.36-10.25,57.25-10.25,57.25L1668.3,754.62z"/>
			<polygon class="st22" points="1675.5,756.32 1695.48,705.82 1695.48,729.88 1681.75,762.82 			"/>
			<polygon class="st19" points="1681.75,757.17 1703.53,708.07 1703.53,725.57 			"/>
			<polygon class="st23" points="1681.75,908.46 1709.21,861.16 1709.21,709.87 1681.75,757.17 			"/>
			<polygon class="st2" points="1555.23,885.61 1652.46,908.46 1652.46,757.17 1555.23,734.32 			"/>
			<path class="st24" d="M1652.46,757.17c8.57-4.1,26.5-2.65,29.29,0C1680.28,765.82,1654.64,767.52,1652.46,757.17z"/>
			<path class="st25" d="M1652.46,908.46c0,3.7,29.42,3.7,29.42,0V757.17c-2.98,4.4-26.1,4.28-29.42,0V908.46z"/>
		</g>
		<path class="st12" d="M1591.65,856.28c-0.29-2.32-17.88-4.9-24.34-5.24c-4.9-0.25-37.36-1.34-48.4-1.84l0.81,2.84l-0.17,12.54
			l-1.81,8.31c9.69,0.61,33.37,1.54,38.3,2.52c6.59,1.3,18.01,6.27,18.01,6.27s4.75-1.08-1.29-3.69c-4.85-2.09-8.25-5.33-9.69-6.95
			c-0.83-0.93,0.07-2.58,0.67-2.42c16.44,4.31,18.13,5.02,18.13,5.02s19.32-0.11,0.11-4.45c-11.52-2.6-15.65-4.12-16.67-5.41
			c-0.44-0.55,0.34-2.42,1.04-2.47c9.98-0.62,27.89,2.92,22.98,0.6c-4-1.89-16.6-3.96-21.5-4.75c-0.3-0.05-0.79-1.87,0.55-1.99
			C1577.9,854.4,1591.92,858.43,1591.65,856.28z"/>
		<path class="st19" d="M1419.32,828.18c4.05,0.98,8.04,2.12,12.1,2.96c4.03,0.96,8.13,1.66,12.18,2.52
			c8.16,1.49,16.34,2.78,24.55,3.93c8.22,1.08,16.44,2.07,24.69,2.87c8.22,0.82,16.57,1.51,24.71,1.97l1.09,0.06l0.24,0.95
			c0.7,2.76,1.15,5.45,1.5,8.21c0.34,2.75,0.49,5.52,0.48,8.29c-0.02,2.77-0.26,5.55-0.72,8.3c-0.5,2.74-1.32,5.43-2.41,8
			l-0.09,0.22l-0.18,0.12l-9.04,6.06c-3.01,2.02-6.03,4.03-9.08,6c2.83-2.27,5.69-4.5,8.57-6.72l8.61-6.65l-0.27,0.34
			c0.91-2.49,1.54-5.06,1.89-7.69c0.32-2.63,0.47-5.29,0.39-7.96c-0.09-2.66-0.35-5.32-0.72-7.97c-0.39-2.63-0.91-5.3-1.6-7.79
			l1.33,1.01c-4.3-0.11-8.37-0.39-12.55-0.69c-4.16-0.31-8.31-0.64-12.45-1.07c-8.29-0.85-16.56-1.89-24.79-3.2
			c-8.23-1.33-16.41-2.93-24.52-4.85c-4.04-1.03-8.08-2.03-12.06-3.28C1427.16,830.98,1423.23,829.57,1419.32,828.18z"/>
		<path class="st14" d="M1557.08,535.55c0,0,15.37,0.49-0.76-12.5c-16.13-12.99-59.42-28.23-87.17-13.58c0,0-5.55-11.8-13.57-8.98
			c-8.02,2.82,5.22,10.93,5.22,10.93s-10.24-0.33-13.37,4.7c-2.31,3.71,3.96,3.88,7.39,3.71c-5.83,0.99-28.19,15.11-16.97,60.19
			c3.99-0.88,26.72-33.83,26.72-33.83s51.97,28.88,46.83,5.92c0,0,53.85,33.6,46.21,5.85
			C1557.61,557.95,1578.43,559.48,1557.08,535.55z"/>
		<path class="st14" d="M1437.8,580.3c0,0,4.3-1.51,8.93,2.16c4.63,3.67,4.12,16.58,4.12,16.58s22.09,14.25,19.76-46.04
			c-2.48-64.14-18.43,5.14-18.43,5.14L1437.8,580.3z"/>
	</g>
	<g>
		<path class="st14" d="M1197.99,1782.71l9.22,20.56c0.76,1.7,0,3.69-1.7,4.45l-48.14,21.58c-3.48,1.56-6.85-2.39-4.75-5.58
			l18.63-29.03C1171.24,1794.7,1185.97,1797.4,1197.99,1782.71z"/>
		<path class="st14" d="M1260.37,1780.27l9.22,20.56c0.76,1.7,0,3.69-1.7,4.45l-48.14,21.58c-3.49,1.56-6.85-2.39-4.75-5.58
			l18.63-29.03C1233.63,1792.25,1248.36,1794.95,1260.37,1780.27z"/>
		<path class="st13" d="M1316.64,1114.48c0,0-52.47-8.85-70.07,49.77l21.73,32.52c0,0,45.57-17.51,45.75-19.22
			C1314.23,1175.84,1316.64,1114.48,1316.64,1114.48z"/>
		<path class="st13" d="M1401.09,1140.89c0,0,15.3,23.02,23.11,32.14c19.64,22.96,22.17,15.75,34.37,35.5
			c13.17,21.31-0.15,34.66-7.73,40.8c-7.58,6.14,5.1,28.86-9.02,41.6c-18.48,16.67-35.57,0.95-48.28,10.29
			c-12.71,9.34-15.49,23.18-45.62,20.57c-30.13-2.62-29.84-101.13-29.84-101.13s24.66-52.23,25.64-52.66
			C1344.7,1167.55,1401.09,1140.89,1401.09,1140.89z"/>
		<path class="st13" d="M1246.57,1164.25c0,0-1.8,18.08-7.78,28.49c-15.04,26.2-23.14,17.62-31.48,39.28
			c-9,23.38,6.58,34.03,15.16,38.66c8.58,4.63,0.34,29.31,16.57,39.21c21.25,12.96,35.13-5.66,49.35,1.16
			c14.22,6.82,19.52,19.91,48.65,11.75c29.12-8.16,10.57-104.91,10.57-104.91s-33.92-46.75-34.96-46.99
			C1311.61,1170.65,1246.57,1164.25,1246.57,1164.25z"/>
		<path class="st12" d="M1322.7,1280.92c0,0,50.29-9.25,73.41-8.47c23.12,0.78-14.01,60.91-14.01,60.91l-37.77,0.84
			c0,0-23.15-25.86-21.63-28.87c1.52-3.01-0.07-22.74-0.07-22.74L1322.7,1280.92z"/>
		<g>
			<path class="st12" d="M1367.54,1232.93l13.27,40.26c0,0-11.55,23.88-46.92,13.58c0,0,4.04-8.34-1.38-25.51
				C1326.98,1243.71,1367.54,1232.93,1367.54,1232.93z"/>
			<path class="st17" d="M1367.54,1232.93l6.22,18.81c-3.71,13.74-15.74,23.11-38.44,26.01c0.01-4.09-0.62-9.55-2.81-16.49
				C1326.98,1243.71,1367.54,1232.93,1367.54,1232.93z"/>
			<g>
				<path class="st15" d="M1286.63,1203.46c2.87,6.54,0.96,13.7-4.27,15.99c-5.23,2.3-11.8-1.14-14.67-7.68
					c-2.87-6.54-0.96-13.7,4.27-16C1277.19,1193.48,1283.75,1196.92,1286.63,1203.46z"/>
				<path class="st12" d="M1285.16,1233.14c-3.39-8.42-5.23-17.4-6.2-25.26c-0.21-1.68-0.51-3.35-0.85-5.02
					c-1.36-6.72-1.53-13.88-0.14-21.28c4.47-23.82,24.44-42.21,48.56-44.64c32.49-3.28,60.08,21.69,60.93,53.46
					c3.4-2.01,7.27-2.56,10.73-1.12c6.63,2.75,9.22,11.7,5.78,19.99c-3.44,8.29-11.61,12.78-18.23,10.02
					c-0.92-0.38-1.75-0.89-2.51-1.5c-2.03,27.11-23.63,48.56-50.21,48.83C1313.05,1266.83,1293.4,1254.73,1285.16,1233.14z"/>
				<path class="st15" d="M1319.84,1191.66c1.05,2.99,1.59,6.12,1.77,9.31c0.09,1.6,0.05,3.21-0.17,4.86
					c-0.25,1.64-0.63,3.33-1.67,4.96c-1.21,1.55-1.84,2.06-2.02,3.31c-0.22,1.07,0.28,2.23,1.06,3.26c1.68,2.09,4.61,3.24,7.68,3.86
					c-3.05,0.6-6.68,0.22-9.38-2.25c-1.32-1.19-2.34-3.08-2.19-5.14c0.15-2.14,1.11-3.09,2.36-4.72c0.65-0.99,1.06-2.37,1.37-3.77
					c0.34-1.41,0.44-2.92,0.63-4.41C1319.54,1197.9,1319.65,1194.82,1319.84,1191.66z"/>
				<path class="st16" d="M1338.05,1195.76c-0.46,3.27,2.34,6.01,5.6,5.46c2.02-0.34,3.66-2.01,3.95-4.04
					c0.46-3.26-2.34-6-5.59-5.46C1339.98,1192.05,1338.34,1193.72,1338.05,1195.76z"/>
				<path class="st16" d="M1296.68,1198.89c-0.46,3.26,2.33,5.99,5.58,5.47c2.03-0.33,3.67-2,3.96-4.03
					c0.47-3.27-2.33-6.01-5.59-5.47C1298.6,1195.18,1296.96,1196.86,1296.68,1198.89z"/>
				<path class="st26" d="M1338.85,1233.18c0,0-6.9-2.47-13.38,1.78c0,0-7.02-4.39-12.54-0.2c0,0,2.57,10.45,14.09,9.74
					C1338.53,1243.8,1338.85,1233.18,1338.85,1233.18z"/>
				<path class="st15" d="M1344.88,1229.43c-1.3,1.06-2.66,2.03-4.09,2.88c-1.41,0.88-2.87,1.67-4.38,2.33
					c-3.02,1.32-6.2,2.26-9.46,2.53c-3.25,0.29-6.54-0.11-9.68-1.07c-3.13-1-6.09-2.57-8.88-4.43c1.24,1.13,2.58,2.16,4.01,3.07
					c1.43,0.92,2.97,1.64,4.55,2.28c1.6,0.6,3.27,1.03,4.97,1.28c1.7,0.22,3.43,0.26,5.14,0.14c3.42-0.32,6.76-1.34,9.77-2.92
					C1339.84,1233.94,1342.62,1231.93,1344.88,1229.43z"/>
				<path class="st13" d="M1332.35,1185.41c2.48-0.67,4.81-1.16,7.11-1.43c2.29-0.27,4.53-0.25,6.7,0.1
					c2.15,0.37,4.31,0.91,6.37,1.94c1.58,0.56,5.4,2.99,6.39,3.47c-1.1-2.23-2.75-4.64-4.84-6.02c-2.06-1.69-4.69-2.71-7.36-3.15
					c-2.69-0.42-5.47-0.13-7.96,0.76C1336.29,1182,1334,1183.41,1332.35,1185.41z"/>
				<path class="st13" d="M1311.04,1187.02c-1.88-1.79-4.32-2.91-6.89-3.51c-2.58-0.58-5.37-0.54-7.99,0.21
					c-2.6,0.76-5.09,2.09-6.92,4.02c-1.91,1.62-3.24,4.21-4.07,6.57c0.94-0.6,4.42-3.48,5.92-4.22c1.92-1.27,4-2.08,6.09-2.71
					c2.11-0.61,4.33-0.9,6.64-0.91C1306.12,1186.46,1308.5,1186.66,1311.04,1187.02z"/>
			</g>
		</g>
		<path class="st12" d="M1410.17,1526.9c0,0,14.83,69.79-52.46,86.36c-67.29,16.57-152.21,18.25-152.21,18.25l-1.57,162.57
			l-35.42,4.06c0,0-105.69-219.07,18.74-262.21l113.85-6.63l46.65-6.31c0,0,46.68-14.71,47.38-12.51
			C1395.82,1512.68,1409.12,1528.09,1410.17,1526.9z"/>
		<path class="st12" d="M1472.74,1523.32c0,0,14.83,69.79-52.46,86.36c-67.29,16.57-152.21,18.26-152.21,18.26l-1.57,162.57
			l-35.42,4.06c0,0-105.69-219.07,18.74-262.21l113.85-6.63l46.65-6.31c0,0,46.68-14.71,47.38-12.51
			C1458.4,1509.1,1471.7,1524.51,1472.74,1523.32z"/>
		<path class="st4" d="M1230.8,1515.09c-56.74,0.87-108.5,33.45-126.91,96.72c-18.41,63.28-60.41,128.55-56.41,127.91
			c89,49.82,116.98-0.22,178.49,14.57c61.51,14.79,83.31,8.1,83.31,8.1c-17.8-89.31-41.22-134.46-41.22-134.46
			c5.17,0.93,156.13,3.15,193.42-38.18c10.46-11.59,18.47-26.17,16.87-61.8C1475.38,1461.65,1247.26,1514.84,1230.8,1515.09z"/>
		<path class="st3" d="M1247.72,1632.6c1.94-0.35,3.88-0.68,5.79-1.13c1.92-0.44,3.81-0.96,5.68-1.52c0.94-0.29,1.88-0.61,2.81-0.95
			c-0.97-0.2-1.91-0.48-2.85-0.82c-1.85-0.65-3.58-1.59-5.2-2.66c-1.57-1.15-3.05-2.4-4.35-3.83c-1.3-1.42-2.42-2.98-3.41-4.61
			l1.93,2.09c0.69,0.65,1.33,1.33,2.05,1.93c1.37,1.28,2.91,2.35,4.48,3.32c1.58,0.96,3.26,1.73,4.99,2.34
			c1.72,0.58,3.58,1.01,5.29,1.07l3.15,0.11l-2.79,1.3c-1.9,0.88-3.78,1.46-5.72,2c-1.93,0.54-3.89,0.92-5.85,1.26
			c-1.97,0.32-3.94,0.6-5.92,0.74c-1.98,0.15-3.96,0.24-5.94,0.23C1243.82,1633.2,1245.78,1632.96,1247.72,1632.6z"/>
		<path class="st12" d="M1265.55,1378.89c0,0-4.58,114.03-17.4,131.89l70.53-16.03v-124.1L1265.55,1378.89z"/>
		<path class="st4" d="M1294.04,1394.46c0,0,11.37,28.7,13.15,43.95c4.43,37.86-0.38,64.56-8.22,86.11
			c-10.99,30.23,74.07,18.73,76.12,18.77c89.88,2.14,89.05-1.53,89.05-1.53l14.35-11.52c-2-36.93-7.11-68.87-6.31-101.8l0.82-33.98
			l-4.12-34.35l-127.23-10.02L1294.04,1394.46z"/>
		<g>
			<path class="st22" d="M1250.49,1419.82c7.77-12.09,71.41-32.62,71.41-32.62c0,19.62,0,20.46,0,20.46l-64.78,22.65
				L1250.49,1419.82z"/>
			<path class="st22" d="M1250.49,1419.82c7.77-12.09,71.41-32.62,71.41-32.62c0,19.62,0,20.46,0,20.46l-64.78,22.65
				L1250.49,1419.82z"/>
			<polygon class="st19" points="1255.06,1418.99 1328.97,1384.92 1328.97,1398.15 1256.89,1424.15 			"/>
			<polygon class="st22" points="1259.17,1418.99 1337.18,1389.48 1337.18,1412.29 1259.96,1424.15 			"/>
			<path class="st19" d="M1250.49,1416.67c0,0-15.04-35.17-21.2-42.47c0,23.14,9.35,52.23,9.35,52.23L1250.49,1416.67z"/>
			<polygon class="st22" points="1243.92,1418.22 1225.69,1372.14 1225.69,1394.1 1238.21,1424.15 			"/>
			<polygon class="st19" points="1238.21,1418.99 1218.34,1374.2 1218.34,1390.16 			"/>
			<polygon class="st27" points="1238.21,1557.03 1219.98,1515.06 1219.98,1377.03 1238.21,1418.99 			"/>
			<polygon class="st5" points="1353.65,1536.18 1264.93,1557.03 1264.93,1418.99 1353.65,1398.14 			"/>
			<path class="st24" d="M1264.93,1418.99c-7.82-3.74-24.18-2.42-26.72,0C1239.55,1426.89,1262.94,1428.44,1264.93,1418.99z"/>
			<path class="st28" d="M1264.93,1557.03c0,3.38-26.84,3.38-26.84,0v-138.03c2.72,4.02,23.81,3.9,26.84,0V1557.03z"/>
		</g>
		<path class="st12" d="M1499.64,1365.12l-60.39,27.97c0,0-4.7,77.25-7.61,80.67c-5.28,6.19-58.83,23.91-87.03,29.1
			c-4.54,0.83-9.21,0.47-13.56-1.06c-13.99-4.94-38.75-13.83-42.65-15.16c-6.13-2.08-23.43-6.16-24.56-4.12
			c-1.05,1.9,13.47,3.33,22.01,7.57c1.2,0.6,0.08,2.12-0.22,2.05c-4.84-1.08-17.32-3.81-21.73-3.53
			c-5.42,0.35,12.53,3.67,21.58,7.93c0.63,0.3,0.67,2.33,0.06,2.68c-1.43,0.82-5.82,0.71-17.49-1.13
			c-19.46-3.06-1.54,4.18-1.54,4.18s1.83-0.04,18.71,2.03c0.62,0.08,0.84,1.94-0.27,2.5c-1.93,0.96-6.29,2.72-11.57,2.88
			c-6.57,0.19-2.55,2.95-2.55,2.95s12.45-0.4,19.06,0.82c4.94,0.91,27.3,8.79,36.53,11.8l1.14-1.42
			c12.8,2.98,130.77,11.6,145.09-23.4C1498.98,1436.08,1499.64,1365.12,1499.64,1365.12z"/>
		<path class="st4" d="M1322.7,1280.92c0,0,34.19,39.9,73.41-8.47c0,0,42.86-3.49,74.45,18.95c31.6,22.44,50.52,72.84,50.52,72.84
			s-45.35,30.23-81.91,30.23l-85.73-30.7l-59.4,30.7c0,0-27.58-1.83-50.94-13.74C1243.11,1380.72,1247.13,1300.61,1322.7,1280.92z"
			/>
		<path class="st14" d="M1428.75,1348.99c1.47,4.95,2.8,9.94,4.12,14.93c2.46,9.8,4.73,19.14,6.39,29.17
			c3.1,0.14,6.59-0.31,9.65-0.75c16.5-2.94,27.34-7.56,42.04-13.57c22.02-10.03,19.05-9.06,30.13-14.53
			c-12.89,8.15-19.83,11.83-29.22,16.52c-12.87,5.97-25.17,11.49-42.49,14.54c-7.57,1.03-9.75,0.81-12.62,0.48
			c-1.12-7.36-2.4-14.89-5.91-31.38l-3.27-15.1l-3.37-15.1C1425.83,1339.09,1427.28,1344.04,1428.75,1348.99z"/>
		<path class="st14" d="M1292.87,1358.27c-1,5.15-1.68,11.95-1.45,18.3c0.11,2.96,2.3,11.25,4.82,19.65
			c-0.47,0.18-0.94,0.35-1.41,0.53c-2.92-8.45-5.43-16.92-5.75-20c-0.77-6.36-0.24-12.78,0.83-19.02c1.2-6.29,2.78-12.15,5.17-18.22
			c2.27-5.88,4.95-11.6,8.31-16.92c-2.24,5.86-4.28,11.75-6.09,17.68C1295.5,1346.22,1293.92,1352.21,1292.87,1358.27z"/>
		<path class="st13" d="M1387.45,1190.41c0,0-58.71-14.16-86.76-54.06c0,0-0.49-36.33,53.41-28.09
			C1406.47,1116.27,1418.73,1167.23,1387.45,1190.41z"/>
	</g>
</g>
</svg>
